M48
; DRILL file KiCad 10.0.1 date 2026-07-31T13:09:35
; FORMAT={-:-/ absolute / metric / decimal}
; #@! TF.CreationDate,2026-07-31T13:09:35+02:00
; #@! TF.GenerationSoftware,Kicad,Pcbnew,10.0.1
; #@! TF.FileFunction,Plated,1,2,PTH
FMAT,2
METRIC
; #@! TA.AperFunction,Plated,PTH,ViaDrill
T1C0.300
; #@! TA.AperFunction,Plated,PTH,ViaDrill
T2C0.500
; #@! TA.AperFunction,Plated,PTH,ViaDrill
T3C0.800
; #@! TA.AperFunction,Plated,PTH,ComponentDrill
T4C1.000
; #@! TA.AperFunction,Plated,PTH,ComponentDrill
T5C1.100
; #@! TA.AperFunction,Plated,PTH,ViaDrill
T6C1.200
; #@! TA.AperFunction,Plated,PTH,ComponentDrill
T7C1.300
%
G90
G05
T1
X169.63Y-89.08
T2
X114.81Y-77.29
X116.98Y-74.61
X125.23Y-88.08
X125.24Y-84.52
X125.41Y-86.37
X125.42Y-73.17
X126.25Y-71.54
X127.53Y-70.28
X127.83Y-78.38
X128.22Y-72.81
X130.0Y-83.42
X130.08Y-92.0
X131.95Y-110.87
X131.995Y-109.615
X132.2Y-106.67
X133.23Y-88.98
X134.37Y-104.5
X135.925Y-90.595
X137.185Y-88.645
X138.93Y-88.98
X145.23Y-56.38
X145.53Y-77.38
X147.34Y-92.31
X148.73Y-88.88
X149.46Y-94.79
X149.53Y-81.28
X149.83Y-70.78
X151.93Y-84.18
X152.38Y-86.63
X152.63Y-88.88
X153.73Y-79.68
X154.23Y-72.08
X154.7Y-94.11
X155.23Y-83.08
X156.93Y-78.68
X158.93Y-70.78
X159.63Y-73.28
X163.73Y-68.4
X166.51Y-84.42
X167.05Y-76.79
X170.66Y-87.95
X177.44Y-122.32
X177.94Y-114.57
X184.53Y-74.98
X187.93Y-70.78
X194.01Y-72.99
X197.13Y-72.28
X200.96Y-82.49
T3
X121.93Y-75.05
X123.42Y-85.73
X123.43Y-58.98
X124.43Y-52.38
X124.83Y-56.58
X126.24Y-82.15
X130.73Y-66.18
X132.18Y-95.71
X133.57Y-99.46
X138.71Y-77.87
X138.748Y-107.828
X140.03Y-57.98
X141.85Y-81.95
X143.16Y-116.56
X144.27Y-108.16
X145.82Y-85.93
X146.33Y-54.98
X146.33Y-59.78
X147.78Y-74.58
X156.33Y-80.38
X156.93Y-59.78
X158.23Y-57.98
X158.25Y-62.0
X158.25Y-66.51
X160.76Y-91.31
X160.84Y-81.99
X162.23Y-76.61
X164.14Y-83.31
X166.757Y-88.623
X166.778Y-95.45
X167.7Y-81.66
X169.63Y-55.48
X169.66Y-69.14
X170.105Y-74.295
X171.47Y-90.05
X171.63Y-61.28
X173.14Y-107.81
X173.97Y-66.87
X174.48Y-76.45
X174.53Y-120.14
X177.03Y-98.21
X179.5Y-66.1
X181.43Y-57.38
X184.35Y-106.85
X185.11Y-99.57
X185.65Y-70.08
X185.85Y-93.66
X186.23Y-72.07
X186.23Y-80.7
X187.97Y-90.83
X190.63Y-64.48
X193.767Y-60.417
X195.73Y-64.98
X197.5Y-78.71
X200.23Y-58.78
T4
X115.015Y-69.48
X117.555Y-69.48
X127.87Y-113.18
X130.41Y-113.18
X132.95Y-113.18
X135.49Y-113.18
X138.03Y-113.18
X140.57Y-113.18
X143.11Y-113.18
X160.01Y-127.17
X160.01Y-129.71
X164.04Y-127.16
X164.04Y-129.7
X179.5Y-82.42
X179.5Y-84.96
X179.5Y-87.5
X179.5Y-90.04
X179.5Y-92.58
X179.5Y-95.12
X182.53Y-115.67
X182.53Y-118.21
X182.53Y-120.75
X182.53Y-125.83
X182.53Y-128.37
X191.78Y-115.67
X191.78Y-120.75
X191.78Y-125.83
X191.78Y-128.37
T5
X201.56Y-70.17
X201.56Y-72.17
X201.56Y-74.17
X201.56Y-76.17
X201.56Y-78.17
X201.56Y-80.17
X201.56Y-85.6
X201.56Y-87.6
X201.56Y-89.6
X201.56Y-91.6
X201.56Y-93.6
X201.56Y-95.6
T6
X115.93Y-101.63
X124.03Y-49.28
X141.13Y-79.55
X143.8Y-97.69
X145.88Y-51.78
X146.63Y-116.12
X148.36Y-97.69
X151.02Y-105.76
X155.86Y-114.54
X159.085Y-68.825
X160.09Y-93.45
X160.37Y-64.88
X165.03Y-102.68
X185.33Y-88.48
X194.33Y-105.28
X195.73Y-84.61
X196.82Y-99.27
T7
X120.58Y-107.34
T4
G00X115.62Y-49.67
M15
G01X115.62Y-49.17
M16
G05
G00X115.62Y-55.97
M15
G01X115.62Y-55.47
M16
G05
G00X115.62Y-62.27
M15
G01X115.62Y-61.77
M16
G05
G00X131.82Y-49.67
M15
G01X131.82Y-49.17
M16
G05
G00X131.82Y-55.97
M15
G01X131.82Y-55.47
M16
G05
G00X131.82Y-62.27
M15
G01X131.82Y-61.77
M16
G05
G00X138.1Y-49.66
M15
G01X138.1Y-49.16
M16
G05
G00X138.1Y-55.96
M15
G01X138.1Y-55.46
M16
G05
G00X138.1Y-62.26
M15
G01X138.1Y-61.76
M16
G05
G00X154.3Y-49.66
M15
G01X154.3Y-49.16
M16
G05
G00X154.3Y-55.96
M15
G01X154.3Y-55.46
M16
G05
G00X154.3Y-62.26
M15
G01X154.3Y-61.76
M16
G05
G00X161.96Y-49.65
M15
G01X161.96Y-49.15
M16
G05
G00X161.96Y-55.95
M15
G01X161.96Y-55.45
M16
G05
G00X161.96Y-62.25
M15
G01X161.96Y-61.75
M16
G05
G00X178.16Y-49.65
M15
G01X178.16Y-49.15
M16
G05
G00X178.16Y-55.95
M15
G01X178.16Y-55.45
M16
G05
G00X178.16Y-62.25
M15
G01X178.16Y-61.75
M16
G05
G00X184.45Y-49.67
M15
G01X184.45Y-49.17
M16
G05
G00X184.45Y-55.97
M15
G01X184.45Y-55.47
M16
G05
G00X184.45Y-62.27
M15
G01X184.45Y-61.77
M16
G05
G00X200.65Y-49.67
M15
G01X200.65Y-49.17
M16
G05
G00X200.65Y-55.97
M15
G01X200.65Y-55.47
M16
G05
G00X200.65Y-62.27
M15
G01X200.65Y-61.77
M16
G05
M30
