%TF.GenerationSoftware,KiCad,Pcbnew,9.0.5*%
%TF.CreationDate,2025-11-16T19:00:17+01:00*%
%TF.ProjectId,OSCAR_Audio,4f534341-525f-4417-9564-696f2e6b6963,rev?*%
%TF.SameCoordinates,Original*%
%TF.FileFunction,Legend,Top*%
%TF.FilePolarity,Positive*%
%FSLAX46Y46*%
G04 Gerber Fmt 4.6, Leading zero omitted, Abs format (unit mm)*
G04 Created by KiCad (PCBNEW 9.0.5) date 2025-11-16 19:00:17*
%MOMM*%
%LPD*%
G01*
G04 APERTURE LIST*
%ADD10C,0.187500*%
%ADD11C,0.100000*%
%ADD12C,0.600000*%
%ADD13C,0.150000*%
%ADD14C,0.120000*%
G04 APERTURE END LIST*
D10*
X115240497Y-118106678D02*
X115240497Y-116606678D01*
X115240497Y-116606678D02*
X115597640Y-116606678D01*
X115597640Y-116606678D02*
X115811926Y-116678107D01*
X115811926Y-116678107D02*
X115954783Y-116820964D01*
X115954783Y-116820964D02*
X116026212Y-116963821D01*
X116026212Y-116963821D02*
X116097640Y-117249535D01*
X116097640Y-117249535D02*
X116097640Y-117463821D01*
X116097640Y-117463821D02*
X116026212Y-117749535D01*
X116026212Y-117749535D02*
X115954783Y-117892392D01*
X115954783Y-117892392D02*
X115811926Y-118035250D01*
X115811926Y-118035250D02*
X115597640Y-118106678D01*
X115597640Y-118106678D02*
X115240497Y-118106678D01*
X117311926Y-118035250D02*
X117169069Y-118106678D01*
X117169069Y-118106678D02*
X116883355Y-118106678D01*
X116883355Y-118106678D02*
X116740497Y-118035250D01*
X116740497Y-118035250D02*
X116669069Y-117892392D01*
X116669069Y-117892392D02*
X116669069Y-117320964D01*
X116669069Y-117320964D02*
X116740497Y-117178107D01*
X116740497Y-117178107D02*
X116883355Y-117106678D01*
X116883355Y-117106678D02*
X117169069Y-117106678D01*
X117169069Y-117106678D02*
X117311926Y-117178107D01*
X117311926Y-117178107D02*
X117383355Y-117320964D01*
X117383355Y-117320964D02*
X117383355Y-117463821D01*
X117383355Y-117463821D02*
X116669069Y-117606678D01*
X117954783Y-118035250D02*
X118097640Y-118106678D01*
X118097640Y-118106678D02*
X118383354Y-118106678D01*
X118383354Y-118106678D02*
X118526211Y-118035250D01*
X118526211Y-118035250D02*
X118597640Y-117892392D01*
X118597640Y-117892392D02*
X118597640Y-117820964D01*
X118597640Y-117820964D02*
X118526211Y-117678107D01*
X118526211Y-117678107D02*
X118383354Y-117606678D01*
X118383354Y-117606678D02*
X118169069Y-117606678D01*
X118169069Y-117606678D02*
X118026211Y-117535250D01*
X118026211Y-117535250D02*
X117954783Y-117392392D01*
X117954783Y-117392392D02*
X117954783Y-117320964D01*
X117954783Y-117320964D02*
X118026211Y-117178107D01*
X118026211Y-117178107D02*
X118169069Y-117106678D01*
X118169069Y-117106678D02*
X118383354Y-117106678D01*
X118383354Y-117106678D02*
X118526211Y-117178107D01*
X119240497Y-118106678D02*
X119240497Y-117106678D01*
X119240497Y-116606678D02*
X119169069Y-116678107D01*
X119169069Y-116678107D02*
X119240497Y-116749535D01*
X119240497Y-116749535D02*
X119311926Y-116678107D01*
X119311926Y-116678107D02*
X119240497Y-116606678D01*
X119240497Y-116606678D02*
X119240497Y-116749535D01*
X120597641Y-117106678D02*
X120597641Y-118320964D01*
X120597641Y-118320964D02*
X120526212Y-118463821D01*
X120526212Y-118463821D02*
X120454783Y-118535250D01*
X120454783Y-118535250D02*
X120311926Y-118606678D01*
X120311926Y-118606678D02*
X120097641Y-118606678D01*
X120097641Y-118606678D02*
X119954783Y-118535250D01*
X120597641Y-118035250D02*
X120454783Y-118106678D01*
X120454783Y-118106678D02*
X120169069Y-118106678D01*
X120169069Y-118106678D02*
X120026212Y-118035250D01*
X120026212Y-118035250D02*
X119954783Y-117963821D01*
X119954783Y-117963821D02*
X119883355Y-117820964D01*
X119883355Y-117820964D02*
X119883355Y-117392392D01*
X119883355Y-117392392D02*
X119954783Y-117249535D01*
X119954783Y-117249535D02*
X120026212Y-117178107D01*
X120026212Y-117178107D02*
X120169069Y-117106678D01*
X120169069Y-117106678D02*
X120454783Y-117106678D01*
X120454783Y-117106678D02*
X120597641Y-117178107D01*
X121311926Y-117106678D02*
X121311926Y-118106678D01*
X121311926Y-117249535D02*
X121383355Y-117178107D01*
X121383355Y-117178107D02*
X121526212Y-117106678D01*
X121526212Y-117106678D02*
X121740498Y-117106678D01*
X121740498Y-117106678D02*
X121883355Y-117178107D01*
X121883355Y-117178107D02*
X121954784Y-117320964D01*
X121954784Y-117320964D02*
X121954784Y-118106678D01*
D11*
X150823884Y-110891466D02*
X151585789Y-110891466D01*
X151204836Y-111272419D02*
X151204836Y-110510514D01*
X139223884Y-97071466D02*
X139985789Y-97071466D01*
X139604836Y-97452419D02*
X139604836Y-96690514D01*
X147813884Y-103791466D02*
X148575789Y-103791466D01*
X148194836Y-104172419D02*
X148194836Y-103410514D01*
D12*
X115129021Y-115391657D02*
X115129021Y-112391657D01*
X115129021Y-112391657D02*
X115843307Y-112391657D01*
X115843307Y-112391657D02*
X116271878Y-112534514D01*
X116271878Y-112534514D02*
X116557593Y-112820228D01*
X116557593Y-112820228D02*
X116700450Y-113105942D01*
X116700450Y-113105942D02*
X116843307Y-113677371D01*
X116843307Y-113677371D02*
X116843307Y-114105942D01*
X116843307Y-114105942D02*
X116700450Y-114677371D01*
X116700450Y-114677371D02*
X116557593Y-114963085D01*
X116557593Y-114963085D02*
X116271878Y-115248800D01*
X116271878Y-115248800D02*
X115843307Y-115391657D01*
X115843307Y-115391657D02*
X115129021Y-115391657D01*
X117986164Y-114534514D02*
X119414736Y-114534514D01*
X117700450Y-115391657D02*
X118700450Y-112391657D01*
X118700450Y-112391657D02*
X119700450Y-115391657D01*
X120700450Y-115391657D02*
X120700450Y-112391657D01*
X120700450Y-112391657D02*
X121414736Y-112391657D01*
X121414736Y-112391657D02*
X121843307Y-112534514D01*
X121843307Y-112534514D02*
X122129022Y-112820228D01*
X122129022Y-112820228D02*
X122271879Y-113105942D01*
X122271879Y-113105942D02*
X122414736Y-113677371D01*
X122414736Y-113677371D02*
X122414736Y-114105942D01*
X122414736Y-114105942D02*
X122271879Y-114677371D01*
X122271879Y-114677371D02*
X122129022Y-114963085D01*
X122129022Y-114963085D02*
X121843307Y-115248800D01*
X121843307Y-115248800D02*
X121414736Y-115391657D01*
X121414736Y-115391657D02*
X120700450Y-115391657D01*
D11*
X160343884Y-95151466D02*
X161105789Y-95151466D01*
X160724836Y-95532419D02*
X160724836Y-94770514D01*
D10*
G36*
X118319249Y-120235155D02*
G01*
X118432986Y-120348892D01*
X118495319Y-120598220D01*
X118495319Y-121075135D01*
X118432986Y-121324462D01*
X118319250Y-121438200D01*
X118209794Y-121492928D01*
X117968344Y-121492928D01*
X117858886Y-121438199D01*
X117745150Y-121324463D01*
X117682819Y-121075136D01*
X117682819Y-120598219D01*
X117745150Y-120348892D01*
X117858889Y-120235155D01*
X117968344Y-120180428D01*
X118209795Y-120180428D01*
X118319249Y-120235155D01*
G37*
G36*
X130181284Y-120240047D02*
G01*
X130297734Y-120356497D01*
X130357756Y-120476542D01*
X130423890Y-120741075D01*
X130423890Y-120932280D01*
X130357756Y-121196813D01*
X130297734Y-121316857D01*
X130181284Y-121433309D01*
X130002427Y-121492928D01*
X129754247Y-121492928D01*
X129754247Y-120180428D01*
X130002427Y-120180428D01*
X130181284Y-120240047D01*
G37*
G36*
X132533535Y-120235155D02*
G01*
X132647272Y-120348892D01*
X132709605Y-120598220D01*
X132709605Y-121075135D01*
X132647272Y-121324462D01*
X132533536Y-121438200D01*
X132424080Y-121492928D01*
X132182630Y-121492928D01*
X132073172Y-121438199D01*
X131959436Y-121324463D01*
X131897105Y-121075136D01*
X131897105Y-120598219D01*
X131959436Y-120348892D01*
X132073175Y-120235155D01*
X132182630Y-120180428D01*
X132424081Y-120180428D01*
X132533535Y-120235155D01*
G37*
G36*
X141819248Y-120235155D02*
G01*
X141869163Y-120285069D01*
X141929185Y-120405113D01*
X141995319Y-120669648D01*
X141995319Y-121003707D01*
X141929185Y-121268242D01*
X141869161Y-121388289D01*
X141819251Y-121438199D01*
X141709794Y-121492928D01*
X141611201Y-121492928D01*
X141501743Y-121438199D01*
X141451831Y-121388287D01*
X141391809Y-121268243D01*
X141325676Y-121003708D01*
X141325676Y-120669647D01*
X141391809Y-120405112D01*
X141451830Y-120285070D01*
X141501746Y-120235155D01*
X141611201Y-120180428D01*
X141709795Y-120180428D01*
X141819248Y-120235155D01*
G37*
G36*
X124104962Y-120235155D02*
G01*
X124154877Y-120285069D01*
X124209604Y-120394523D01*
X124209604Y-120564546D01*
X124154875Y-120674003D01*
X124104965Y-120723913D01*
X123995508Y-120778642D01*
X123539961Y-120778642D01*
X123539961Y-120180428D01*
X123995509Y-120180428D01*
X124104962Y-120235155D01*
G37*
G36*
X122673284Y-121064357D02*
G01*
X122219140Y-121064357D01*
X122446211Y-120383141D01*
X122673284Y-121064357D01*
G37*
G36*
X127316141Y-121064357D02*
G01*
X126861997Y-121064357D01*
X127089068Y-120383141D01*
X127316141Y-121064357D01*
G37*
G36*
X142349486Y-121847095D02*
G01*
X117328652Y-121847095D01*
X117328652Y-120586678D01*
X117495319Y-120586678D01*
X117495319Y-121086678D01*
X117495632Y-121089865D01*
X117495429Y-121091235D01*
X117496442Y-121098087D01*
X117497120Y-121104968D01*
X117497649Y-121106245D01*
X117498118Y-121109416D01*
X117569546Y-121395129D01*
X117575729Y-121412437D01*
X117579878Y-121418037D01*
X117582546Y-121424477D01*
X117594206Y-121438683D01*
X117737064Y-121581541D01*
X117744252Y-121587441D01*
X117745875Y-121589312D01*
X117748693Y-121591086D01*
X117751270Y-121593201D01*
X117753559Y-121594149D01*
X117761429Y-121599103D01*
X117904286Y-121670531D01*
X117921451Y-121677099D01*
X117924809Y-121677337D01*
X117927922Y-121678627D01*
X117946212Y-121680428D01*
X118231926Y-121680428D01*
X118250216Y-121678627D01*
X118253328Y-121677337D01*
X118256688Y-121677099D01*
X118273852Y-121670531D01*
X118416709Y-121599103D01*
X118424578Y-121594149D01*
X118426868Y-121593201D01*
X118429444Y-121591086D01*
X118432263Y-121589312D01*
X118433885Y-121587440D01*
X118441074Y-121581541D01*
X118583931Y-121438683D01*
X118595591Y-121424477D01*
X118598258Y-121418037D01*
X118602408Y-121412437D01*
X118608591Y-121395130D01*
X118680020Y-121109416D01*
X118680489Y-121106245D01*
X118681018Y-121104968D01*
X118681695Y-121098089D01*
X118682709Y-121091236D01*
X118682505Y-121089865D01*
X118682819Y-121086678D01*
X118682819Y-120586678D01*
X118682505Y-120583490D01*
X118682709Y-120582120D01*
X118681695Y-120575266D01*
X118681018Y-120568388D01*
X118680489Y-120567110D01*
X118680020Y-120563940D01*
X118632133Y-120372392D01*
X119066748Y-120372392D01*
X119066748Y-120515250D01*
X119068549Y-120533540D01*
X119069838Y-120536652D01*
X119070077Y-120540012D01*
X119076645Y-120557176D01*
X119148073Y-120700033D01*
X119153029Y-120707906D01*
X119153976Y-120710192D01*
X119156087Y-120712765D01*
X119157864Y-120715587D01*
X119159735Y-120717210D01*
X119165635Y-120724399D01*
X119237064Y-120795827D01*
X119244252Y-120801726D01*
X119245875Y-120803597D01*
X119248695Y-120805372D01*
X119251271Y-120807486D01*
X119253558Y-120808433D01*
X119261428Y-120813387D01*
X119404285Y-120884816D01*
X119405620Y-120885327D01*
X119406167Y-120885732D01*
X119413861Y-120888480D01*
X119421450Y-120891385D01*
X119422124Y-120891432D01*
X119423474Y-120891915D01*
X119699204Y-120960847D01*
X119819249Y-121020869D01*
X119869163Y-121070784D01*
X119923891Y-121180239D01*
X119923891Y-121278832D01*
X119869163Y-121388286D01*
X119819248Y-121438201D01*
X119709794Y-121492928D01*
X119389997Y-121492928D01*
X119190144Y-121426311D01*
X119172223Y-121422236D01*
X119135736Y-121424829D01*
X119103019Y-121441188D01*
X119079051Y-121468822D01*
X119067484Y-121503525D01*
X119070077Y-121540012D01*
X119086436Y-121572729D01*
X119114070Y-121596697D01*
X119130852Y-121604189D01*
X119345138Y-121675617D01*
X119354204Y-121677678D01*
X119356494Y-121678627D01*
X119359812Y-121678953D01*
X119363059Y-121679692D01*
X119365527Y-121679516D01*
X119374784Y-121680428D01*
X119731926Y-121680428D01*
X119750216Y-121678627D01*
X119753328Y-121677337D01*
X119756687Y-121677099D01*
X119773852Y-121670531D01*
X119916710Y-121599103D01*
X119924583Y-121594146D01*
X119926869Y-121593200D01*
X119929442Y-121591088D01*
X119932264Y-121589312D01*
X119933887Y-121587440D01*
X119941076Y-121581541D01*
X120012504Y-121510112D01*
X120018403Y-121502923D01*
X120020274Y-121501301D01*
X120022049Y-121498480D01*
X120024163Y-121495905D01*
X120025110Y-121493617D01*
X120030064Y-121485748D01*
X120101493Y-121342891D01*
X120108062Y-121325726D01*
X120108300Y-121322366D01*
X120109590Y-121319254D01*
X120111391Y-121300964D01*
X120111391Y-121158107D01*
X120109590Y-121139817D01*
X120108300Y-121136704D01*
X120108062Y-121133345D01*
X120101493Y-121116180D01*
X120030064Y-120973323D01*
X120025110Y-120965453D01*
X120024163Y-120963166D01*
X120022049Y-120960590D01*
X120020274Y-120957770D01*
X120018403Y-120956147D01*
X120012504Y-120948959D01*
X119941076Y-120877530D01*
X119933886Y-120871630D01*
X119932264Y-120869759D01*
X119929442Y-120867982D01*
X119926869Y-120865871D01*
X119924583Y-120864924D01*
X119916710Y-120859968D01*
X119773852Y-120788539D01*
X119772515Y-120788027D01*
X119771971Y-120787624D01*
X119764293Y-120784881D01*
X119756688Y-120781971D01*
X119756012Y-120781922D01*
X119754663Y-120781441D01*
X119547041Y-120729535D01*
X120495319Y-120729535D01*
X120495319Y-120943821D01*
X120495632Y-120947008D01*
X120495429Y-120948378D01*
X120496442Y-120955230D01*
X120497120Y-120962111D01*
X120497649Y-120963388D01*
X120498118Y-120966559D01*
X120569546Y-121252272D01*
X120570027Y-121253621D01*
X120570076Y-121254297D01*
X120572982Y-121261892D01*
X120575729Y-121269580D01*
X120576133Y-121270126D01*
X120576645Y-121271462D01*
X120648073Y-121414318D01*
X120653026Y-121422187D01*
X120653975Y-121424477D01*
X120656089Y-121427053D01*
X120657864Y-121429872D01*
X120659734Y-121431494D01*
X120665635Y-121438683D01*
X120808491Y-121581541D01*
X120822698Y-121593201D01*
X120825810Y-121594490D01*
X120828355Y-121596697D01*
X120845137Y-121604189D01*
X121059423Y-121675617D01*
X121068489Y-121677678D01*
X121070779Y-121678627D01*
X121074097Y-121678953D01*
X121077344Y-121679692D01*
X121079812Y-121679516D01*
X121089069Y-121680428D01*
X121231926Y-121680428D01*
X121241182Y-121679516D01*
X121243651Y-121679692D01*
X121246897Y-121678953D01*
X121250216Y-121678627D01*
X121252505Y-121677678D01*
X121261572Y-121675617D01*
X121475858Y-121604189D01*
X121492640Y-121596697D01*
X121495186Y-121594488D01*
X121498297Y-121593200D01*
X121512504Y-121581541D01*
X121519092Y-121574953D01*
X121853198Y-121574953D01*
X121855791Y-121611440D01*
X121872150Y-121644157D01*
X121899784Y-121668125D01*
X121934487Y-121679692D01*
X121970974Y-121677099D01*
X122003691Y-121660740D01*
X122027659Y-121633106D01*
X122035151Y-121616324D01*
X122156640Y-121251857D01*
X122735784Y-121251857D01*
X122857273Y-121616325D01*
X122864765Y-121633106D01*
X122888733Y-121660740D01*
X122921450Y-121677099D01*
X122957937Y-121679692D01*
X122992640Y-121668125D01*
X123020274Y-121644157D01*
X123036633Y-121611440D01*
X123039226Y-121574953D01*
X123035151Y-121557032D01*
X122545033Y-120086678D01*
X123352461Y-120086678D01*
X123352461Y-121586678D01*
X123354262Y-121604968D01*
X123368261Y-121638763D01*
X123394126Y-121664628D01*
X123427921Y-121678627D01*
X123464501Y-121678627D01*
X123498296Y-121664628D01*
X123524161Y-121638763D01*
X123538160Y-121604968D01*
X123539961Y-121586678D01*
X123539961Y-120966142D01*
X123754543Y-120966142D01*
X124226551Y-121640440D01*
X124238515Y-121654391D01*
X124269364Y-121674049D01*
X124305386Y-121680406D01*
X124341099Y-121672494D01*
X124371067Y-121651517D01*
X124390725Y-121620668D01*
X124397082Y-121584646D01*
X124394935Y-121574953D01*
X126496055Y-121574953D01*
X126498648Y-121611440D01*
X126515007Y-121644157D01*
X126542641Y-121668125D01*
X126577344Y-121679692D01*
X126613831Y-121677099D01*
X126646548Y-121660740D01*
X126670516Y-121633106D01*
X126678008Y-121616324D01*
X126799497Y-121251857D01*
X127378641Y-121251857D01*
X127500130Y-121616325D01*
X127507622Y-121633106D01*
X127531590Y-121660740D01*
X127564307Y-121677099D01*
X127600794Y-121679692D01*
X127635497Y-121668125D01*
X127663131Y-121644157D01*
X127679490Y-121611440D01*
X127682083Y-121574953D01*
X127678008Y-121557032D01*
X127187890Y-120086678D01*
X127995318Y-120086678D01*
X127995318Y-121300964D01*
X127997119Y-121319254D01*
X127998408Y-121322366D01*
X127998647Y-121325726D01*
X128005216Y-121342891D01*
X128076644Y-121485747D01*
X128081597Y-121493616D01*
X128082546Y-121495906D01*
X128084660Y-121498482D01*
X128086435Y-121501301D01*
X128088305Y-121502923D01*
X128094206Y-121510112D01*
X128165635Y-121581541D01*
X128172823Y-121587441D01*
X128174446Y-121589312D01*
X128177264Y-121591086D01*
X128179841Y-121593201D01*
X128182130Y-121594149D01*
X128190000Y-121599103D01*
X128332857Y-121670531D01*
X128350022Y-121677099D01*
X128353380Y-121677337D01*
X128356493Y-121678627D01*
X128374783Y-121680428D01*
X128660497Y-121680428D01*
X128678787Y-121678627D01*
X128681899Y-121677337D01*
X128685259Y-121677099D01*
X128702423Y-121670531D01*
X128845280Y-121599103D01*
X128853149Y-121594149D01*
X128855439Y-121593201D01*
X128858015Y-121591086D01*
X128860834Y-121589312D01*
X128862456Y-121587440D01*
X128869645Y-121581541D01*
X128941074Y-121510112D01*
X128946974Y-121502923D01*
X128948845Y-121501301D01*
X128950619Y-121498482D01*
X128952734Y-121495906D01*
X128953682Y-121493616D01*
X128958636Y-121485747D01*
X129030064Y-121342890D01*
X129036632Y-121325725D01*
X129036870Y-121322366D01*
X129038160Y-121319254D01*
X129039961Y-121300964D01*
X129039961Y-120086678D01*
X129566747Y-120086678D01*
X129566747Y-121586678D01*
X129568548Y-121604967D01*
X129568548Y-121604968D01*
X129582547Y-121638763D01*
X129608412Y-121664628D01*
X129642207Y-121678627D01*
X129660497Y-121680428D01*
X130017640Y-121680428D01*
X130026896Y-121679516D01*
X130029365Y-121679692D01*
X130032611Y-121678953D01*
X130035930Y-121678627D01*
X130038219Y-121677678D01*
X130047286Y-121675617D01*
X130261572Y-121604189D01*
X130278354Y-121596697D01*
X130280898Y-121594490D01*
X130284011Y-121593201D01*
X130298217Y-121581541D01*
X130441074Y-121438683D01*
X130446974Y-121431494D01*
X130448845Y-121429872D01*
X130450618Y-121427054D01*
X130452734Y-121424477D01*
X130453682Y-121422186D01*
X130458635Y-121414319D01*
X130530064Y-121271462D01*
X130530575Y-121270126D01*
X130530980Y-121269580D01*
X130533728Y-121261885D01*
X130536633Y-121254297D01*
X130536680Y-121253622D01*
X130537163Y-121252273D01*
X130608591Y-120966559D01*
X130609059Y-120963388D01*
X130609589Y-120962111D01*
X130610266Y-120955230D01*
X130611280Y-120948378D01*
X130611076Y-120947008D01*
X130611390Y-120943821D01*
X130611390Y-120729535D01*
X130611076Y-120726347D01*
X130611280Y-120724978D01*
X130610266Y-120718125D01*
X130609589Y-120711245D01*
X130609059Y-120709967D01*
X130608591Y-120706797D01*
X130537163Y-120421083D01*
X130536680Y-120419733D01*
X130536633Y-120419059D01*
X130533728Y-120411470D01*
X130530980Y-120403776D01*
X130530575Y-120403229D01*
X130530064Y-120401894D01*
X130458635Y-120259037D01*
X130453682Y-120251169D01*
X130452734Y-120248879D01*
X130450618Y-120246301D01*
X130448845Y-120243484D01*
X130446974Y-120241861D01*
X130441074Y-120234673D01*
X130298217Y-120091816D01*
X130291957Y-120086678D01*
X131066747Y-120086678D01*
X131066747Y-121586678D01*
X131068548Y-121604968D01*
X131082547Y-121638763D01*
X131108412Y-121664628D01*
X131142207Y-121678627D01*
X131178787Y-121678627D01*
X131212582Y-121664628D01*
X131238447Y-121638763D01*
X131252446Y-121604968D01*
X131254247Y-121586678D01*
X131254247Y-120586678D01*
X131709605Y-120586678D01*
X131709605Y-121086678D01*
X131709918Y-121089865D01*
X131709715Y-121091235D01*
X131710728Y-121098087D01*
X131711406Y-121104968D01*
X131711935Y-121106245D01*
X131712404Y-121109416D01*
X131783832Y-121395129D01*
X131790015Y-121412437D01*
X131794164Y-121418037D01*
X131796832Y-121424477D01*
X131808492Y-121438683D01*
X131951350Y-121581541D01*
X131958538Y-121587441D01*
X131960161Y-121589312D01*
X131962979Y-121591086D01*
X131965556Y-121593201D01*
X131967845Y-121594149D01*
X131975715Y-121599103D01*
X132118572Y-121670531D01*
X132135737Y-121677099D01*
X132139095Y-121677337D01*
X132142208Y-121678627D01*
X132160498Y-121680428D01*
X132446212Y-121680428D01*
X132464502Y-121678627D01*
X132467614Y-121677337D01*
X132470974Y-121677099D01*
X132488138Y-121670531D01*
X132630995Y-121599103D01*
X132638864Y-121594149D01*
X132641154Y-121593201D01*
X132643730Y-121591086D01*
X132646549Y-121589312D01*
X132648171Y-121587440D01*
X132655360Y-121581541D01*
X132798217Y-121438683D01*
X132809877Y-121424477D01*
X132812544Y-121418037D01*
X132816694Y-121412437D01*
X132822877Y-121395130D01*
X132894306Y-121109416D01*
X132894775Y-121106245D01*
X132895304Y-121104968D01*
X132895981Y-121098089D01*
X132896995Y-121091236D01*
X132896791Y-121089865D01*
X132897105Y-121086678D01*
X132897105Y-120996960D01*
X133354263Y-120996960D01*
X133354263Y-121033540D01*
X133368262Y-121067335D01*
X133394127Y-121093200D01*
X133427922Y-121107199D01*
X133446212Y-121109000D01*
X134589070Y-121109000D01*
X134607360Y-121107199D01*
X134641155Y-121093200D01*
X134667020Y-121067335D01*
X134681019Y-121033540D01*
X134681019Y-120996960D01*
X134667020Y-120963165D01*
X134641155Y-120937300D01*
X134607360Y-120923301D01*
X134589070Y-120921500D01*
X133446212Y-120921500D01*
X133427922Y-120923301D01*
X133394127Y-120937300D01*
X133368262Y-120963165D01*
X133354263Y-120996960D01*
X132897105Y-120996960D01*
X132897105Y-120586678D01*
X132896791Y-120583490D01*
X132896995Y-120582120D01*
X132895981Y-120575266D01*
X132895304Y-120568388D01*
X132894775Y-120567110D01*
X132894306Y-120563940D01*
X132879202Y-120503524D01*
X135138913Y-120503524D01*
X135141506Y-120540012D01*
X135157865Y-120572730D01*
X135185500Y-120596697D01*
X135220201Y-120608264D01*
X135256689Y-120605671D01*
X135273854Y-120599102D01*
X135416710Y-120527674D01*
X135424579Y-120522720D01*
X135426869Y-120521772D01*
X135429445Y-120519657D01*
X135432264Y-120517883D01*
X135433886Y-120516012D01*
X135441075Y-120510112D01*
X135566748Y-120384439D01*
X135566748Y-121492928D01*
X135231927Y-121492928D01*
X135213637Y-121494729D01*
X135179842Y-121508728D01*
X135153977Y-121534593D01*
X135139978Y-121568388D01*
X135139978Y-121604968D01*
X135153977Y-121638763D01*
X135179842Y-121664628D01*
X135213637Y-121678627D01*
X135231927Y-121680428D01*
X136089070Y-121680428D01*
X136107360Y-121678627D01*
X136141155Y-121664628D01*
X136167020Y-121638763D01*
X136181019Y-121604968D01*
X136181019Y-121568388D01*
X136167020Y-121534593D01*
X136141155Y-121508728D01*
X136107360Y-121494729D01*
X136089070Y-121492928D01*
X135754248Y-121492928D01*
X135754248Y-120098403D01*
X137567484Y-120098403D01*
X137571559Y-120116324D01*
X138071559Y-121616325D01*
X138079051Y-121633106D01*
X138083441Y-121638167D01*
X138086436Y-121644157D01*
X138095316Y-121651859D01*
X138103019Y-121660740D01*
X138109008Y-121663734D01*
X138114070Y-121668125D01*
X138125223Y-121671842D01*
X138135736Y-121677099D01*
X138142418Y-121677573D01*
X138148773Y-121679692D01*
X138160498Y-121678858D01*
X138172223Y-121679692D01*
X138178577Y-121677573D01*
X138185260Y-121677099D01*
X138195772Y-121671842D01*
X138206926Y-121668125D01*
X138211987Y-121663734D01*
X138217977Y-121660740D01*
X138225679Y-121651859D01*
X138234560Y-121644157D01*
X138237554Y-121638167D01*
X138241945Y-121633106D01*
X138249437Y-121616324D01*
X138620370Y-120503524D01*
X138996055Y-120503524D01*
X138998648Y-120540012D01*
X139015007Y-120572730D01*
X139042642Y-120596697D01*
X139077343Y-120608264D01*
X139113831Y-120605671D01*
X139130996Y-120599102D01*
X139273852Y-120527674D01*
X139281721Y-120522720D01*
X139284011Y-120521772D01*
X139286587Y-120519657D01*
X139289406Y-120517883D01*
X139291028Y-120516012D01*
X139298217Y-120510112D01*
X139423890Y-120384439D01*
X139423890Y-121492928D01*
X139089069Y-121492928D01*
X139070779Y-121494729D01*
X139036984Y-121508728D01*
X139011119Y-121534593D01*
X138997120Y-121568388D01*
X138997120Y-121604968D01*
X139011119Y-121638763D01*
X139036984Y-121664628D01*
X139070779Y-121678627D01*
X139089069Y-121680428D01*
X139946212Y-121680428D01*
X139964502Y-121678627D01*
X139998297Y-121664628D01*
X140024162Y-121638763D01*
X140038161Y-121604968D01*
X140038161Y-121568388D01*
X140024162Y-121534593D01*
X139998297Y-121508728D01*
X139969890Y-121496961D01*
X140425691Y-121496961D01*
X140425691Y-121533540D01*
X140427056Y-121536835D01*
X140439689Y-121567335D01*
X140451349Y-121581541D01*
X140522776Y-121652969D01*
X140536983Y-121664628D01*
X140570778Y-121678627D01*
X140607358Y-121678627D01*
X140626903Y-121670531D01*
X140641152Y-121664629D01*
X140655359Y-121652970D01*
X140726788Y-121581542D01*
X140738442Y-121567340D01*
X140738448Y-121567335D01*
X140752446Y-121533539D01*
X140752446Y-121496961D01*
X140738448Y-121463165D01*
X140726788Y-121448959D01*
X140655359Y-121377530D01*
X140641153Y-121365870D01*
X140617255Y-121355972D01*
X140607358Y-121351872D01*
X140570778Y-121351872D01*
X140560880Y-121355972D01*
X140536983Y-121365870D01*
X140536977Y-121365875D01*
X140522776Y-121377530D01*
X140451348Y-121448959D01*
X140439693Y-121463160D01*
X140439689Y-121463165D01*
X140426128Y-121495905D01*
X140425691Y-121496961D01*
X139969890Y-121496961D01*
X139964502Y-121494729D01*
X139946212Y-121492928D01*
X139611390Y-121492928D01*
X139611390Y-120658107D01*
X141138176Y-120658107D01*
X141138176Y-121015250D01*
X141138489Y-121018437D01*
X141138286Y-121019807D01*
X141139299Y-121026659D01*
X141139977Y-121033540D01*
X141140506Y-121034817D01*
X141140975Y-121037988D01*
X141212403Y-121323701D01*
X141212884Y-121325050D01*
X141212933Y-121325726D01*
X141215839Y-121333321D01*
X141218586Y-121341009D01*
X141218990Y-121341555D01*
X141219502Y-121342891D01*
X141290930Y-121485747D01*
X141295883Y-121493616D01*
X141296832Y-121495906D01*
X141298946Y-121498482D01*
X141300721Y-121501301D01*
X141302591Y-121502923D01*
X141308492Y-121510112D01*
X141379921Y-121581541D01*
X141387109Y-121587441D01*
X141388732Y-121589312D01*
X141391550Y-121591086D01*
X141394127Y-121593201D01*
X141396416Y-121594149D01*
X141404286Y-121599103D01*
X141547143Y-121670531D01*
X141564308Y-121677099D01*
X141567666Y-121677337D01*
X141570779Y-121678627D01*
X141589069Y-121680428D01*
X141731926Y-121680428D01*
X141750216Y-121678627D01*
X141753328Y-121677337D01*
X141756688Y-121677099D01*
X141773852Y-121670531D01*
X141916709Y-121599103D01*
X141924578Y-121594149D01*
X141926868Y-121593201D01*
X141929444Y-121591086D01*
X141932263Y-121589312D01*
X141933885Y-121587440D01*
X141941074Y-121581541D01*
X142012503Y-121510112D01*
X142018403Y-121502923D01*
X142020274Y-121501301D01*
X142022048Y-121498482D01*
X142024163Y-121495906D01*
X142025111Y-121493616D01*
X142030065Y-121485747D01*
X142101493Y-121342890D01*
X142102004Y-121341553D01*
X142102408Y-121341009D01*
X142105155Y-121333317D01*
X142108061Y-121325725D01*
X142108108Y-121325051D01*
X142108591Y-121323702D01*
X142180020Y-121037988D01*
X142180489Y-121034817D01*
X142181018Y-121033540D01*
X142181695Y-121026661D01*
X142182709Y-121019808D01*
X142182505Y-121018437D01*
X142182819Y-121015250D01*
X142182819Y-120658107D01*
X142182505Y-120654919D01*
X142182709Y-120653550D01*
X142181695Y-120646697D01*
X142181018Y-120639817D01*
X142180488Y-120638539D01*
X142180020Y-120635369D01*
X142108591Y-120349654D01*
X142108108Y-120348304D01*
X142108061Y-120347631D01*
X142105155Y-120340038D01*
X142102408Y-120332347D01*
X142102004Y-120331802D01*
X142101493Y-120330466D01*
X142030065Y-120187609D01*
X142025108Y-120179735D01*
X142024162Y-120177450D01*
X142022050Y-120174876D01*
X142020274Y-120172055D01*
X142018402Y-120170432D01*
X142012503Y-120163243D01*
X141941074Y-120091815D01*
X141933885Y-120085915D01*
X141932263Y-120084045D01*
X141929442Y-120082269D01*
X141926867Y-120080156D01*
X141924580Y-120079208D01*
X141916709Y-120074254D01*
X141773853Y-120002826D01*
X141756688Y-119996257D01*
X141753328Y-119996018D01*
X141750216Y-119994729D01*
X141731926Y-119992928D01*
X141589069Y-119992928D01*
X141570779Y-119994729D01*
X141567666Y-119996018D01*
X141564307Y-119996257D01*
X141547142Y-120002826D01*
X141404285Y-120074255D01*
X141396415Y-120079208D01*
X141394128Y-120080156D01*
X141391552Y-120082269D01*
X141388732Y-120084045D01*
X141387109Y-120085915D01*
X141379921Y-120091815D01*
X141308492Y-120163243D01*
X141302592Y-120170432D01*
X141300721Y-120172055D01*
X141298944Y-120174876D01*
X141296833Y-120177450D01*
X141295886Y-120179735D01*
X141290930Y-120187609D01*
X141219502Y-120330465D01*
X141218990Y-120331800D01*
X141218586Y-120332347D01*
X141215839Y-120340034D01*
X141212933Y-120347630D01*
X141212884Y-120348305D01*
X141212403Y-120349655D01*
X141140975Y-120635370D01*
X141140506Y-120638539D01*
X141139977Y-120639817D01*
X141139299Y-120646698D01*
X141138286Y-120653550D01*
X141138489Y-120654919D01*
X141138176Y-120658107D01*
X139611390Y-120658107D01*
X139611390Y-120086678D01*
X139611383Y-120086611D01*
X139611390Y-120086579D01*
X139611370Y-120086482D01*
X139609589Y-120068388D01*
X139606036Y-120059810D01*
X139604216Y-120050711D01*
X139599104Y-120043078D01*
X139595590Y-120034593D01*
X139589029Y-120028032D01*
X139583863Y-120020317D01*
X139576216Y-120015219D01*
X139569725Y-120008728D01*
X139561152Y-120005177D01*
X139553426Y-120000026D01*
X139544414Y-119998243D01*
X139535930Y-119994729D01*
X139526647Y-119994729D01*
X139517542Y-119992928D01*
X139508536Y-119994729D01*
X139499350Y-119994729D01*
X139490776Y-119998280D01*
X139481673Y-120000101D01*
X139474037Y-120005214D01*
X139465555Y-120008728D01*
X139458995Y-120015287D01*
X139451279Y-120020455D01*
X139439757Y-120034525D01*
X139439690Y-120034593D01*
X139439677Y-120034623D01*
X139439635Y-120034675D01*
X139301925Y-120241239D01*
X139176392Y-120366772D01*
X139047142Y-120431398D01*
X139031589Y-120441188D01*
X139007622Y-120468823D01*
X138996055Y-120503524D01*
X138620370Y-120503524D01*
X138749437Y-120116324D01*
X138753512Y-120098403D01*
X138750919Y-120061916D01*
X138734560Y-120029199D01*
X138706926Y-120005231D01*
X138672223Y-119993664D01*
X138635736Y-119996257D01*
X138603019Y-120012616D01*
X138579051Y-120040250D01*
X138571559Y-120057031D01*
X138160497Y-121290214D01*
X137749437Y-120057032D01*
X137741945Y-120040250D01*
X137717977Y-120012616D01*
X137685260Y-119996257D01*
X137648773Y-119993664D01*
X137614070Y-120005231D01*
X137586436Y-120029199D01*
X137570077Y-120061916D01*
X137567484Y-120098403D01*
X135754248Y-120098403D01*
X135754248Y-120086678D01*
X135754241Y-120086611D01*
X135754248Y-120086579D01*
X135754228Y-120086482D01*
X135752447Y-120068388D01*
X135748894Y-120059810D01*
X135747074Y-120050711D01*
X135741962Y-120043078D01*
X135738448Y-120034593D01*
X135731887Y-120028032D01*
X135726721Y-120020317D01*
X135719074Y-120015219D01*
X135712583Y-120008728D01*
X135704010Y-120005177D01*
X135696284Y-120000026D01*
X135687272Y-119998243D01*
X135678788Y-119994729D01*
X135669505Y-119994729D01*
X135660400Y-119992928D01*
X135651394Y-119994729D01*
X135642208Y-119994729D01*
X135633634Y-119998280D01*
X135624531Y-120000101D01*
X135616895Y-120005214D01*
X135608413Y-120008728D01*
X135601853Y-120015287D01*
X135594137Y-120020455D01*
X135582615Y-120034525D01*
X135582548Y-120034593D01*
X135582535Y-120034623D01*
X135582493Y-120034675D01*
X135444783Y-120241239D01*
X135319250Y-120366772D01*
X135190000Y-120431398D01*
X135174447Y-120441188D01*
X135150480Y-120468823D01*
X135138913Y-120503524D01*
X132879202Y-120503524D01*
X132822877Y-120278226D01*
X132816694Y-120260919D01*
X132812543Y-120255318D01*
X132809877Y-120248879D01*
X132798217Y-120234673D01*
X132655360Y-120091816D01*
X132648171Y-120085915D01*
X132646549Y-120084045D01*
X132643730Y-120082270D01*
X132641154Y-120080156D01*
X132638864Y-120079207D01*
X132630995Y-120074254D01*
X132488139Y-120002826D01*
X132470974Y-119996257D01*
X132467614Y-119996018D01*
X132464502Y-119994729D01*
X132446212Y-119992928D01*
X132160498Y-119992928D01*
X132142208Y-119994729D01*
X132139095Y-119996018D01*
X132135736Y-119996257D01*
X132118571Y-120002826D01*
X131975714Y-120074255D01*
X131967846Y-120079207D01*
X131965556Y-120080156D01*
X131962978Y-120082271D01*
X131960161Y-120084045D01*
X131958538Y-120085915D01*
X131951350Y-120091816D01*
X131808492Y-120234673D01*
X131796832Y-120248879D01*
X131794164Y-120255319D01*
X131790015Y-120260919D01*
X131783832Y-120278227D01*
X131712404Y-120563940D01*
X131711935Y-120567110D01*
X131711406Y-120568388D01*
X131710728Y-120575268D01*
X131709715Y-120582121D01*
X131709918Y-120583490D01*
X131709605Y-120586678D01*
X131254247Y-120586678D01*
X131254247Y-120086678D01*
X131252446Y-120068388D01*
X131238447Y-120034593D01*
X131212582Y-120008728D01*
X131178787Y-119994729D01*
X131142207Y-119994729D01*
X131108412Y-120008728D01*
X131082547Y-120034593D01*
X131068548Y-120068388D01*
X131066747Y-120086678D01*
X130291957Y-120086678D01*
X130284011Y-120080156D01*
X130280898Y-120078866D01*
X130278354Y-120076660D01*
X130261572Y-120069168D01*
X130047286Y-119997739D01*
X130038218Y-119995677D01*
X130035930Y-119994729D01*
X130032613Y-119994402D01*
X130029366Y-119993664D01*
X130026896Y-119993839D01*
X130017640Y-119992928D01*
X129660497Y-119992928D01*
X129642207Y-119994729D01*
X129608412Y-120008728D01*
X129582547Y-120034593D01*
X129568548Y-120068388D01*
X129566747Y-120086678D01*
X129039961Y-120086678D01*
X129038160Y-120068388D01*
X129024161Y-120034593D01*
X128998296Y-120008728D01*
X128964501Y-119994729D01*
X128927921Y-119994729D01*
X128894126Y-120008728D01*
X128868261Y-120034593D01*
X128854262Y-120068388D01*
X128852461Y-120086678D01*
X128852461Y-121278832D01*
X128797732Y-121388289D01*
X128747822Y-121438199D01*
X128638365Y-121492928D01*
X128396915Y-121492928D01*
X128287457Y-121438199D01*
X128237545Y-121388287D01*
X128182818Y-121278832D01*
X128182818Y-120086678D01*
X128181017Y-120068388D01*
X128167018Y-120034593D01*
X128141153Y-120008728D01*
X128107358Y-119994729D01*
X128070778Y-119994729D01*
X128036983Y-120008728D01*
X128011118Y-120034593D01*
X127997119Y-120068388D01*
X127995318Y-120086678D01*
X127187890Y-120086678D01*
X127178008Y-120057032D01*
X127170516Y-120040250D01*
X127166125Y-120035188D01*
X127163131Y-120029199D01*
X127154250Y-120021496D01*
X127146548Y-120012616D01*
X127140558Y-120009621D01*
X127135497Y-120005231D01*
X127124343Y-120001513D01*
X127113831Y-119996257D01*
X127107148Y-119995782D01*
X127100794Y-119993664D01*
X127089069Y-119994497D01*
X127077344Y-119993664D01*
X127070989Y-119995782D01*
X127064307Y-119996257D01*
X127053794Y-120001513D01*
X127042641Y-120005231D01*
X127037579Y-120009621D01*
X127031590Y-120012616D01*
X127023887Y-120021496D01*
X127015007Y-120029199D01*
X127012012Y-120035188D01*
X127007622Y-120040250D01*
X127000130Y-120057031D01*
X126500130Y-121557032D01*
X126496055Y-121574953D01*
X124394935Y-121574953D01*
X124389170Y-121548932D01*
X124380157Y-121532916D01*
X124004988Y-120996960D01*
X124854262Y-120996960D01*
X124854262Y-121033540D01*
X124868261Y-121067335D01*
X124894126Y-121093200D01*
X124927921Y-121107199D01*
X124946211Y-121109000D01*
X126089069Y-121109000D01*
X126107359Y-121107199D01*
X126141154Y-121093200D01*
X126167019Y-121067335D01*
X126181018Y-121033540D01*
X126181018Y-120996960D01*
X126167019Y-120963165D01*
X126141154Y-120937300D01*
X126107359Y-120923301D01*
X126089069Y-120921500D01*
X124946211Y-120921500D01*
X124927921Y-120923301D01*
X124894126Y-120937300D01*
X124868261Y-120963165D01*
X124854262Y-120996960D01*
X124004988Y-120996960D01*
X123983415Y-120966142D01*
X124017640Y-120966142D01*
X124035930Y-120964341D01*
X124039042Y-120963051D01*
X124042402Y-120962813D01*
X124059566Y-120956245D01*
X124202423Y-120884817D01*
X124210292Y-120879863D01*
X124212582Y-120878915D01*
X124215158Y-120876800D01*
X124217977Y-120875026D01*
X124219599Y-120873154D01*
X124226788Y-120867255D01*
X124298217Y-120795826D01*
X124304117Y-120788637D01*
X124305988Y-120787015D01*
X124307762Y-120784196D01*
X124309877Y-120781620D01*
X124310825Y-120779330D01*
X124315779Y-120771461D01*
X124387207Y-120628604D01*
X124393775Y-120611439D01*
X124394013Y-120608080D01*
X124395303Y-120604968D01*
X124397104Y-120586678D01*
X124397104Y-120372392D01*
X124395303Y-120354102D01*
X124394013Y-120350989D01*
X124393775Y-120347631D01*
X124387207Y-120330466D01*
X124315779Y-120187609D01*
X124310822Y-120179735D01*
X124309876Y-120177450D01*
X124307764Y-120174876D01*
X124305988Y-120172055D01*
X124304116Y-120170432D01*
X124298217Y-120163243D01*
X124226788Y-120091815D01*
X124219599Y-120085915D01*
X124217977Y-120084045D01*
X124215156Y-120082269D01*
X124212581Y-120080156D01*
X124210294Y-120079208D01*
X124202423Y-120074254D01*
X124059567Y-120002826D01*
X124042402Y-119996257D01*
X124039042Y-119996018D01*
X124035930Y-119994729D01*
X124017640Y-119992928D01*
X123446211Y-119992928D01*
X123427921Y-119994729D01*
X123394126Y-120008728D01*
X123368261Y-120034593D01*
X123354262Y-120068388D01*
X123352461Y-120086678D01*
X122545033Y-120086678D01*
X122535151Y-120057032D01*
X122527659Y-120040250D01*
X122523268Y-120035188D01*
X122520274Y-120029199D01*
X122511393Y-120021496D01*
X122503691Y-120012616D01*
X122497701Y-120009621D01*
X122492640Y-120005231D01*
X122481486Y-120001513D01*
X122470974Y-119996257D01*
X122464291Y-119995782D01*
X122457937Y-119993664D01*
X122446212Y-119994497D01*
X122434487Y-119993664D01*
X122428132Y-119995782D01*
X122421450Y-119996257D01*
X122410937Y-120001513D01*
X122399784Y-120005231D01*
X122394722Y-120009621D01*
X122388733Y-120012616D01*
X122381030Y-120021496D01*
X122372150Y-120029199D01*
X122369155Y-120035188D01*
X122364765Y-120040250D01*
X122357273Y-120057031D01*
X121857273Y-121557032D01*
X121853198Y-121574953D01*
X121519092Y-121574953D01*
X121583932Y-121510112D01*
X121595591Y-121495905D01*
X121609589Y-121462110D01*
X121609588Y-121425531D01*
X121595590Y-121391736D01*
X121569724Y-121365870D01*
X121535929Y-121351872D01*
X121499350Y-121351873D01*
X121465555Y-121365871D01*
X121451348Y-121377530D01*
X121395568Y-121433310D01*
X121216713Y-121492928D01*
X121104282Y-121492928D01*
X120925424Y-121433309D01*
X120808974Y-121316859D01*
X120748952Y-121196814D01*
X120682819Y-120932279D01*
X120682819Y-120741076D01*
X120748952Y-120476541D01*
X120808974Y-120356497D01*
X120925424Y-120240047D01*
X121104282Y-120180428D01*
X121216713Y-120180428D01*
X121395570Y-120240047D01*
X121451348Y-120295826D01*
X121465555Y-120307485D01*
X121499350Y-120321483D01*
X121535929Y-120321483D01*
X121569724Y-120307485D01*
X121595590Y-120281619D01*
X121609588Y-120247824D01*
X121609588Y-120211245D01*
X121595590Y-120177450D01*
X121583931Y-120163243D01*
X121512503Y-120091816D01*
X121498297Y-120080156D01*
X121495184Y-120078866D01*
X121492640Y-120076660D01*
X121475858Y-120069168D01*
X121261572Y-119997739D01*
X121252504Y-119995677D01*
X121250216Y-119994729D01*
X121246899Y-119994402D01*
X121243652Y-119993664D01*
X121241182Y-119993839D01*
X121231926Y-119992928D01*
X121089069Y-119992928D01*
X121079812Y-119993839D01*
X121077343Y-119993664D01*
X121074095Y-119994402D01*
X121070779Y-119994729D01*
X121068490Y-119995676D01*
X121059422Y-119997739D01*
X120845137Y-120069168D01*
X120828355Y-120076660D01*
X120825810Y-120078866D01*
X120822698Y-120080156D01*
X120808492Y-120091816D01*
X120665635Y-120234673D01*
X120659734Y-120241861D01*
X120657864Y-120243484D01*
X120656089Y-120246302D01*
X120653975Y-120248879D01*
X120653026Y-120251168D01*
X120648073Y-120259038D01*
X120576645Y-120401894D01*
X120576133Y-120403229D01*
X120575729Y-120403776D01*
X120572982Y-120411463D01*
X120570076Y-120419059D01*
X120570027Y-120419734D01*
X120569546Y-120421084D01*
X120498118Y-120706797D01*
X120497649Y-120709967D01*
X120497120Y-120711245D01*
X120496442Y-120718125D01*
X120495429Y-120724978D01*
X120495632Y-120726347D01*
X120495319Y-120729535D01*
X119547041Y-120729535D01*
X119478933Y-120712508D01*
X119358889Y-120652486D01*
X119308974Y-120602572D01*
X119254248Y-120493118D01*
X119254248Y-120394523D01*
X119308974Y-120285069D01*
X119358889Y-120235155D01*
X119468344Y-120180428D01*
X119788142Y-120180428D01*
X119987994Y-120247046D01*
X120005915Y-120251121D01*
X120042403Y-120248528D01*
X120075120Y-120232169D01*
X120099087Y-120204535D01*
X120110655Y-120169832D01*
X120108061Y-120133345D01*
X120091703Y-120100628D01*
X120064069Y-120076660D01*
X120047287Y-120069168D01*
X119833001Y-119997739D01*
X119823933Y-119995677D01*
X119821645Y-119994729D01*
X119818328Y-119994402D01*
X119815081Y-119993664D01*
X119812611Y-119993839D01*
X119803355Y-119992928D01*
X119446212Y-119992928D01*
X119427922Y-119994729D01*
X119424809Y-119996018D01*
X119421450Y-119996257D01*
X119404285Y-120002826D01*
X119261428Y-120074255D01*
X119253558Y-120079208D01*
X119251271Y-120080156D01*
X119248695Y-120082269D01*
X119245875Y-120084045D01*
X119244252Y-120085915D01*
X119237064Y-120091815D01*
X119165635Y-120163243D01*
X119159735Y-120170431D01*
X119157864Y-120172055D01*
X119156087Y-120174876D01*
X119153976Y-120177450D01*
X119153029Y-120179735D01*
X119148073Y-120187609D01*
X119076645Y-120330466D01*
X119070077Y-120347630D01*
X119069838Y-120350989D01*
X119068549Y-120354102D01*
X119066748Y-120372392D01*
X118632133Y-120372392D01*
X118608591Y-120278226D01*
X118602408Y-120260919D01*
X118598257Y-120255318D01*
X118595591Y-120248879D01*
X118583931Y-120234673D01*
X118441074Y-120091816D01*
X118433885Y-120085915D01*
X118432263Y-120084045D01*
X118429444Y-120082270D01*
X118426868Y-120080156D01*
X118424578Y-120079207D01*
X118416709Y-120074254D01*
X118273853Y-120002826D01*
X118256688Y-119996257D01*
X118253328Y-119996018D01*
X118250216Y-119994729D01*
X118231926Y-119992928D01*
X117946212Y-119992928D01*
X117927922Y-119994729D01*
X117924809Y-119996018D01*
X117921450Y-119996257D01*
X117904285Y-120002826D01*
X117761428Y-120074255D01*
X117753560Y-120079207D01*
X117751270Y-120080156D01*
X117748692Y-120082271D01*
X117745875Y-120084045D01*
X117744252Y-120085915D01*
X117737064Y-120091816D01*
X117594206Y-120234673D01*
X117582546Y-120248879D01*
X117579878Y-120255319D01*
X117575729Y-120260919D01*
X117569546Y-120278227D01*
X117498118Y-120563940D01*
X117497649Y-120567110D01*
X117497120Y-120568388D01*
X117496442Y-120575268D01*
X117495429Y-120582121D01*
X117495632Y-120583490D01*
X117495319Y-120586678D01*
X117328652Y-120586678D01*
X117328652Y-119826261D01*
X142349486Y-119826261D01*
X142349486Y-121847095D01*
G37*
D11*
X159163884Y-82021466D02*
X159925789Y-82021466D01*
X159544836Y-82402419D02*
X159544836Y-81640514D01*
X138683884Y-88041466D02*
X139445789Y-88041466D01*
X139064836Y-88422419D02*
X139064836Y-87660514D01*
X145513884Y-102701466D02*
X146275789Y-102701466D01*
X145894836Y-103082419D02*
X145894836Y-102320514D01*
D13*
X150787142Y-118459580D02*
X150739523Y-118507200D01*
X150739523Y-118507200D02*
X150596666Y-118554819D01*
X150596666Y-118554819D02*
X150501428Y-118554819D01*
X150501428Y-118554819D02*
X150358571Y-118507200D01*
X150358571Y-118507200D02*
X150263333Y-118411961D01*
X150263333Y-118411961D02*
X150215714Y-118316723D01*
X150215714Y-118316723D02*
X150168095Y-118126247D01*
X150168095Y-118126247D02*
X150168095Y-117983390D01*
X150168095Y-117983390D02*
X150215714Y-117792914D01*
X150215714Y-117792914D02*
X150263333Y-117697676D01*
X150263333Y-117697676D02*
X150358571Y-117602438D01*
X150358571Y-117602438D02*
X150501428Y-117554819D01*
X150501428Y-117554819D02*
X150596666Y-117554819D01*
X150596666Y-117554819D02*
X150739523Y-117602438D01*
X150739523Y-117602438D02*
X150787142Y-117650057D01*
X151120476Y-117554819D02*
X151739523Y-117554819D01*
X151739523Y-117554819D02*
X151406190Y-117935771D01*
X151406190Y-117935771D02*
X151549047Y-117935771D01*
X151549047Y-117935771D02*
X151644285Y-117983390D01*
X151644285Y-117983390D02*
X151691904Y-118031009D01*
X151691904Y-118031009D02*
X151739523Y-118126247D01*
X151739523Y-118126247D02*
X151739523Y-118364342D01*
X151739523Y-118364342D02*
X151691904Y-118459580D01*
X151691904Y-118459580D02*
X151644285Y-118507200D01*
X151644285Y-118507200D02*
X151549047Y-118554819D01*
X151549047Y-118554819D02*
X151263333Y-118554819D01*
X151263333Y-118554819D02*
X151168095Y-118507200D01*
X151168095Y-118507200D02*
X151120476Y-118459580D01*
X152120476Y-117650057D02*
X152168095Y-117602438D01*
X152168095Y-117602438D02*
X152263333Y-117554819D01*
X152263333Y-117554819D02*
X152501428Y-117554819D01*
X152501428Y-117554819D02*
X152596666Y-117602438D01*
X152596666Y-117602438D02*
X152644285Y-117650057D01*
X152644285Y-117650057D02*
X152691904Y-117745295D01*
X152691904Y-117745295D02*
X152691904Y-117840533D01*
X152691904Y-117840533D02*
X152644285Y-117983390D01*
X152644285Y-117983390D02*
X152072857Y-118554819D01*
X152072857Y-118554819D02*
X152691904Y-118554819D01*
X150690951Y-120044819D02*
X150119523Y-120044819D01*
X150405237Y-120044819D02*
X150405237Y-119044819D01*
X150405237Y-119044819D02*
X150309999Y-119187676D01*
X150309999Y-119187676D02*
X150214761Y-119282914D01*
X150214761Y-119282914D02*
X150119523Y-119330533D01*
X151309999Y-119044819D02*
X151405237Y-119044819D01*
X151405237Y-119044819D02*
X151500475Y-119092438D01*
X151500475Y-119092438D02*
X151548094Y-119140057D01*
X151548094Y-119140057D02*
X151595713Y-119235295D01*
X151595713Y-119235295D02*
X151643332Y-119425771D01*
X151643332Y-119425771D02*
X151643332Y-119663866D01*
X151643332Y-119663866D02*
X151595713Y-119854342D01*
X151595713Y-119854342D02*
X151548094Y-119949580D01*
X151548094Y-119949580D02*
X151500475Y-119997200D01*
X151500475Y-119997200D02*
X151405237Y-120044819D01*
X151405237Y-120044819D02*
X151309999Y-120044819D01*
X151309999Y-120044819D02*
X151214761Y-119997200D01*
X151214761Y-119997200D02*
X151167142Y-119949580D01*
X151167142Y-119949580D02*
X151119523Y-119854342D01*
X151119523Y-119854342D02*
X151071904Y-119663866D01*
X151071904Y-119663866D02*
X151071904Y-119425771D01*
X151071904Y-119425771D02*
X151119523Y-119235295D01*
X151119523Y-119235295D02*
X151167142Y-119140057D01*
X151167142Y-119140057D02*
X151214761Y-119092438D01*
X151214761Y-119092438D02*
X151309999Y-119044819D01*
X152500475Y-119378152D02*
X152500475Y-120044819D01*
X152071904Y-119378152D02*
X152071904Y-119901961D01*
X152071904Y-119901961D02*
X152119523Y-119997200D01*
X152119523Y-119997200D02*
X152214761Y-120044819D01*
X152214761Y-120044819D02*
X152357618Y-120044819D01*
X152357618Y-120044819D02*
X152452856Y-119997200D01*
X152452856Y-119997200D02*
X152500475Y-119949580D01*
X153595714Y-119044819D02*
X154167142Y-119044819D01*
X153881428Y-120044819D02*
X153881428Y-119044819D01*
X154929047Y-120044819D02*
X154929047Y-119521009D01*
X154929047Y-119521009D02*
X154881428Y-119425771D01*
X154881428Y-119425771D02*
X154786190Y-119378152D01*
X154786190Y-119378152D02*
X154595714Y-119378152D01*
X154595714Y-119378152D02*
X154500476Y-119425771D01*
X154929047Y-119997200D02*
X154833809Y-120044819D01*
X154833809Y-120044819D02*
X154595714Y-120044819D01*
X154595714Y-120044819D02*
X154500476Y-119997200D01*
X154500476Y-119997200D02*
X154452857Y-119901961D01*
X154452857Y-119901961D02*
X154452857Y-119806723D01*
X154452857Y-119806723D02*
X154500476Y-119711485D01*
X154500476Y-119711485D02*
X154595714Y-119663866D01*
X154595714Y-119663866D02*
X154833809Y-119663866D01*
X154833809Y-119663866D02*
X154929047Y-119616247D01*
X155548095Y-120044819D02*
X155452857Y-119997200D01*
X155452857Y-119997200D02*
X155405238Y-119901961D01*
X155405238Y-119901961D02*
X155405238Y-119044819D01*
X170137142Y-87624819D02*
X169803809Y-87148628D01*
X169565714Y-87624819D02*
X169565714Y-86624819D01*
X169565714Y-86624819D02*
X169946666Y-86624819D01*
X169946666Y-86624819D02*
X170041904Y-86672438D01*
X170041904Y-86672438D02*
X170089523Y-86720057D01*
X170089523Y-86720057D02*
X170137142Y-86815295D01*
X170137142Y-86815295D02*
X170137142Y-86958152D01*
X170137142Y-86958152D02*
X170089523Y-87053390D01*
X170089523Y-87053390D02*
X170041904Y-87101009D01*
X170041904Y-87101009D02*
X169946666Y-87148628D01*
X169946666Y-87148628D02*
X169565714Y-87148628D01*
X170994285Y-86958152D02*
X170994285Y-87624819D01*
X170756190Y-86577200D02*
X170518095Y-87291485D01*
X170518095Y-87291485D02*
X171137142Y-87291485D01*
X171708571Y-86624819D02*
X171803809Y-86624819D01*
X171803809Y-86624819D02*
X171899047Y-86672438D01*
X171899047Y-86672438D02*
X171946666Y-86720057D01*
X171946666Y-86720057D02*
X171994285Y-86815295D01*
X171994285Y-86815295D02*
X172041904Y-87005771D01*
X172041904Y-87005771D02*
X172041904Y-87243866D01*
X172041904Y-87243866D02*
X171994285Y-87434342D01*
X171994285Y-87434342D02*
X171946666Y-87529580D01*
X171946666Y-87529580D02*
X171899047Y-87577200D01*
X171899047Y-87577200D02*
X171803809Y-87624819D01*
X171803809Y-87624819D02*
X171708571Y-87624819D01*
X171708571Y-87624819D02*
X171613333Y-87577200D01*
X171613333Y-87577200D02*
X171565714Y-87529580D01*
X171565714Y-87529580D02*
X171518095Y-87434342D01*
X171518095Y-87434342D02*
X171470476Y-87243866D01*
X171470476Y-87243866D02*
X171470476Y-87005771D01*
X171470476Y-87005771D02*
X171518095Y-86815295D01*
X171518095Y-86815295D02*
X171565714Y-86720057D01*
X171565714Y-86720057D02*
X171613333Y-86672438D01*
X171613333Y-86672438D02*
X171708571Y-86624819D01*
X169324819Y-84435238D02*
X169324819Y-85006666D01*
X169324819Y-84720952D02*
X168324819Y-84720952D01*
X168324819Y-84720952D02*
X168467676Y-84816190D01*
X168467676Y-84816190D02*
X168562914Y-84911428D01*
X168562914Y-84911428D02*
X168610533Y-85006666D01*
X168324819Y-83816190D02*
X168324819Y-83720952D01*
X168324819Y-83720952D02*
X168372438Y-83625714D01*
X168372438Y-83625714D02*
X168420057Y-83578095D01*
X168420057Y-83578095D02*
X168515295Y-83530476D01*
X168515295Y-83530476D02*
X168705771Y-83482857D01*
X168705771Y-83482857D02*
X168943866Y-83482857D01*
X168943866Y-83482857D02*
X169134342Y-83530476D01*
X169134342Y-83530476D02*
X169229580Y-83578095D01*
X169229580Y-83578095D02*
X169277200Y-83625714D01*
X169277200Y-83625714D02*
X169324819Y-83720952D01*
X169324819Y-83720952D02*
X169324819Y-83816190D01*
X169324819Y-83816190D02*
X169277200Y-83911428D01*
X169277200Y-83911428D02*
X169229580Y-83959047D01*
X169229580Y-83959047D02*
X169134342Y-84006666D01*
X169134342Y-84006666D02*
X168943866Y-84054285D01*
X168943866Y-84054285D02*
X168705771Y-84054285D01*
X168705771Y-84054285D02*
X168515295Y-84006666D01*
X168515295Y-84006666D02*
X168420057Y-83959047D01*
X168420057Y-83959047D02*
X168372438Y-83911428D01*
X168372438Y-83911428D02*
X168324819Y-83816190D01*
X169324819Y-83054285D02*
X168324819Y-83054285D01*
X168943866Y-82959047D02*
X169324819Y-82673333D01*
X168658152Y-82673333D02*
X169039104Y-83054285D01*
X127156666Y-115854819D02*
X127156666Y-116569104D01*
X127156666Y-116569104D02*
X127109047Y-116711961D01*
X127109047Y-116711961D02*
X127013809Y-116807200D01*
X127013809Y-116807200D02*
X126870952Y-116854819D01*
X126870952Y-116854819D02*
X126775714Y-116854819D01*
X128109047Y-115854819D02*
X127632857Y-115854819D01*
X127632857Y-115854819D02*
X127585238Y-116331009D01*
X127585238Y-116331009D02*
X127632857Y-116283390D01*
X127632857Y-116283390D02*
X127728095Y-116235771D01*
X127728095Y-116235771D02*
X127966190Y-116235771D01*
X127966190Y-116235771D02*
X128061428Y-116283390D01*
X128061428Y-116283390D02*
X128109047Y-116331009D01*
X128109047Y-116331009D02*
X128156666Y-116426247D01*
X128156666Y-116426247D02*
X128156666Y-116664342D01*
X128156666Y-116664342D02*
X128109047Y-116759580D01*
X128109047Y-116759580D02*
X128061428Y-116807200D01*
X128061428Y-116807200D02*
X127966190Y-116854819D01*
X127966190Y-116854819D02*
X127728095Y-116854819D01*
X127728095Y-116854819D02*
X127632857Y-116807200D01*
X127632857Y-116807200D02*
X127585238Y-116759580D01*
X128907619Y-116807200D02*
X129050476Y-116854819D01*
X129050476Y-116854819D02*
X129288571Y-116854819D01*
X129288571Y-116854819D02*
X129383809Y-116807200D01*
X129383809Y-116807200D02*
X129431428Y-116759580D01*
X129431428Y-116759580D02*
X129479047Y-116664342D01*
X129479047Y-116664342D02*
X129479047Y-116569104D01*
X129479047Y-116569104D02*
X129431428Y-116473866D01*
X129431428Y-116473866D02*
X129383809Y-116426247D01*
X129383809Y-116426247D02*
X129288571Y-116378628D01*
X129288571Y-116378628D02*
X129098095Y-116331009D01*
X129098095Y-116331009D02*
X129002857Y-116283390D01*
X129002857Y-116283390D02*
X128955238Y-116235771D01*
X128955238Y-116235771D02*
X128907619Y-116140533D01*
X128907619Y-116140533D02*
X128907619Y-116045295D01*
X128907619Y-116045295D02*
X128955238Y-115950057D01*
X128955238Y-115950057D02*
X129002857Y-115902438D01*
X129002857Y-115902438D02*
X129098095Y-115854819D01*
X129098095Y-115854819D02*
X129336190Y-115854819D01*
X129336190Y-115854819D02*
X129479047Y-115902438D01*
X129860000Y-116569104D02*
X130336190Y-116569104D01*
X129764762Y-116854819D02*
X130098095Y-115854819D01*
X130098095Y-115854819D02*
X130431428Y-116854819D01*
X130764762Y-116854819D02*
X130764762Y-115854819D01*
X188077142Y-60864819D02*
X187743809Y-60388628D01*
X187505714Y-60864819D02*
X187505714Y-59864819D01*
X187505714Y-59864819D02*
X187886666Y-59864819D01*
X187886666Y-59864819D02*
X187981904Y-59912438D01*
X187981904Y-59912438D02*
X188029523Y-59960057D01*
X188029523Y-59960057D02*
X188077142Y-60055295D01*
X188077142Y-60055295D02*
X188077142Y-60198152D01*
X188077142Y-60198152D02*
X188029523Y-60293390D01*
X188029523Y-60293390D02*
X187981904Y-60341009D01*
X187981904Y-60341009D02*
X187886666Y-60388628D01*
X187886666Y-60388628D02*
X187505714Y-60388628D01*
X189029523Y-60864819D02*
X188458095Y-60864819D01*
X188743809Y-60864819D02*
X188743809Y-59864819D01*
X188743809Y-59864819D02*
X188648571Y-60007676D01*
X188648571Y-60007676D02*
X188553333Y-60102914D01*
X188553333Y-60102914D02*
X188458095Y-60150533D01*
X189886666Y-60198152D02*
X189886666Y-60864819D01*
X189648571Y-59817200D02*
X189410476Y-60531485D01*
X189410476Y-60531485D02*
X190029523Y-60531485D01*
X187940952Y-62254819D02*
X187369524Y-62254819D01*
X187655238Y-62254819D02*
X187655238Y-61254819D01*
X187655238Y-61254819D02*
X187560000Y-61397676D01*
X187560000Y-61397676D02*
X187464762Y-61492914D01*
X187464762Y-61492914D02*
X187369524Y-61540533D01*
X188369524Y-62254819D02*
X188369524Y-61254819D01*
X188464762Y-61873866D02*
X188750476Y-62254819D01*
X188750476Y-61588152D02*
X188369524Y-61969104D01*
X168627142Y-93349580D02*
X168579523Y-93397200D01*
X168579523Y-93397200D02*
X168436666Y-93444819D01*
X168436666Y-93444819D02*
X168341428Y-93444819D01*
X168341428Y-93444819D02*
X168198571Y-93397200D01*
X168198571Y-93397200D02*
X168103333Y-93301961D01*
X168103333Y-93301961D02*
X168055714Y-93206723D01*
X168055714Y-93206723D02*
X168008095Y-93016247D01*
X168008095Y-93016247D02*
X168008095Y-92873390D01*
X168008095Y-92873390D02*
X168055714Y-92682914D01*
X168055714Y-92682914D02*
X168103333Y-92587676D01*
X168103333Y-92587676D02*
X168198571Y-92492438D01*
X168198571Y-92492438D02*
X168341428Y-92444819D01*
X168341428Y-92444819D02*
X168436666Y-92444819D01*
X168436666Y-92444819D02*
X168579523Y-92492438D01*
X168579523Y-92492438D02*
X168627142Y-92540057D01*
X169484285Y-92778152D02*
X169484285Y-93444819D01*
X169246190Y-92397200D02*
X169008095Y-93111485D01*
X169008095Y-93111485D02*
X169627142Y-93111485D01*
X169912857Y-92444819D02*
X170531904Y-92444819D01*
X170531904Y-92444819D02*
X170198571Y-92825771D01*
X170198571Y-92825771D02*
X170341428Y-92825771D01*
X170341428Y-92825771D02*
X170436666Y-92873390D01*
X170436666Y-92873390D02*
X170484285Y-92921009D01*
X170484285Y-92921009D02*
X170531904Y-93016247D01*
X170531904Y-93016247D02*
X170531904Y-93254342D01*
X170531904Y-93254342D02*
X170484285Y-93349580D01*
X170484285Y-93349580D02*
X170436666Y-93397200D01*
X170436666Y-93397200D02*
X170341428Y-93444819D01*
X170341428Y-93444819D02*
X170055714Y-93444819D01*
X170055714Y-93444819D02*
X169960476Y-93397200D01*
X169960476Y-93397200D02*
X169912857Y-93349580D01*
X168590952Y-91894819D02*
X168019524Y-91894819D01*
X168305238Y-91894819D02*
X168305238Y-90894819D01*
X168305238Y-90894819D02*
X168210000Y-91037676D01*
X168210000Y-91037676D02*
X168114762Y-91132914D01*
X168114762Y-91132914D02*
X168019524Y-91180533D01*
X169210000Y-90894819D02*
X169305238Y-90894819D01*
X169305238Y-90894819D02*
X169400476Y-90942438D01*
X169400476Y-90942438D02*
X169448095Y-90990057D01*
X169448095Y-90990057D02*
X169495714Y-91085295D01*
X169495714Y-91085295D02*
X169543333Y-91275771D01*
X169543333Y-91275771D02*
X169543333Y-91513866D01*
X169543333Y-91513866D02*
X169495714Y-91704342D01*
X169495714Y-91704342D02*
X169448095Y-91799580D01*
X169448095Y-91799580D02*
X169400476Y-91847200D01*
X169400476Y-91847200D02*
X169305238Y-91894819D01*
X169305238Y-91894819D02*
X169210000Y-91894819D01*
X169210000Y-91894819D02*
X169114762Y-91847200D01*
X169114762Y-91847200D02*
X169067143Y-91799580D01*
X169067143Y-91799580D02*
X169019524Y-91704342D01*
X169019524Y-91704342D02*
X168971905Y-91513866D01*
X168971905Y-91513866D02*
X168971905Y-91275771D01*
X168971905Y-91275771D02*
X169019524Y-91085295D01*
X169019524Y-91085295D02*
X169067143Y-90990057D01*
X169067143Y-90990057D02*
X169114762Y-90942438D01*
X169114762Y-90942438D02*
X169210000Y-90894819D01*
X170162381Y-90894819D02*
X170257619Y-90894819D01*
X170257619Y-90894819D02*
X170352857Y-90942438D01*
X170352857Y-90942438D02*
X170400476Y-90990057D01*
X170400476Y-90990057D02*
X170448095Y-91085295D01*
X170448095Y-91085295D02*
X170495714Y-91275771D01*
X170495714Y-91275771D02*
X170495714Y-91513866D01*
X170495714Y-91513866D02*
X170448095Y-91704342D01*
X170448095Y-91704342D02*
X170400476Y-91799580D01*
X170400476Y-91799580D02*
X170352857Y-91847200D01*
X170352857Y-91847200D02*
X170257619Y-91894819D01*
X170257619Y-91894819D02*
X170162381Y-91894819D01*
X170162381Y-91894819D02*
X170067143Y-91847200D01*
X170067143Y-91847200D02*
X170019524Y-91799580D01*
X170019524Y-91799580D02*
X169971905Y-91704342D01*
X169971905Y-91704342D02*
X169924286Y-91513866D01*
X169924286Y-91513866D02*
X169924286Y-91275771D01*
X169924286Y-91275771D02*
X169971905Y-91085295D01*
X169971905Y-91085295D02*
X170019524Y-90990057D01*
X170019524Y-90990057D02*
X170067143Y-90942438D01*
X170067143Y-90942438D02*
X170162381Y-90894819D01*
X170924286Y-91228152D02*
X170924286Y-91894819D01*
X170924286Y-91323390D02*
X170971905Y-91275771D01*
X170971905Y-91275771D02*
X171067143Y-91228152D01*
X171067143Y-91228152D02*
X171210000Y-91228152D01*
X171210000Y-91228152D02*
X171305238Y-91275771D01*
X171305238Y-91275771D02*
X171352857Y-91371009D01*
X171352857Y-91371009D02*
X171352857Y-91894819D01*
X171667142Y-79504819D02*
X171333809Y-79028628D01*
X171095714Y-79504819D02*
X171095714Y-78504819D01*
X171095714Y-78504819D02*
X171476666Y-78504819D01*
X171476666Y-78504819D02*
X171571904Y-78552438D01*
X171571904Y-78552438D02*
X171619523Y-78600057D01*
X171619523Y-78600057D02*
X171667142Y-78695295D01*
X171667142Y-78695295D02*
X171667142Y-78838152D01*
X171667142Y-78838152D02*
X171619523Y-78933390D01*
X171619523Y-78933390D02*
X171571904Y-78981009D01*
X171571904Y-78981009D02*
X171476666Y-79028628D01*
X171476666Y-79028628D02*
X171095714Y-79028628D01*
X172524285Y-78838152D02*
X172524285Y-79504819D01*
X172286190Y-78457200D02*
X172048095Y-79171485D01*
X172048095Y-79171485D02*
X172667142Y-79171485D01*
X173476666Y-78838152D02*
X173476666Y-79504819D01*
X173238571Y-78457200D02*
X173000476Y-79171485D01*
X173000476Y-79171485D02*
X173619523Y-79171485D01*
X175494761Y-79484819D02*
X174923333Y-79484819D01*
X175209047Y-79484819D02*
X175209047Y-78484819D01*
X175209047Y-78484819D02*
X175113809Y-78627676D01*
X175113809Y-78627676D02*
X175018571Y-78722914D01*
X175018571Y-78722914D02*
X174923333Y-78770533D01*
X176113809Y-78484819D02*
X176209047Y-78484819D01*
X176209047Y-78484819D02*
X176304285Y-78532438D01*
X176304285Y-78532438D02*
X176351904Y-78580057D01*
X176351904Y-78580057D02*
X176399523Y-78675295D01*
X176399523Y-78675295D02*
X176447142Y-78865771D01*
X176447142Y-78865771D02*
X176447142Y-79103866D01*
X176447142Y-79103866D02*
X176399523Y-79294342D01*
X176399523Y-79294342D02*
X176351904Y-79389580D01*
X176351904Y-79389580D02*
X176304285Y-79437200D01*
X176304285Y-79437200D02*
X176209047Y-79484819D01*
X176209047Y-79484819D02*
X176113809Y-79484819D01*
X176113809Y-79484819D02*
X176018571Y-79437200D01*
X176018571Y-79437200D02*
X175970952Y-79389580D01*
X175970952Y-79389580D02*
X175923333Y-79294342D01*
X175923333Y-79294342D02*
X175875714Y-79103866D01*
X175875714Y-79103866D02*
X175875714Y-78865771D01*
X175875714Y-78865771D02*
X175923333Y-78675295D01*
X175923333Y-78675295D02*
X175970952Y-78580057D01*
X175970952Y-78580057D02*
X176018571Y-78532438D01*
X176018571Y-78532438D02*
X176113809Y-78484819D01*
X176875714Y-79484819D02*
X176875714Y-78484819D01*
X176970952Y-79103866D02*
X177256666Y-79484819D01*
X177256666Y-78818152D02*
X176875714Y-79199104D01*
X168537142Y-90149580D02*
X168489523Y-90197200D01*
X168489523Y-90197200D02*
X168346666Y-90244819D01*
X168346666Y-90244819D02*
X168251428Y-90244819D01*
X168251428Y-90244819D02*
X168108571Y-90197200D01*
X168108571Y-90197200D02*
X168013333Y-90101961D01*
X168013333Y-90101961D02*
X167965714Y-90006723D01*
X167965714Y-90006723D02*
X167918095Y-89816247D01*
X167918095Y-89816247D02*
X167918095Y-89673390D01*
X167918095Y-89673390D02*
X167965714Y-89482914D01*
X167965714Y-89482914D02*
X168013333Y-89387676D01*
X168013333Y-89387676D02*
X168108571Y-89292438D01*
X168108571Y-89292438D02*
X168251428Y-89244819D01*
X168251428Y-89244819D02*
X168346666Y-89244819D01*
X168346666Y-89244819D02*
X168489523Y-89292438D01*
X168489523Y-89292438D02*
X168537142Y-89340057D01*
X169394285Y-89578152D02*
X169394285Y-90244819D01*
X169156190Y-89197200D02*
X168918095Y-89911485D01*
X168918095Y-89911485D02*
X169537142Y-89911485D01*
X170108571Y-89244819D02*
X170203809Y-89244819D01*
X170203809Y-89244819D02*
X170299047Y-89292438D01*
X170299047Y-89292438D02*
X170346666Y-89340057D01*
X170346666Y-89340057D02*
X170394285Y-89435295D01*
X170394285Y-89435295D02*
X170441904Y-89625771D01*
X170441904Y-89625771D02*
X170441904Y-89863866D01*
X170441904Y-89863866D02*
X170394285Y-90054342D01*
X170394285Y-90054342D02*
X170346666Y-90149580D01*
X170346666Y-90149580D02*
X170299047Y-90197200D01*
X170299047Y-90197200D02*
X170203809Y-90244819D01*
X170203809Y-90244819D02*
X170108571Y-90244819D01*
X170108571Y-90244819D02*
X170013333Y-90197200D01*
X170013333Y-90197200D02*
X169965714Y-90149580D01*
X169965714Y-90149580D02*
X169918095Y-90054342D01*
X169918095Y-90054342D02*
X169870476Y-89863866D01*
X169870476Y-89863866D02*
X169870476Y-89625771D01*
X169870476Y-89625771D02*
X169918095Y-89435295D01*
X169918095Y-89435295D02*
X169965714Y-89340057D01*
X169965714Y-89340057D02*
X170013333Y-89292438D01*
X170013333Y-89292438D02*
X170108571Y-89244819D01*
X168570952Y-94864819D02*
X167999524Y-94864819D01*
X168285238Y-94864819D02*
X168285238Y-93864819D01*
X168285238Y-93864819D02*
X168190000Y-94007676D01*
X168190000Y-94007676D02*
X168094762Y-94102914D01*
X168094762Y-94102914D02*
X167999524Y-94150533D01*
X169190000Y-93864819D02*
X169285238Y-93864819D01*
X169285238Y-93864819D02*
X169380476Y-93912438D01*
X169380476Y-93912438D02*
X169428095Y-93960057D01*
X169428095Y-93960057D02*
X169475714Y-94055295D01*
X169475714Y-94055295D02*
X169523333Y-94245771D01*
X169523333Y-94245771D02*
X169523333Y-94483866D01*
X169523333Y-94483866D02*
X169475714Y-94674342D01*
X169475714Y-94674342D02*
X169428095Y-94769580D01*
X169428095Y-94769580D02*
X169380476Y-94817200D01*
X169380476Y-94817200D02*
X169285238Y-94864819D01*
X169285238Y-94864819D02*
X169190000Y-94864819D01*
X169190000Y-94864819D02*
X169094762Y-94817200D01*
X169094762Y-94817200D02*
X169047143Y-94769580D01*
X169047143Y-94769580D02*
X168999524Y-94674342D01*
X168999524Y-94674342D02*
X168951905Y-94483866D01*
X168951905Y-94483866D02*
X168951905Y-94245771D01*
X168951905Y-94245771D02*
X168999524Y-94055295D01*
X168999524Y-94055295D02*
X169047143Y-93960057D01*
X169047143Y-93960057D02*
X169094762Y-93912438D01*
X169094762Y-93912438D02*
X169190000Y-93864819D01*
X170142381Y-93864819D02*
X170237619Y-93864819D01*
X170237619Y-93864819D02*
X170332857Y-93912438D01*
X170332857Y-93912438D02*
X170380476Y-93960057D01*
X170380476Y-93960057D02*
X170428095Y-94055295D01*
X170428095Y-94055295D02*
X170475714Y-94245771D01*
X170475714Y-94245771D02*
X170475714Y-94483866D01*
X170475714Y-94483866D02*
X170428095Y-94674342D01*
X170428095Y-94674342D02*
X170380476Y-94769580D01*
X170380476Y-94769580D02*
X170332857Y-94817200D01*
X170332857Y-94817200D02*
X170237619Y-94864819D01*
X170237619Y-94864819D02*
X170142381Y-94864819D01*
X170142381Y-94864819D02*
X170047143Y-94817200D01*
X170047143Y-94817200D02*
X169999524Y-94769580D01*
X169999524Y-94769580D02*
X169951905Y-94674342D01*
X169951905Y-94674342D02*
X169904286Y-94483866D01*
X169904286Y-94483866D02*
X169904286Y-94245771D01*
X169904286Y-94245771D02*
X169951905Y-94055295D01*
X169951905Y-94055295D02*
X169999524Y-93960057D01*
X169999524Y-93960057D02*
X170047143Y-93912438D01*
X170047143Y-93912438D02*
X170142381Y-93864819D01*
X170904286Y-94198152D02*
X170904286Y-94864819D01*
X170904286Y-94293390D02*
X170951905Y-94245771D01*
X170951905Y-94245771D02*
X171047143Y-94198152D01*
X171047143Y-94198152D02*
X171190000Y-94198152D01*
X171190000Y-94198152D02*
X171285238Y-94245771D01*
X171285238Y-94245771D02*
X171332857Y-94341009D01*
X171332857Y-94341009D02*
X171332857Y-94864819D01*
X179036666Y-97264819D02*
X179036666Y-97979104D01*
X179036666Y-97979104D02*
X178989047Y-98121961D01*
X178989047Y-98121961D02*
X178893809Y-98217200D01*
X178893809Y-98217200D02*
X178750952Y-98264819D01*
X178750952Y-98264819D02*
X178655714Y-98264819D01*
X179941428Y-97264819D02*
X179750952Y-97264819D01*
X179750952Y-97264819D02*
X179655714Y-97312438D01*
X179655714Y-97312438D02*
X179608095Y-97360057D01*
X179608095Y-97360057D02*
X179512857Y-97502914D01*
X179512857Y-97502914D02*
X179465238Y-97693390D01*
X179465238Y-97693390D02*
X179465238Y-98074342D01*
X179465238Y-98074342D02*
X179512857Y-98169580D01*
X179512857Y-98169580D02*
X179560476Y-98217200D01*
X179560476Y-98217200D02*
X179655714Y-98264819D01*
X179655714Y-98264819D02*
X179846190Y-98264819D01*
X179846190Y-98264819D02*
X179941428Y-98217200D01*
X179941428Y-98217200D02*
X179989047Y-98169580D01*
X179989047Y-98169580D02*
X180036666Y-98074342D01*
X180036666Y-98074342D02*
X180036666Y-97836247D01*
X180036666Y-97836247D02*
X179989047Y-97741009D01*
X179989047Y-97741009D02*
X179941428Y-97693390D01*
X179941428Y-97693390D02*
X179846190Y-97645771D01*
X179846190Y-97645771D02*
X179655714Y-97645771D01*
X179655714Y-97645771D02*
X179560476Y-97693390D01*
X179560476Y-97693390D02*
X179512857Y-97741009D01*
X179512857Y-97741009D02*
X179465238Y-97836247D01*
X178462381Y-98844819D02*
X178795714Y-99844819D01*
X178795714Y-99844819D02*
X179129047Y-98844819D01*
X179605238Y-99844819D02*
X179510000Y-99797200D01*
X179510000Y-99797200D02*
X179462381Y-99749580D01*
X179462381Y-99749580D02*
X179414762Y-99654342D01*
X179414762Y-99654342D02*
X179414762Y-99368628D01*
X179414762Y-99368628D02*
X179462381Y-99273390D01*
X179462381Y-99273390D02*
X179510000Y-99225771D01*
X179510000Y-99225771D02*
X179605238Y-99178152D01*
X179605238Y-99178152D02*
X179748095Y-99178152D01*
X179748095Y-99178152D02*
X179843333Y-99225771D01*
X179843333Y-99225771D02*
X179890952Y-99273390D01*
X179890952Y-99273390D02*
X179938571Y-99368628D01*
X179938571Y-99368628D02*
X179938571Y-99654342D01*
X179938571Y-99654342D02*
X179890952Y-99749580D01*
X179890952Y-99749580D02*
X179843333Y-99797200D01*
X179843333Y-99797200D02*
X179748095Y-99844819D01*
X179748095Y-99844819D02*
X179605238Y-99844819D01*
X180510000Y-99844819D02*
X180414762Y-99797200D01*
X180414762Y-99797200D02*
X180367143Y-99701961D01*
X180367143Y-99701961D02*
X180367143Y-98844819D01*
X144733333Y-84269580D02*
X144685714Y-84317200D01*
X144685714Y-84317200D02*
X144542857Y-84364819D01*
X144542857Y-84364819D02*
X144447619Y-84364819D01*
X144447619Y-84364819D02*
X144304762Y-84317200D01*
X144304762Y-84317200D02*
X144209524Y-84221961D01*
X144209524Y-84221961D02*
X144161905Y-84126723D01*
X144161905Y-84126723D02*
X144114286Y-83936247D01*
X144114286Y-83936247D02*
X144114286Y-83793390D01*
X144114286Y-83793390D02*
X144161905Y-83602914D01*
X144161905Y-83602914D02*
X144209524Y-83507676D01*
X144209524Y-83507676D02*
X144304762Y-83412438D01*
X144304762Y-83412438D02*
X144447619Y-83364819D01*
X144447619Y-83364819D02*
X144542857Y-83364819D01*
X144542857Y-83364819D02*
X144685714Y-83412438D01*
X144685714Y-83412438D02*
X144733333Y-83460057D01*
X145590476Y-83364819D02*
X145400000Y-83364819D01*
X145400000Y-83364819D02*
X145304762Y-83412438D01*
X145304762Y-83412438D02*
X145257143Y-83460057D01*
X145257143Y-83460057D02*
X145161905Y-83602914D01*
X145161905Y-83602914D02*
X145114286Y-83793390D01*
X145114286Y-83793390D02*
X145114286Y-84174342D01*
X145114286Y-84174342D02*
X145161905Y-84269580D01*
X145161905Y-84269580D02*
X145209524Y-84317200D01*
X145209524Y-84317200D02*
X145304762Y-84364819D01*
X145304762Y-84364819D02*
X145495238Y-84364819D01*
X145495238Y-84364819D02*
X145590476Y-84317200D01*
X145590476Y-84317200D02*
X145638095Y-84269580D01*
X145638095Y-84269580D02*
X145685714Y-84174342D01*
X145685714Y-84174342D02*
X145685714Y-83936247D01*
X145685714Y-83936247D02*
X145638095Y-83841009D01*
X145638095Y-83841009D02*
X145590476Y-83793390D01*
X145590476Y-83793390D02*
X145495238Y-83745771D01*
X145495238Y-83745771D02*
X145304762Y-83745771D01*
X145304762Y-83745771D02*
X145209524Y-83793390D01*
X145209524Y-83793390D02*
X145161905Y-83841009D01*
X145161905Y-83841009D02*
X145114286Y-83936247D01*
X146820952Y-84324819D02*
X146249524Y-84324819D01*
X146535238Y-84324819D02*
X146535238Y-83324819D01*
X146535238Y-83324819D02*
X146440000Y-83467676D01*
X146440000Y-83467676D02*
X146344762Y-83562914D01*
X146344762Y-83562914D02*
X146249524Y-83610533D01*
X147440000Y-83324819D02*
X147535238Y-83324819D01*
X147535238Y-83324819D02*
X147630476Y-83372438D01*
X147630476Y-83372438D02*
X147678095Y-83420057D01*
X147678095Y-83420057D02*
X147725714Y-83515295D01*
X147725714Y-83515295D02*
X147773333Y-83705771D01*
X147773333Y-83705771D02*
X147773333Y-83943866D01*
X147773333Y-83943866D02*
X147725714Y-84134342D01*
X147725714Y-84134342D02*
X147678095Y-84229580D01*
X147678095Y-84229580D02*
X147630476Y-84277200D01*
X147630476Y-84277200D02*
X147535238Y-84324819D01*
X147535238Y-84324819D02*
X147440000Y-84324819D01*
X147440000Y-84324819D02*
X147344762Y-84277200D01*
X147344762Y-84277200D02*
X147297143Y-84229580D01*
X147297143Y-84229580D02*
X147249524Y-84134342D01*
X147249524Y-84134342D02*
X147201905Y-83943866D01*
X147201905Y-83943866D02*
X147201905Y-83705771D01*
X147201905Y-83705771D02*
X147249524Y-83515295D01*
X147249524Y-83515295D02*
X147297143Y-83420057D01*
X147297143Y-83420057D02*
X147344762Y-83372438D01*
X147344762Y-83372438D02*
X147440000Y-83324819D01*
X148392381Y-83324819D02*
X148487619Y-83324819D01*
X148487619Y-83324819D02*
X148582857Y-83372438D01*
X148582857Y-83372438D02*
X148630476Y-83420057D01*
X148630476Y-83420057D02*
X148678095Y-83515295D01*
X148678095Y-83515295D02*
X148725714Y-83705771D01*
X148725714Y-83705771D02*
X148725714Y-83943866D01*
X148725714Y-83943866D02*
X148678095Y-84134342D01*
X148678095Y-84134342D02*
X148630476Y-84229580D01*
X148630476Y-84229580D02*
X148582857Y-84277200D01*
X148582857Y-84277200D02*
X148487619Y-84324819D01*
X148487619Y-84324819D02*
X148392381Y-84324819D01*
X148392381Y-84324819D02*
X148297143Y-84277200D01*
X148297143Y-84277200D02*
X148249524Y-84229580D01*
X148249524Y-84229580D02*
X148201905Y-84134342D01*
X148201905Y-84134342D02*
X148154286Y-83943866D01*
X148154286Y-83943866D02*
X148154286Y-83705771D01*
X148154286Y-83705771D02*
X148201905Y-83515295D01*
X148201905Y-83515295D02*
X148249524Y-83420057D01*
X148249524Y-83420057D02*
X148297143Y-83372438D01*
X148297143Y-83372438D02*
X148392381Y-83324819D01*
X149154286Y-83658152D02*
X149154286Y-84324819D01*
X149154286Y-83753390D02*
X149201905Y-83705771D01*
X149201905Y-83705771D02*
X149297143Y-83658152D01*
X149297143Y-83658152D02*
X149440000Y-83658152D01*
X149440000Y-83658152D02*
X149535238Y-83705771D01*
X149535238Y-83705771D02*
X149582857Y-83801009D01*
X149582857Y-83801009D02*
X149582857Y-84324819D01*
X146253333Y-88359580D02*
X146205714Y-88407200D01*
X146205714Y-88407200D02*
X146062857Y-88454819D01*
X146062857Y-88454819D02*
X145967619Y-88454819D01*
X145967619Y-88454819D02*
X145824762Y-88407200D01*
X145824762Y-88407200D02*
X145729524Y-88311961D01*
X145729524Y-88311961D02*
X145681905Y-88216723D01*
X145681905Y-88216723D02*
X145634286Y-88026247D01*
X145634286Y-88026247D02*
X145634286Y-87883390D01*
X145634286Y-87883390D02*
X145681905Y-87692914D01*
X145681905Y-87692914D02*
X145729524Y-87597676D01*
X145729524Y-87597676D02*
X145824762Y-87502438D01*
X145824762Y-87502438D02*
X145967619Y-87454819D01*
X145967619Y-87454819D02*
X146062857Y-87454819D01*
X146062857Y-87454819D02*
X146205714Y-87502438D01*
X146205714Y-87502438D02*
X146253333Y-87550057D01*
X146586667Y-87454819D02*
X147253333Y-87454819D01*
X147253333Y-87454819D02*
X146824762Y-88454819D01*
X140706189Y-90944819D02*
X140134761Y-90944819D01*
X140420475Y-90944819D02*
X140420475Y-89944819D01*
X140420475Y-89944819D02*
X140325237Y-90087676D01*
X140325237Y-90087676D02*
X140229999Y-90182914D01*
X140229999Y-90182914D02*
X140134761Y-90230533D01*
X141325237Y-89944819D02*
X141420475Y-89944819D01*
X141420475Y-89944819D02*
X141515713Y-89992438D01*
X141515713Y-89992438D02*
X141563332Y-90040057D01*
X141563332Y-90040057D02*
X141610951Y-90135295D01*
X141610951Y-90135295D02*
X141658570Y-90325771D01*
X141658570Y-90325771D02*
X141658570Y-90563866D01*
X141658570Y-90563866D02*
X141610951Y-90754342D01*
X141610951Y-90754342D02*
X141563332Y-90849580D01*
X141563332Y-90849580D02*
X141515713Y-90897200D01*
X141515713Y-90897200D02*
X141420475Y-90944819D01*
X141420475Y-90944819D02*
X141325237Y-90944819D01*
X141325237Y-90944819D02*
X141229999Y-90897200D01*
X141229999Y-90897200D02*
X141182380Y-90849580D01*
X141182380Y-90849580D02*
X141134761Y-90754342D01*
X141134761Y-90754342D02*
X141087142Y-90563866D01*
X141087142Y-90563866D02*
X141087142Y-90325771D01*
X141087142Y-90325771D02*
X141134761Y-90135295D01*
X141134761Y-90135295D02*
X141182380Y-90040057D01*
X141182380Y-90040057D02*
X141229999Y-89992438D01*
X141229999Y-89992438D02*
X141325237Y-89944819D01*
X142515713Y-90278152D02*
X142515713Y-90944819D01*
X142087142Y-90278152D02*
X142087142Y-90801961D01*
X142087142Y-90801961D02*
X142134761Y-90897200D01*
X142134761Y-90897200D02*
X142229999Y-90944819D01*
X142229999Y-90944819D02*
X142372856Y-90944819D01*
X142372856Y-90944819D02*
X142468094Y-90897200D01*
X142468094Y-90897200D02*
X142515713Y-90849580D01*
X143610952Y-90278152D02*
X143991904Y-90278152D01*
X143753809Y-89944819D02*
X143753809Y-90801961D01*
X143753809Y-90801961D02*
X143801428Y-90897200D01*
X143801428Y-90897200D02*
X143896666Y-90944819D01*
X143896666Y-90944819D02*
X143991904Y-90944819D01*
X144753809Y-90944819D02*
X144753809Y-90421009D01*
X144753809Y-90421009D02*
X144706190Y-90325771D01*
X144706190Y-90325771D02*
X144610952Y-90278152D01*
X144610952Y-90278152D02*
X144420476Y-90278152D01*
X144420476Y-90278152D02*
X144325238Y-90325771D01*
X144753809Y-90897200D02*
X144658571Y-90944819D01*
X144658571Y-90944819D02*
X144420476Y-90944819D01*
X144420476Y-90944819D02*
X144325238Y-90897200D01*
X144325238Y-90897200D02*
X144277619Y-90801961D01*
X144277619Y-90801961D02*
X144277619Y-90706723D01*
X144277619Y-90706723D02*
X144325238Y-90611485D01*
X144325238Y-90611485D02*
X144420476Y-90563866D01*
X144420476Y-90563866D02*
X144658571Y-90563866D01*
X144658571Y-90563866D02*
X144753809Y-90516247D01*
X145372857Y-90944819D02*
X145277619Y-90897200D01*
X145277619Y-90897200D02*
X145230000Y-90801961D01*
X145230000Y-90801961D02*
X145230000Y-89944819D01*
X138717142Y-110549580D02*
X138669523Y-110597200D01*
X138669523Y-110597200D02*
X138526666Y-110644819D01*
X138526666Y-110644819D02*
X138431428Y-110644819D01*
X138431428Y-110644819D02*
X138288571Y-110597200D01*
X138288571Y-110597200D02*
X138193333Y-110501961D01*
X138193333Y-110501961D02*
X138145714Y-110406723D01*
X138145714Y-110406723D02*
X138098095Y-110216247D01*
X138098095Y-110216247D02*
X138098095Y-110073390D01*
X138098095Y-110073390D02*
X138145714Y-109882914D01*
X138145714Y-109882914D02*
X138193333Y-109787676D01*
X138193333Y-109787676D02*
X138288571Y-109692438D01*
X138288571Y-109692438D02*
X138431428Y-109644819D01*
X138431428Y-109644819D02*
X138526666Y-109644819D01*
X138526666Y-109644819D02*
X138669523Y-109692438D01*
X138669523Y-109692438D02*
X138717142Y-109740057D01*
X139050476Y-109644819D02*
X139669523Y-109644819D01*
X139669523Y-109644819D02*
X139336190Y-110025771D01*
X139336190Y-110025771D02*
X139479047Y-110025771D01*
X139479047Y-110025771D02*
X139574285Y-110073390D01*
X139574285Y-110073390D02*
X139621904Y-110121009D01*
X139621904Y-110121009D02*
X139669523Y-110216247D01*
X139669523Y-110216247D02*
X139669523Y-110454342D01*
X139669523Y-110454342D02*
X139621904Y-110549580D01*
X139621904Y-110549580D02*
X139574285Y-110597200D01*
X139574285Y-110597200D02*
X139479047Y-110644819D01*
X139479047Y-110644819D02*
X139193333Y-110644819D01*
X139193333Y-110644819D02*
X139098095Y-110597200D01*
X139098095Y-110597200D02*
X139050476Y-110549580D01*
X140002857Y-109644819D02*
X140621904Y-109644819D01*
X140621904Y-109644819D02*
X140288571Y-110025771D01*
X140288571Y-110025771D02*
X140431428Y-110025771D01*
X140431428Y-110025771D02*
X140526666Y-110073390D01*
X140526666Y-110073390D02*
X140574285Y-110121009D01*
X140574285Y-110121009D02*
X140621904Y-110216247D01*
X140621904Y-110216247D02*
X140621904Y-110454342D01*
X140621904Y-110454342D02*
X140574285Y-110549580D01*
X140574285Y-110549580D02*
X140526666Y-110597200D01*
X140526666Y-110597200D02*
X140431428Y-110644819D01*
X140431428Y-110644819D02*
X140145714Y-110644819D01*
X140145714Y-110644819D02*
X140050476Y-110597200D01*
X140050476Y-110597200D02*
X140002857Y-110549580D01*
X142480952Y-110674819D02*
X141909524Y-110674819D01*
X142195238Y-110674819D02*
X142195238Y-109674819D01*
X142195238Y-109674819D02*
X142100000Y-109817676D01*
X142100000Y-109817676D02*
X142004762Y-109912914D01*
X142004762Y-109912914D02*
X141909524Y-109960533D01*
X143100000Y-109674819D02*
X143195238Y-109674819D01*
X143195238Y-109674819D02*
X143290476Y-109722438D01*
X143290476Y-109722438D02*
X143338095Y-109770057D01*
X143338095Y-109770057D02*
X143385714Y-109865295D01*
X143385714Y-109865295D02*
X143433333Y-110055771D01*
X143433333Y-110055771D02*
X143433333Y-110293866D01*
X143433333Y-110293866D02*
X143385714Y-110484342D01*
X143385714Y-110484342D02*
X143338095Y-110579580D01*
X143338095Y-110579580D02*
X143290476Y-110627200D01*
X143290476Y-110627200D02*
X143195238Y-110674819D01*
X143195238Y-110674819D02*
X143100000Y-110674819D01*
X143100000Y-110674819D02*
X143004762Y-110627200D01*
X143004762Y-110627200D02*
X142957143Y-110579580D01*
X142957143Y-110579580D02*
X142909524Y-110484342D01*
X142909524Y-110484342D02*
X142861905Y-110293866D01*
X142861905Y-110293866D02*
X142861905Y-110055771D01*
X142861905Y-110055771D02*
X142909524Y-109865295D01*
X142909524Y-109865295D02*
X142957143Y-109770057D01*
X142957143Y-109770057D02*
X143004762Y-109722438D01*
X143004762Y-109722438D02*
X143100000Y-109674819D01*
X144052381Y-109674819D02*
X144147619Y-109674819D01*
X144147619Y-109674819D02*
X144242857Y-109722438D01*
X144242857Y-109722438D02*
X144290476Y-109770057D01*
X144290476Y-109770057D02*
X144338095Y-109865295D01*
X144338095Y-109865295D02*
X144385714Y-110055771D01*
X144385714Y-110055771D02*
X144385714Y-110293866D01*
X144385714Y-110293866D02*
X144338095Y-110484342D01*
X144338095Y-110484342D02*
X144290476Y-110579580D01*
X144290476Y-110579580D02*
X144242857Y-110627200D01*
X144242857Y-110627200D02*
X144147619Y-110674819D01*
X144147619Y-110674819D02*
X144052381Y-110674819D01*
X144052381Y-110674819D02*
X143957143Y-110627200D01*
X143957143Y-110627200D02*
X143909524Y-110579580D01*
X143909524Y-110579580D02*
X143861905Y-110484342D01*
X143861905Y-110484342D02*
X143814286Y-110293866D01*
X143814286Y-110293866D02*
X143814286Y-110055771D01*
X143814286Y-110055771D02*
X143861905Y-109865295D01*
X143861905Y-109865295D02*
X143909524Y-109770057D01*
X143909524Y-109770057D02*
X143957143Y-109722438D01*
X143957143Y-109722438D02*
X144052381Y-109674819D01*
X144814286Y-110008152D02*
X144814286Y-110674819D01*
X144814286Y-110103390D02*
X144861905Y-110055771D01*
X144861905Y-110055771D02*
X144957143Y-110008152D01*
X144957143Y-110008152D02*
X145100000Y-110008152D01*
X145100000Y-110008152D02*
X145195238Y-110055771D01*
X145195238Y-110055771D02*
X145242857Y-110151009D01*
X145242857Y-110151009D02*
X145242857Y-110674819D01*
X151027142Y-107979580D02*
X150979523Y-108027200D01*
X150979523Y-108027200D02*
X150836666Y-108074819D01*
X150836666Y-108074819D02*
X150741428Y-108074819D01*
X150741428Y-108074819D02*
X150598571Y-108027200D01*
X150598571Y-108027200D02*
X150503333Y-107931961D01*
X150503333Y-107931961D02*
X150455714Y-107836723D01*
X150455714Y-107836723D02*
X150408095Y-107646247D01*
X150408095Y-107646247D02*
X150408095Y-107503390D01*
X150408095Y-107503390D02*
X150455714Y-107312914D01*
X150455714Y-107312914D02*
X150503333Y-107217676D01*
X150503333Y-107217676D02*
X150598571Y-107122438D01*
X150598571Y-107122438D02*
X150741428Y-107074819D01*
X150741428Y-107074819D02*
X150836666Y-107074819D01*
X150836666Y-107074819D02*
X150979523Y-107122438D01*
X150979523Y-107122438D02*
X151027142Y-107170057D01*
X151408095Y-107170057D02*
X151455714Y-107122438D01*
X151455714Y-107122438D02*
X151550952Y-107074819D01*
X151550952Y-107074819D02*
X151789047Y-107074819D01*
X151789047Y-107074819D02*
X151884285Y-107122438D01*
X151884285Y-107122438D02*
X151931904Y-107170057D01*
X151931904Y-107170057D02*
X151979523Y-107265295D01*
X151979523Y-107265295D02*
X151979523Y-107360533D01*
X151979523Y-107360533D02*
X151931904Y-107503390D01*
X151931904Y-107503390D02*
X151360476Y-108074819D01*
X151360476Y-108074819D02*
X151979523Y-108074819D01*
X152455714Y-108074819D02*
X152646190Y-108074819D01*
X152646190Y-108074819D02*
X152741428Y-108027200D01*
X152741428Y-108027200D02*
X152789047Y-107979580D01*
X152789047Y-107979580D02*
X152884285Y-107836723D01*
X152884285Y-107836723D02*
X152931904Y-107646247D01*
X152931904Y-107646247D02*
X152931904Y-107265295D01*
X152931904Y-107265295D02*
X152884285Y-107170057D01*
X152884285Y-107170057D02*
X152836666Y-107122438D01*
X152836666Y-107122438D02*
X152741428Y-107074819D01*
X152741428Y-107074819D02*
X152550952Y-107074819D01*
X152550952Y-107074819D02*
X152455714Y-107122438D01*
X152455714Y-107122438D02*
X152408095Y-107170057D01*
X152408095Y-107170057D02*
X152360476Y-107265295D01*
X152360476Y-107265295D02*
X152360476Y-107503390D01*
X152360476Y-107503390D02*
X152408095Y-107598628D01*
X152408095Y-107598628D02*
X152455714Y-107646247D01*
X152455714Y-107646247D02*
X152550952Y-107693866D01*
X152550952Y-107693866D02*
X152741428Y-107693866D01*
X152741428Y-107693866D02*
X152836666Y-107646247D01*
X152836666Y-107646247D02*
X152884285Y-107598628D01*
X152884285Y-107598628D02*
X152931904Y-107503390D01*
X151020951Y-109524819D02*
X150449523Y-109524819D01*
X150735237Y-109524819D02*
X150735237Y-108524819D01*
X150735237Y-108524819D02*
X150639999Y-108667676D01*
X150639999Y-108667676D02*
X150544761Y-108762914D01*
X150544761Y-108762914D02*
X150449523Y-108810533D01*
X151639999Y-108524819D02*
X151735237Y-108524819D01*
X151735237Y-108524819D02*
X151830475Y-108572438D01*
X151830475Y-108572438D02*
X151878094Y-108620057D01*
X151878094Y-108620057D02*
X151925713Y-108715295D01*
X151925713Y-108715295D02*
X151973332Y-108905771D01*
X151973332Y-108905771D02*
X151973332Y-109143866D01*
X151973332Y-109143866D02*
X151925713Y-109334342D01*
X151925713Y-109334342D02*
X151878094Y-109429580D01*
X151878094Y-109429580D02*
X151830475Y-109477200D01*
X151830475Y-109477200D02*
X151735237Y-109524819D01*
X151735237Y-109524819D02*
X151639999Y-109524819D01*
X151639999Y-109524819D02*
X151544761Y-109477200D01*
X151544761Y-109477200D02*
X151497142Y-109429580D01*
X151497142Y-109429580D02*
X151449523Y-109334342D01*
X151449523Y-109334342D02*
X151401904Y-109143866D01*
X151401904Y-109143866D02*
X151401904Y-108905771D01*
X151401904Y-108905771D02*
X151449523Y-108715295D01*
X151449523Y-108715295D02*
X151497142Y-108620057D01*
X151497142Y-108620057D02*
X151544761Y-108572438D01*
X151544761Y-108572438D02*
X151639999Y-108524819D01*
X152830475Y-108858152D02*
X152830475Y-109524819D01*
X152401904Y-108858152D02*
X152401904Y-109381961D01*
X152401904Y-109381961D02*
X152449523Y-109477200D01*
X152449523Y-109477200D02*
X152544761Y-109524819D01*
X152544761Y-109524819D02*
X152687618Y-109524819D01*
X152687618Y-109524819D02*
X152782856Y-109477200D01*
X152782856Y-109477200D02*
X152830475Y-109429580D01*
X153925714Y-108524819D02*
X154497142Y-108524819D01*
X154211428Y-109524819D02*
X154211428Y-108524819D01*
X155259047Y-109524819D02*
X155259047Y-109001009D01*
X155259047Y-109001009D02*
X155211428Y-108905771D01*
X155211428Y-108905771D02*
X155116190Y-108858152D01*
X155116190Y-108858152D02*
X154925714Y-108858152D01*
X154925714Y-108858152D02*
X154830476Y-108905771D01*
X155259047Y-109477200D02*
X155163809Y-109524819D01*
X155163809Y-109524819D02*
X154925714Y-109524819D01*
X154925714Y-109524819D02*
X154830476Y-109477200D01*
X154830476Y-109477200D02*
X154782857Y-109381961D01*
X154782857Y-109381961D02*
X154782857Y-109286723D01*
X154782857Y-109286723D02*
X154830476Y-109191485D01*
X154830476Y-109191485D02*
X154925714Y-109143866D01*
X154925714Y-109143866D02*
X155163809Y-109143866D01*
X155163809Y-109143866D02*
X155259047Y-109096247D01*
X155878095Y-109524819D02*
X155782857Y-109477200D01*
X155782857Y-109477200D02*
X155735238Y-109381961D01*
X155735238Y-109381961D02*
X155735238Y-108524819D01*
X127977142Y-72214819D02*
X127643809Y-71738628D01*
X127405714Y-72214819D02*
X127405714Y-71214819D01*
X127405714Y-71214819D02*
X127786666Y-71214819D01*
X127786666Y-71214819D02*
X127881904Y-71262438D01*
X127881904Y-71262438D02*
X127929523Y-71310057D01*
X127929523Y-71310057D02*
X127977142Y-71405295D01*
X127977142Y-71405295D02*
X127977142Y-71548152D01*
X127977142Y-71548152D02*
X127929523Y-71643390D01*
X127929523Y-71643390D02*
X127881904Y-71691009D01*
X127881904Y-71691009D02*
X127786666Y-71738628D01*
X127786666Y-71738628D02*
X127405714Y-71738628D01*
X128310476Y-71214819D02*
X128929523Y-71214819D01*
X128929523Y-71214819D02*
X128596190Y-71595771D01*
X128596190Y-71595771D02*
X128739047Y-71595771D01*
X128739047Y-71595771D02*
X128834285Y-71643390D01*
X128834285Y-71643390D02*
X128881904Y-71691009D01*
X128881904Y-71691009D02*
X128929523Y-71786247D01*
X128929523Y-71786247D02*
X128929523Y-72024342D01*
X128929523Y-72024342D02*
X128881904Y-72119580D01*
X128881904Y-72119580D02*
X128834285Y-72167200D01*
X128834285Y-72167200D02*
X128739047Y-72214819D01*
X128739047Y-72214819D02*
X128453333Y-72214819D01*
X128453333Y-72214819D02*
X128358095Y-72167200D01*
X128358095Y-72167200D02*
X128310476Y-72119580D01*
X129786666Y-71548152D02*
X129786666Y-72214819D01*
X129548571Y-71167200D02*
X129310476Y-71881485D01*
X129310476Y-71881485D02*
X129929523Y-71881485D01*
X130938571Y-72174819D02*
X130367143Y-72174819D01*
X130652857Y-72174819D02*
X130652857Y-71174819D01*
X130652857Y-71174819D02*
X130557619Y-71317676D01*
X130557619Y-71317676D02*
X130462381Y-71412914D01*
X130462381Y-71412914D02*
X130367143Y-71460533D01*
X131557619Y-71174819D02*
X131652857Y-71174819D01*
X131652857Y-71174819D02*
X131748095Y-71222438D01*
X131748095Y-71222438D02*
X131795714Y-71270057D01*
X131795714Y-71270057D02*
X131843333Y-71365295D01*
X131843333Y-71365295D02*
X131890952Y-71555771D01*
X131890952Y-71555771D02*
X131890952Y-71793866D01*
X131890952Y-71793866D02*
X131843333Y-71984342D01*
X131843333Y-71984342D02*
X131795714Y-72079580D01*
X131795714Y-72079580D02*
X131748095Y-72127200D01*
X131748095Y-72127200D02*
X131652857Y-72174819D01*
X131652857Y-72174819D02*
X131557619Y-72174819D01*
X131557619Y-72174819D02*
X131462381Y-72127200D01*
X131462381Y-72127200D02*
X131414762Y-72079580D01*
X131414762Y-72079580D02*
X131367143Y-71984342D01*
X131367143Y-71984342D02*
X131319524Y-71793866D01*
X131319524Y-71793866D02*
X131319524Y-71555771D01*
X131319524Y-71555771D02*
X131367143Y-71365295D01*
X131367143Y-71365295D02*
X131414762Y-71270057D01*
X131414762Y-71270057D02*
X131462381Y-71222438D01*
X131462381Y-71222438D02*
X131557619Y-71174819D01*
X132510000Y-71174819D02*
X132605238Y-71174819D01*
X132605238Y-71174819D02*
X132700476Y-71222438D01*
X132700476Y-71222438D02*
X132748095Y-71270057D01*
X132748095Y-71270057D02*
X132795714Y-71365295D01*
X132795714Y-71365295D02*
X132843333Y-71555771D01*
X132843333Y-71555771D02*
X132843333Y-71793866D01*
X132843333Y-71793866D02*
X132795714Y-71984342D01*
X132795714Y-71984342D02*
X132748095Y-72079580D01*
X132748095Y-72079580D02*
X132700476Y-72127200D01*
X132700476Y-72127200D02*
X132605238Y-72174819D01*
X132605238Y-72174819D02*
X132510000Y-72174819D01*
X132510000Y-72174819D02*
X132414762Y-72127200D01*
X132414762Y-72127200D02*
X132367143Y-72079580D01*
X132367143Y-72079580D02*
X132319524Y-71984342D01*
X132319524Y-71984342D02*
X132271905Y-71793866D01*
X132271905Y-71793866D02*
X132271905Y-71555771D01*
X132271905Y-71555771D02*
X132319524Y-71365295D01*
X132319524Y-71365295D02*
X132367143Y-71270057D01*
X132367143Y-71270057D02*
X132414762Y-71222438D01*
X132414762Y-71222438D02*
X132510000Y-71174819D01*
X133271905Y-72174819D02*
X133271905Y-71174819D01*
X133367143Y-71793866D02*
X133652857Y-72174819D01*
X133652857Y-71508152D02*
X133271905Y-71889104D01*
X163927142Y-98429580D02*
X163879523Y-98477200D01*
X163879523Y-98477200D02*
X163736666Y-98524819D01*
X163736666Y-98524819D02*
X163641428Y-98524819D01*
X163641428Y-98524819D02*
X163498571Y-98477200D01*
X163498571Y-98477200D02*
X163403333Y-98381961D01*
X163403333Y-98381961D02*
X163355714Y-98286723D01*
X163355714Y-98286723D02*
X163308095Y-98096247D01*
X163308095Y-98096247D02*
X163308095Y-97953390D01*
X163308095Y-97953390D02*
X163355714Y-97762914D01*
X163355714Y-97762914D02*
X163403333Y-97667676D01*
X163403333Y-97667676D02*
X163498571Y-97572438D01*
X163498571Y-97572438D02*
X163641428Y-97524819D01*
X163641428Y-97524819D02*
X163736666Y-97524819D01*
X163736666Y-97524819D02*
X163879523Y-97572438D01*
X163879523Y-97572438D02*
X163927142Y-97620057D01*
X164784285Y-97858152D02*
X164784285Y-98524819D01*
X164546190Y-97477200D02*
X164308095Y-98191485D01*
X164308095Y-98191485D02*
X164927142Y-98191485D01*
X165831904Y-98524819D02*
X165260476Y-98524819D01*
X165546190Y-98524819D02*
X165546190Y-97524819D01*
X165546190Y-97524819D02*
X165450952Y-97667676D01*
X165450952Y-97667676D02*
X165355714Y-97762914D01*
X165355714Y-97762914D02*
X165260476Y-97810533D01*
X164026189Y-100344819D02*
X163454761Y-100344819D01*
X163740475Y-100344819D02*
X163740475Y-99344819D01*
X163740475Y-99344819D02*
X163645237Y-99487676D01*
X163645237Y-99487676D02*
X163549999Y-99582914D01*
X163549999Y-99582914D02*
X163454761Y-99630533D01*
X164645237Y-99344819D02*
X164740475Y-99344819D01*
X164740475Y-99344819D02*
X164835713Y-99392438D01*
X164835713Y-99392438D02*
X164883332Y-99440057D01*
X164883332Y-99440057D02*
X164930951Y-99535295D01*
X164930951Y-99535295D02*
X164978570Y-99725771D01*
X164978570Y-99725771D02*
X164978570Y-99963866D01*
X164978570Y-99963866D02*
X164930951Y-100154342D01*
X164930951Y-100154342D02*
X164883332Y-100249580D01*
X164883332Y-100249580D02*
X164835713Y-100297200D01*
X164835713Y-100297200D02*
X164740475Y-100344819D01*
X164740475Y-100344819D02*
X164645237Y-100344819D01*
X164645237Y-100344819D02*
X164549999Y-100297200D01*
X164549999Y-100297200D02*
X164502380Y-100249580D01*
X164502380Y-100249580D02*
X164454761Y-100154342D01*
X164454761Y-100154342D02*
X164407142Y-99963866D01*
X164407142Y-99963866D02*
X164407142Y-99725771D01*
X164407142Y-99725771D02*
X164454761Y-99535295D01*
X164454761Y-99535295D02*
X164502380Y-99440057D01*
X164502380Y-99440057D02*
X164549999Y-99392438D01*
X164549999Y-99392438D02*
X164645237Y-99344819D01*
X165835713Y-99678152D02*
X165835713Y-100344819D01*
X165407142Y-99678152D02*
X165407142Y-100201961D01*
X165407142Y-100201961D02*
X165454761Y-100297200D01*
X165454761Y-100297200D02*
X165549999Y-100344819D01*
X165549999Y-100344819D02*
X165692856Y-100344819D01*
X165692856Y-100344819D02*
X165788094Y-100297200D01*
X165788094Y-100297200D02*
X165835713Y-100249580D01*
X166930952Y-99678152D02*
X167311904Y-99678152D01*
X167073809Y-99344819D02*
X167073809Y-100201961D01*
X167073809Y-100201961D02*
X167121428Y-100297200D01*
X167121428Y-100297200D02*
X167216666Y-100344819D01*
X167216666Y-100344819D02*
X167311904Y-100344819D01*
X168073809Y-100344819D02*
X168073809Y-99821009D01*
X168073809Y-99821009D02*
X168026190Y-99725771D01*
X168026190Y-99725771D02*
X167930952Y-99678152D01*
X167930952Y-99678152D02*
X167740476Y-99678152D01*
X167740476Y-99678152D02*
X167645238Y-99725771D01*
X168073809Y-100297200D02*
X167978571Y-100344819D01*
X167978571Y-100344819D02*
X167740476Y-100344819D01*
X167740476Y-100344819D02*
X167645238Y-100297200D01*
X167645238Y-100297200D02*
X167597619Y-100201961D01*
X167597619Y-100201961D02*
X167597619Y-100106723D01*
X167597619Y-100106723D02*
X167645238Y-100011485D01*
X167645238Y-100011485D02*
X167740476Y-99963866D01*
X167740476Y-99963866D02*
X167978571Y-99963866D01*
X167978571Y-99963866D02*
X168073809Y-99916247D01*
X168692857Y-100344819D02*
X168597619Y-100297200D01*
X168597619Y-100297200D02*
X168550000Y-100201961D01*
X168550000Y-100201961D02*
X168550000Y-99344819D01*
X170903333Y-47764819D02*
X170570000Y-47288628D01*
X170331905Y-47764819D02*
X170331905Y-46764819D01*
X170331905Y-46764819D02*
X170712857Y-46764819D01*
X170712857Y-46764819D02*
X170808095Y-46812438D01*
X170808095Y-46812438D02*
X170855714Y-46860057D01*
X170855714Y-46860057D02*
X170903333Y-46955295D01*
X170903333Y-46955295D02*
X170903333Y-47098152D01*
X170903333Y-47098152D02*
X170855714Y-47193390D01*
X170855714Y-47193390D02*
X170808095Y-47241009D01*
X170808095Y-47241009D02*
X170712857Y-47288628D01*
X170712857Y-47288628D02*
X170331905Y-47288628D01*
X171808095Y-46764819D02*
X171331905Y-46764819D01*
X171331905Y-46764819D02*
X171284286Y-47241009D01*
X171284286Y-47241009D02*
X171331905Y-47193390D01*
X171331905Y-47193390D02*
X171427143Y-47145771D01*
X171427143Y-47145771D02*
X171665238Y-47145771D01*
X171665238Y-47145771D02*
X171760476Y-47193390D01*
X171760476Y-47193390D02*
X171808095Y-47241009D01*
X171808095Y-47241009D02*
X171855714Y-47336247D01*
X171855714Y-47336247D02*
X171855714Y-47574342D01*
X171855714Y-47574342D02*
X171808095Y-47669580D01*
X171808095Y-47669580D02*
X171760476Y-47717200D01*
X171760476Y-47717200D02*
X171665238Y-47764819D01*
X171665238Y-47764819D02*
X171427143Y-47764819D01*
X171427143Y-47764819D02*
X171331905Y-47717200D01*
X171331905Y-47717200D02*
X171284286Y-47669580D01*
X172717143Y-46860057D02*
X172764762Y-46812438D01*
X172764762Y-46812438D02*
X172860000Y-46764819D01*
X172860000Y-46764819D02*
X173098095Y-46764819D01*
X173098095Y-46764819D02*
X173193333Y-46812438D01*
X173193333Y-46812438D02*
X173240952Y-46860057D01*
X173240952Y-46860057D02*
X173288571Y-46955295D01*
X173288571Y-46955295D02*
X173288571Y-47050533D01*
X173288571Y-47050533D02*
X173240952Y-47193390D01*
X173240952Y-47193390D02*
X172669524Y-47764819D01*
X172669524Y-47764819D02*
X173288571Y-47764819D01*
X173669524Y-46860057D02*
X173717143Y-46812438D01*
X173717143Y-46812438D02*
X173812381Y-46764819D01*
X173812381Y-46764819D02*
X174050476Y-46764819D01*
X174050476Y-46764819D02*
X174145714Y-46812438D01*
X174145714Y-46812438D02*
X174193333Y-46860057D01*
X174193333Y-46860057D02*
X174240952Y-46955295D01*
X174240952Y-46955295D02*
X174240952Y-47050533D01*
X174240952Y-47050533D02*
X174193333Y-47193390D01*
X174193333Y-47193390D02*
X173621905Y-47764819D01*
X173621905Y-47764819D02*
X174240952Y-47764819D01*
X174860000Y-46764819D02*
X174955238Y-46764819D01*
X174955238Y-46764819D02*
X175050476Y-46812438D01*
X175050476Y-46812438D02*
X175098095Y-46860057D01*
X175098095Y-46860057D02*
X175145714Y-46955295D01*
X175145714Y-46955295D02*
X175193333Y-47145771D01*
X175193333Y-47145771D02*
X175193333Y-47383866D01*
X175193333Y-47383866D02*
X175145714Y-47574342D01*
X175145714Y-47574342D02*
X175098095Y-47669580D01*
X175098095Y-47669580D02*
X175050476Y-47717200D01*
X175050476Y-47717200D02*
X174955238Y-47764819D01*
X174955238Y-47764819D02*
X174860000Y-47764819D01*
X174860000Y-47764819D02*
X174764762Y-47717200D01*
X174764762Y-47717200D02*
X174717143Y-47669580D01*
X174717143Y-47669580D02*
X174669524Y-47574342D01*
X174669524Y-47574342D02*
X174621905Y-47383866D01*
X174621905Y-47383866D02*
X174621905Y-47145771D01*
X174621905Y-47145771D02*
X174669524Y-46955295D01*
X174669524Y-46955295D02*
X174717143Y-46860057D01*
X174717143Y-46860057D02*
X174764762Y-46812438D01*
X174764762Y-46812438D02*
X174860000Y-46764819D01*
X175621905Y-47764819D02*
X175621905Y-46764819D01*
X175717143Y-47383866D02*
X176002857Y-47764819D01*
X176002857Y-47098152D02*
X175621905Y-47479104D01*
X199277142Y-52149580D02*
X199229523Y-52197200D01*
X199229523Y-52197200D02*
X199086666Y-52244819D01*
X199086666Y-52244819D02*
X198991428Y-52244819D01*
X198991428Y-52244819D02*
X198848571Y-52197200D01*
X198848571Y-52197200D02*
X198753333Y-52101961D01*
X198753333Y-52101961D02*
X198705714Y-52006723D01*
X198705714Y-52006723D02*
X198658095Y-51816247D01*
X198658095Y-51816247D02*
X198658095Y-51673390D01*
X198658095Y-51673390D02*
X198705714Y-51482914D01*
X198705714Y-51482914D02*
X198753333Y-51387676D01*
X198753333Y-51387676D02*
X198848571Y-51292438D01*
X198848571Y-51292438D02*
X198991428Y-51244819D01*
X198991428Y-51244819D02*
X199086666Y-51244819D01*
X199086666Y-51244819D02*
X199229523Y-51292438D01*
X199229523Y-51292438D02*
X199277142Y-51340057D01*
X200229523Y-52244819D02*
X199658095Y-52244819D01*
X199943809Y-52244819D02*
X199943809Y-51244819D01*
X199943809Y-51244819D02*
X199848571Y-51387676D01*
X199848571Y-51387676D02*
X199753333Y-51482914D01*
X199753333Y-51482914D02*
X199658095Y-51530533D01*
X201181904Y-52244819D02*
X200610476Y-52244819D01*
X200896190Y-52244819D02*
X200896190Y-51244819D01*
X200896190Y-51244819D02*
X200800952Y-51387676D01*
X200800952Y-51387676D02*
X200705714Y-51482914D01*
X200705714Y-51482914D02*
X200610476Y-51530533D01*
X199310952Y-53614819D02*
X198739524Y-53614819D01*
X199025238Y-53614819D02*
X199025238Y-52614819D01*
X199025238Y-52614819D02*
X198930000Y-52757676D01*
X198930000Y-52757676D02*
X198834762Y-52852914D01*
X198834762Y-52852914D02*
X198739524Y-52900533D01*
X199930000Y-52614819D02*
X200025238Y-52614819D01*
X200025238Y-52614819D02*
X200120476Y-52662438D01*
X200120476Y-52662438D02*
X200168095Y-52710057D01*
X200168095Y-52710057D02*
X200215714Y-52805295D01*
X200215714Y-52805295D02*
X200263333Y-52995771D01*
X200263333Y-52995771D02*
X200263333Y-53233866D01*
X200263333Y-53233866D02*
X200215714Y-53424342D01*
X200215714Y-53424342D02*
X200168095Y-53519580D01*
X200168095Y-53519580D02*
X200120476Y-53567200D01*
X200120476Y-53567200D02*
X200025238Y-53614819D01*
X200025238Y-53614819D02*
X199930000Y-53614819D01*
X199930000Y-53614819D02*
X199834762Y-53567200D01*
X199834762Y-53567200D02*
X199787143Y-53519580D01*
X199787143Y-53519580D02*
X199739524Y-53424342D01*
X199739524Y-53424342D02*
X199691905Y-53233866D01*
X199691905Y-53233866D02*
X199691905Y-52995771D01*
X199691905Y-52995771D02*
X199739524Y-52805295D01*
X199739524Y-52805295D02*
X199787143Y-52710057D01*
X199787143Y-52710057D02*
X199834762Y-52662438D01*
X199834762Y-52662438D02*
X199930000Y-52614819D01*
X200882381Y-52614819D02*
X200977619Y-52614819D01*
X200977619Y-52614819D02*
X201072857Y-52662438D01*
X201072857Y-52662438D02*
X201120476Y-52710057D01*
X201120476Y-52710057D02*
X201168095Y-52805295D01*
X201168095Y-52805295D02*
X201215714Y-52995771D01*
X201215714Y-52995771D02*
X201215714Y-53233866D01*
X201215714Y-53233866D02*
X201168095Y-53424342D01*
X201168095Y-53424342D02*
X201120476Y-53519580D01*
X201120476Y-53519580D02*
X201072857Y-53567200D01*
X201072857Y-53567200D02*
X200977619Y-53614819D01*
X200977619Y-53614819D02*
X200882381Y-53614819D01*
X200882381Y-53614819D02*
X200787143Y-53567200D01*
X200787143Y-53567200D02*
X200739524Y-53519580D01*
X200739524Y-53519580D02*
X200691905Y-53424342D01*
X200691905Y-53424342D02*
X200644286Y-53233866D01*
X200644286Y-53233866D02*
X200644286Y-52995771D01*
X200644286Y-52995771D02*
X200691905Y-52805295D01*
X200691905Y-52805295D02*
X200739524Y-52710057D01*
X200739524Y-52710057D02*
X200787143Y-52662438D01*
X200787143Y-52662438D02*
X200882381Y-52614819D01*
X201644286Y-52948152D02*
X201644286Y-53948152D01*
X201644286Y-52995771D02*
X201739524Y-52948152D01*
X201739524Y-52948152D02*
X201930000Y-52948152D01*
X201930000Y-52948152D02*
X202025238Y-52995771D01*
X202025238Y-52995771D02*
X202072857Y-53043390D01*
X202072857Y-53043390D02*
X202120476Y-53138628D01*
X202120476Y-53138628D02*
X202120476Y-53424342D01*
X202120476Y-53424342D02*
X202072857Y-53519580D01*
X202072857Y-53519580D02*
X202025238Y-53567200D01*
X202025238Y-53567200D02*
X201930000Y-53614819D01*
X201930000Y-53614819D02*
X201739524Y-53614819D01*
X201739524Y-53614819D02*
X201644286Y-53567200D01*
D11*
X182727419Y-77195238D02*
X182251228Y-77528571D01*
X182727419Y-77766666D02*
X181727419Y-77766666D01*
X181727419Y-77766666D02*
X181727419Y-77385714D01*
X181727419Y-77385714D02*
X181775038Y-77290476D01*
X181775038Y-77290476D02*
X181822657Y-77242857D01*
X181822657Y-77242857D02*
X181917895Y-77195238D01*
X181917895Y-77195238D02*
X182060752Y-77195238D01*
X182060752Y-77195238D02*
X182155990Y-77242857D01*
X182155990Y-77242857D02*
X182203609Y-77290476D01*
X182203609Y-77290476D02*
X182251228Y-77385714D01*
X182251228Y-77385714D02*
X182251228Y-77766666D01*
X181727419Y-76909523D02*
X182727419Y-76576190D01*
X182727419Y-76576190D02*
X181727419Y-76242857D01*
X182727419Y-75385714D02*
X182727419Y-75957142D01*
X182727419Y-75671428D02*
X181727419Y-75671428D01*
X181727419Y-75671428D02*
X181870276Y-75766666D01*
X181870276Y-75766666D02*
X181965514Y-75861904D01*
X181965514Y-75861904D02*
X182013133Y-75957142D01*
D13*
X182744819Y-73815238D02*
X182744819Y-74386666D01*
X182744819Y-74100952D02*
X181744819Y-74100952D01*
X181744819Y-74100952D02*
X181887676Y-74196190D01*
X181887676Y-74196190D02*
X181982914Y-74291428D01*
X181982914Y-74291428D02*
X182030533Y-74386666D01*
X181744819Y-73196190D02*
X181744819Y-73100952D01*
X181744819Y-73100952D02*
X181792438Y-73005714D01*
X181792438Y-73005714D02*
X181840057Y-72958095D01*
X181840057Y-72958095D02*
X181935295Y-72910476D01*
X181935295Y-72910476D02*
X182125771Y-72862857D01*
X182125771Y-72862857D02*
X182363866Y-72862857D01*
X182363866Y-72862857D02*
X182554342Y-72910476D01*
X182554342Y-72910476D02*
X182649580Y-72958095D01*
X182649580Y-72958095D02*
X182697200Y-73005714D01*
X182697200Y-73005714D02*
X182744819Y-73100952D01*
X182744819Y-73100952D02*
X182744819Y-73196190D01*
X182744819Y-73196190D02*
X182697200Y-73291428D01*
X182697200Y-73291428D02*
X182649580Y-73339047D01*
X182649580Y-73339047D02*
X182554342Y-73386666D01*
X182554342Y-73386666D02*
X182363866Y-73434285D01*
X182363866Y-73434285D02*
X182125771Y-73434285D01*
X182125771Y-73434285D02*
X181935295Y-73386666D01*
X181935295Y-73386666D02*
X181840057Y-73339047D01*
X181840057Y-73339047D02*
X181792438Y-73291428D01*
X181792438Y-73291428D02*
X181744819Y-73196190D01*
X182744819Y-72434285D02*
X181744819Y-72434285D01*
X182363866Y-72339047D02*
X182744819Y-72053333D01*
X182078152Y-72053333D02*
X182459104Y-72434285D01*
X171637142Y-78104819D02*
X171303809Y-77628628D01*
X171065714Y-78104819D02*
X171065714Y-77104819D01*
X171065714Y-77104819D02*
X171446666Y-77104819D01*
X171446666Y-77104819D02*
X171541904Y-77152438D01*
X171541904Y-77152438D02*
X171589523Y-77200057D01*
X171589523Y-77200057D02*
X171637142Y-77295295D01*
X171637142Y-77295295D02*
X171637142Y-77438152D01*
X171637142Y-77438152D02*
X171589523Y-77533390D01*
X171589523Y-77533390D02*
X171541904Y-77581009D01*
X171541904Y-77581009D02*
X171446666Y-77628628D01*
X171446666Y-77628628D02*
X171065714Y-77628628D01*
X172494285Y-77438152D02*
X172494285Y-78104819D01*
X172256190Y-77057200D02*
X172018095Y-77771485D01*
X172018095Y-77771485D02*
X172637142Y-77771485D01*
X172970476Y-77200057D02*
X173018095Y-77152438D01*
X173018095Y-77152438D02*
X173113333Y-77104819D01*
X173113333Y-77104819D02*
X173351428Y-77104819D01*
X173351428Y-77104819D02*
X173446666Y-77152438D01*
X173446666Y-77152438D02*
X173494285Y-77200057D01*
X173494285Y-77200057D02*
X173541904Y-77295295D01*
X173541904Y-77295295D02*
X173541904Y-77390533D01*
X173541904Y-77390533D02*
X173494285Y-77533390D01*
X173494285Y-77533390D02*
X172922857Y-78104819D01*
X172922857Y-78104819D02*
X173541904Y-78104819D01*
X175504761Y-78224819D02*
X174933333Y-78224819D01*
X175219047Y-78224819D02*
X175219047Y-77224819D01*
X175219047Y-77224819D02*
X175123809Y-77367676D01*
X175123809Y-77367676D02*
X175028571Y-77462914D01*
X175028571Y-77462914D02*
X174933333Y-77510533D01*
X176123809Y-77224819D02*
X176219047Y-77224819D01*
X176219047Y-77224819D02*
X176314285Y-77272438D01*
X176314285Y-77272438D02*
X176361904Y-77320057D01*
X176361904Y-77320057D02*
X176409523Y-77415295D01*
X176409523Y-77415295D02*
X176457142Y-77605771D01*
X176457142Y-77605771D02*
X176457142Y-77843866D01*
X176457142Y-77843866D02*
X176409523Y-78034342D01*
X176409523Y-78034342D02*
X176361904Y-78129580D01*
X176361904Y-78129580D02*
X176314285Y-78177200D01*
X176314285Y-78177200D02*
X176219047Y-78224819D01*
X176219047Y-78224819D02*
X176123809Y-78224819D01*
X176123809Y-78224819D02*
X176028571Y-78177200D01*
X176028571Y-78177200D02*
X175980952Y-78129580D01*
X175980952Y-78129580D02*
X175933333Y-78034342D01*
X175933333Y-78034342D02*
X175885714Y-77843866D01*
X175885714Y-77843866D02*
X175885714Y-77605771D01*
X175885714Y-77605771D02*
X175933333Y-77415295D01*
X175933333Y-77415295D02*
X175980952Y-77320057D01*
X175980952Y-77320057D02*
X176028571Y-77272438D01*
X176028571Y-77272438D02*
X176123809Y-77224819D01*
X176885714Y-78224819D02*
X176885714Y-77224819D01*
X176980952Y-77843866D02*
X177266666Y-78224819D01*
X177266666Y-77558152D02*
X176885714Y-77939104D01*
X199027142Y-58314819D02*
X198693809Y-57838628D01*
X198455714Y-58314819D02*
X198455714Y-57314819D01*
X198455714Y-57314819D02*
X198836666Y-57314819D01*
X198836666Y-57314819D02*
X198931904Y-57362438D01*
X198931904Y-57362438D02*
X198979523Y-57410057D01*
X198979523Y-57410057D02*
X199027142Y-57505295D01*
X199027142Y-57505295D02*
X199027142Y-57648152D01*
X199027142Y-57648152D02*
X198979523Y-57743390D01*
X198979523Y-57743390D02*
X198931904Y-57791009D01*
X198931904Y-57791009D02*
X198836666Y-57838628D01*
X198836666Y-57838628D02*
X198455714Y-57838628D01*
X199979523Y-58314819D02*
X199408095Y-58314819D01*
X199693809Y-58314819D02*
X199693809Y-57314819D01*
X199693809Y-57314819D02*
X199598571Y-57457676D01*
X199598571Y-57457676D02*
X199503333Y-57552914D01*
X199503333Y-57552914D02*
X199408095Y-57600533D01*
X200598571Y-57314819D02*
X200693809Y-57314819D01*
X200693809Y-57314819D02*
X200789047Y-57362438D01*
X200789047Y-57362438D02*
X200836666Y-57410057D01*
X200836666Y-57410057D02*
X200884285Y-57505295D01*
X200884285Y-57505295D02*
X200931904Y-57695771D01*
X200931904Y-57695771D02*
X200931904Y-57933866D01*
X200931904Y-57933866D02*
X200884285Y-58124342D01*
X200884285Y-58124342D02*
X200836666Y-58219580D01*
X200836666Y-58219580D02*
X200789047Y-58267200D01*
X200789047Y-58267200D02*
X200693809Y-58314819D01*
X200693809Y-58314819D02*
X200598571Y-58314819D01*
X200598571Y-58314819D02*
X200503333Y-58267200D01*
X200503333Y-58267200D02*
X200455714Y-58219580D01*
X200455714Y-58219580D02*
X200408095Y-58124342D01*
X200408095Y-58124342D02*
X200360476Y-57933866D01*
X200360476Y-57933866D02*
X200360476Y-57695771D01*
X200360476Y-57695771D02*
X200408095Y-57505295D01*
X200408095Y-57505295D02*
X200455714Y-57410057D01*
X200455714Y-57410057D02*
X200503333Y-57362438D01*
X200503333Y-57362438D02*
X200598571Y-57314819D01*
X198974761Y-59874819D02*
X198403333Y-59874819D01*
X198689047Y-59874819D02*
X198689047Y-58874819D01*
X198689047Y-58874819D02*
X198593809Y-59017676D01*
X198593809Y-59017676D02*
X198498571Y-59112914D01*
X198498571Y-59112914D02*
X198403333Y-59160533D01*
X199593809Y-58874819D02*
X199689047Y-58874819D01*
X199689047Y-58874819D02*
X199784285Y-58922438D01*
X199784285Y-58922438D02*
X199831904Y-58970057D01*
X199831904Y-58970057D02*
X199879523Y-59065295D01*
X199879523Y-59065295D02*
X199927142Y-59255771D01*
X199927142Y-59255771D02*
X199927142Y-59493866D01*
X199927142Y-59493866D02*
X199879523Y-59684342D01*
X199879523Y-59684342D02*
X199831904Y-59779580D01*
X199831904Y-59779580D02*
X199784285Y-59827200D01*
X199784285Y-59827200D02*
X199689047Y-59874819D01*
X199689047Y-59874819D02*
X199593809Y-59874819D01*
X199593809Y-59874819D02*
X199498571Y-59827200D01*
X199498571Y-59827200D02*
X199450952Y-59779580D01*
X199450952Y-59779580D02*
X199403333Y-59684342D01*
X199403333Y-59684342D02*
X199355714Y-59493866D01*
X199355714Y-59493866D02*
X199355714Y-59255771D01*
X199355714Y-59255771D02*
X199403333Y-59065295D01*
X199403333Y-59065295D02*
X199450952Y-58970057D01*
X199450952Y-58970057D02*
X199498571Y-58922438D01*
X199498571Y-58922438D02*
X199593809Y-58874819D01*
X200355714Y-59874819D02*
X200355714Y-58874819D01*
X200450952Y-59493866D02*
X200736666Y-59874819D01*
X200736666Y-59208152D02*
X200355714Y-59589104D01*
X169236666Y-130781009D02*
X168903333Y-130781009D01*
X168903333Y-131304819D02*
X168903333Y-130304819D01*
X168903333Y-130304819D02*
X169379523Y-130304819D01*
X170093809Y-130781009D02*
X170236666Y-130828628D01*
X170236666Y-130828628D02*
X170284285Y-130876247D01*
X170284285Y-130876247D02*
X170331904Y-130971485D01*
X170331904Y-130971485D02*
X170331904Y-131114342D01*
X170331904Y-131114342D02*
X170284285Y-131209580D01*
X170284285Y-131209580D02*
X170236666Y-131257200D01*
X170236666Y-131257200D02*
X170141428Y-131304819D01*
X170141428Y-131304819D02*
X169760476Y-131304819D01*
X169760476Y-131304819D02*
X169760476Y-130304819D01*
X169760476Y-130304819D02*
X170093809Y-130304819D01*
X170093809Y-130304819D02*
X170189047Y-130352438D01*
X170189047Y-130352438D02*
X170236666Y-130400057D01*
X170236666Y-130400057D02*
X170284285Y-130495295D01*
X170284285Y-130495295D02*
X170284285Y-130590533D01*
X170284285Y-130590533D02*
X170236666Y-130685771D01*
X170236666Y-130685771D02*
X170189047Y-130733390D01*
X170189047Y-130733390D02*
X170093809Y-130781009D01*
X170093809Y-130781009D02*
X169760476Y-130781009D01*
X171284285Y-131304819D02*
X170712857Y-131304819D01*
X170998571Y-131304819D02*
X170998571Y-130304819D01*
X170998571Y-130304819D02*
X170903333Y-130447676D01*
X170903333Y-130447676D02*
X170808095Y-130542914D01*
X170808095Y-130542914D02*
X170712857Y-130590533D01*
X190817142Y-51604819D02*
X190483809Y-51128628D01*
X190245714Y-51604819D02*
X190245714Y-50604819D01*
X190245714Y-50604819D02*
X190626666Y-50604819D01*
X190626666Y-50604819D02*
X190721904Y-50652438D01*
X190721904Y-50652438D02*
X190769523Y-50700057D01*
X190769523Y-50700057D02*
X190817142Y-50795295D01*
X190817142Y-50795295D02*
X190817142Y-50938152D01*
X190817142Y-50938152D02*
X190769523Y-51033390D01*
X190769523Y-51033390D02*
X190721904Y-51081009D01*
X190721904Y-51081009D02*
X190626666Y-51128628D01*
X190626666Y-51128628D02*
X190245714Y-51128628D01*
X191769523Y-51604819D02*
X191198095Y-51604819D01*
X191483809Y-51604819D02*
X191483809Y-50604819D01*
X191483809Y-50604819D02*
X191388571Y-50747676D01*
X191388571Y-50747676D02*
X191293333Y-50842914D01*
X191293333Y-50842914D02*
X191198095Y-50890533D01*
X192102857Y-50604819D02*
X192721904Y-50604819D01*
X192721904Y-50604819D02*
X192388571Y-50985771D01*
X192388571Y-50985771D02*
X192531428Y-50985771D01*
X192531428Y-50985771D02*
X192626666Y-51033390D01*
X192626666Y-51033390D02*
X192674285Y-51081009D01*
X192674285Y-51081009D02*
X192721904Y-51176247D01*
X192721904Y-51176247D02*
X192721904Y-51414342D01*
X192721904Y-51414342D02*
X192674285Y-51509580D01*
X192674285Y-51509580D02*
X192626666Y-51557200D01*
X192626666Y-51557200D02*
X192531428Y-51604819D01*
X192531428Y-51604819D02*
X192245714Y-51604819D01*
X192245714Y-51604819D02*
X192150476Y-51557200D01*
X192150476Y-51557200D02*
X192102857Y-51509580D01*
X190880952Y-52904819D02*
X190309524Y-52904819D01*
X190595238Y-52904819D02*
X190595238Y-51904819D01*
X190595238Y-51904819D02*
X190500000Y-52047676D01*
X190500000Y-52047676D02*
X190404762Y-52142914D01*
X190404762Y-52142914D02*
X190309524Y-52190533D01*
X191309524Y-52904819D02*
X191309524Y-51904819D01*
X191404762Y-52523866D02*
X191690476Y-52904819D01*
X191690476Y-52238152D02*
X191309524Y-52619104D01*
X141827142Y-63624819D02*
X141493809Y-63148628D01*
X141255714Y-63624819D02*
X141255714Y-62624819D01*
X141255714Y-62624819D02*
X141636666Y-62624819D01*
X141636666Y-62624819D02*
X141731904Y-62672438D01*
X141731904Y-62672438D02*
X141779523Y-62720057D01*
X141779523Y-62720057D02*
X141827142Y-62815295D01*
X141827142Y-62815295D02*
X141827142Y-62958152D01*
X141827142Y-62958152D02*
X141779523Y-63053390D01*
X141779523Y-63053390D02*
X141731904Y-63101009D01*
X141731904Y-63101009D02*
X141636666Y-63148628D01*
X141636666Y-63148628D02*
X141255714Y-63148628D01*
X142208095Y-62720057D02*
X142255714Y-62672438D01*
X142255714Y-62672438D02*
X142350952Y-62624819D01*
X142350952Y-62624819D02*
X142589047Y-62624819D01*
X142589047Y-62624819D02*
X142684285Y-62672438D01*
X142684285Y-62672438D02*
X142731904Y-62720057D01*
X142731904Y-62720057D02*
X142779523Y-62815295D01*
X142779523Y-62815295D02*
X142779523Y-62910533D01*
X142779523Y-62910533D02*
X142731904Y-63053390D01*
X142731904Y-63053390D02*
X142160476Y-63624819D01*
X142160476Y-63624819D02*
X142779523Y-63624819D01*
X143636666Y-62958152D02*
X143636666Y-63624819D01*
X143398571Y-62577200D02*
X143160476Y-63291485D01*
X143160476Y-63291485D02*
X143779523Y-63291485D01*
X141808571Y-65094819D02*
X141237143Y-65094819D01*
X141522857Y-65094819D02*
X141522857Y-64094819D01*
X141522857Y-64094819D02*
X141427619Y-64237676D01*
X141427619Y-64237676D02*
X141332381Y-64332914D01*
X141332381Y-64332914D02*
X141237143Y-64380533D01*
X142427619Y-64094819D02*
X142522857Y-64094819D01*
X142522857Y-64094819D02*
X142618095Y-64142438D01*
X142618095Y-64142438D02*
X142665714Y-64190057D01*
X142665714Y-64190057D02*
X142713333Y-64285295D01*
X142713333Y-64285295D02*
X142760952Y-64475771D01*
X142760952Y-64475771D02*
X142760952Y-64713866D01*
X142760952Y-64713866D02*
X142713333Y-64904342D01*
X142713333Y-64904342D02*
X142665714Y-64999580D01*
X142665714Y-64999580D02*
X142618095Y-65047200D01*
X142618095Y-65047200D02*
X142522857Y-65094819D01*
X142522857Y-65094819D02*
X142427619Y-65094819D01*
X142427619Y-65094819D02*
X142332381Y-65047200D01*
X142332381Y-65047200D02*
X142284762Y-64999580D01*
X142284762Y-64999580D02*
X142237143Y-64904342D01*
X142237143Y-64904342D02*
X142189524Y-64713866D01*
X142189524Y-64713866D02*
X142189524Y-64475771D01*
X142189524Y-64475771D02*
X142237143Y-64285295D01*
X142237143Y-64285295D02*
X142284762Y-64190057D01*
X142284762Y-64190057D02*
X142332381Y-64142438D01*
X142332381Y-64142438D02*
X142427619Y-64094819D01*
X143380000Y-64094819D02*
X143475238Y-64094819D01*
X143475238Y-64094819D02*
X143570476Y-64142438D01*
X143570476Y-64142438D02*
X143618095Y-64190057D01*
X143618095Y-64190057D02*
X143665714Y-64285295D01*
X143665714Y-64285295D02*
X143713333Y-64475771D01*
X143713333Y-64475771D02*
X143713333Y-64713866D01*
X143713333Y-64713866D02*
X143665714Y-64904342D01*
X143665714Y-64904342D02*
X143618095Y-64999580D01*
X143618095Y-64999580D02*
X143570476Y-65047200D01*
X143570476Y-65047200D02*
X143475238Y-65094819D01*
X143475238Y-65094819D02*
X143380000Y-65094819D01*
X143380000Y-65094819D02*
X143284762Y-65047200D01*
X143284762Y-65047200D02*
X143237143Y-64999580D01*
X143237143Y-64999580D02*
X143189524Y-64904342D01*
X143189524Y-64904342D02*
X143141905Y-64713866D01*
X143141905Y-64713866D02*
X143141905Y-64475771D01*
X143141905Y-64475771D02*
X143189524Y-64285295D01*
X143189524Y-64285295D02*
X143237143Y-64190057D01*
X143237143Y-64190057D02*
X143284762Y-64142438D01*
X143284762Y-64142438D02*
X143380000Y-64094819D01*
X144141905Y-65094819D02*
X144141905Y-64094819D01*
X144237143Y-64713866D02*
X144522857Y-65094819D01*
X144522857Y-64428152D02*
X144141905Y-64809104D01*
X153957142Y-85349580D02*
X153909523Y-85397200D01*
X153909523Y-85397200D02*
X153766666Y-85444819D01*
X153766666Y-85444819D02*
X153671428Y-85444819D01*
X153671428Y-85444819D02*
X153528571Y-85397200D01*
X153528571Y-85397200D02*
X153433333Y-85301961D01*
X153433333Y-85301961D02*
X153385714Y-85206723D01*
X153385714Y-85206723D02*
X153338095Y-85016247D01*
X153338095Y-85016247D02*
X153338095Y-84873390D01*
X153338095Y-84873390D02*
X153385714Y-84682914D01*
X153385714Y-84682914D02*
X153433333Y-84587676D01*
X153433333Y-84587676D02*
X153528571Y-84492438D01*
X153528571Y-84492438D02*
X153671428Y-84444819D01*
X153671428Y-84444819D02*
X153766666Y-84444819D01*
X153766666Y-84444819D02*
X153909523Y-84492438D01*
X153909523Y-84492438D02*
X153957142Y-84540057D01*
X154814285Y-84778152D02*
X154814285Y-85444819D01*
X154576190Y-84397200D02*
X154338095Y-85111485D01*
X154338095Y-85111485D02*
X154957142Y-85111485D01*
X155766666Y-84778152D02*
X155766666Y-85444819D01*
X155528571Y-84397200D02*
X155290476Y-85111485D01*
X155290476Y-85111485D02*
X155909523Y-85111485D01*
X153906189Y-86974819D02*
X153334761Y-86974819D01*
X153620475Y-86974819D02*
X153620475Y-85974819D01*
X153620475Y-85974819D02*
X153525237Y-86117676D01*
X153525237Y-86117676D02*
X153429999Y-86212914D01*
X153429999Y-86212914D02*
X153334761Y-86260533D01*
X154525237Y-85974819D02*
X154620475Y-85974819D01*
X154620475Y-85974819D02*
X154715713Y-86022438D01*
X154715713Y-86022438D02*
X154763332Y-86070057D01*
X154763332Y-86070057D02*
X154810951Y-86165295D01*
X154810951Y-86165295D02*
X154858570Y-86355771D01*
X154858570Y-86355771D02*
X154858570Y-86593866D01*
X154858570Y-86593866D02*
X154810951Y-86784342D01*
X154810951Y-86784342D02*
X154763332Y-86879580D01*
X154763332Y-86879580D02*
X154715713Y-86927200D01*
X154715713Y-86927200D02*
X154620475Y-86974819D01*
X154620475Y-86974819D02*
X154525237Y-86974819D01*
X154525237Y-86974819D02*
X154429999Y-86927200D01*
X154429999Y-86927200D02*
X154382380Y-86879580D01*
X154382380Y-86879580D02*
X154334761Y-86784342D01*
X154334761Y-86784342D02*
X154287142Y-86593866D01*
X154287142Y-86593866D02*
X154287142Y-86355771D01*
X154287142Y-86355771D02*
X154334761Y-86165295D01*
X154334761Y-86165295D02*
X154382380Y-86070057D01*
X154382380Y-86070057D02*
X154429999Y-86022438D01*
X154429999Y-86022438D02*
X154525237Y-85974819D01*
X155715713Y-86308152D02*
X155715713Y-86974819D01*
X155287142Y-86308152D02*
X155287142Y-86831961D01*
X155287142Y-86831961D02*
X155334761Y-86927200D01*
X155334761Y-86927200D02*
X155429999Y-86974819D01*
X155429999Y-86974819D02*
X155572856Y-86974819D01*
X155572856Y-86974819D02*
X155668094Y-86927200D01*
X155668094Y-86927200D02*
X155715713Y-86879580D01*
X156810952Y-86308152D02*
X157191904Y-86308152D01*
X156953809Y-85974819D02*
X156953809Y-86831961D01*
X156953809Y-86831961D02*
X157001428Y-86927200D01*
X157001428Y-86927200D02*
X157096666Y-86974819D01*
X157096666Y-86974819D02*
X157191904Y-86974819D01*
X157953809Y-86974819D02*
X157953809Y-86451009D01*
X157953809Y-86451009D02*
X157906190Y-86355771D01*
X157906190Y-86355771D02*
X157810952Y-86308152D01*
X157810952Y-86308152D02*
X157620476Y-86308152D01*
X157620476Y-86308152D02*
X157525238Y-86355771D01*
X157953809Y-86927200D02*
X157858571Y-86974819D01*
X157858571Y-86974819D02*
X157620476Y-86974819D01*
X157620476Y-86974819D02*
X157525238Y-86927200D01*
X157525238Y-86927200D02*
X157477619Y-86831961D01*
X157477619Y-86831961D02*
X157477619Y-86736723D01*
X157477619Y-86736723D02*
X157525238Y-86641485D01*
X157525238Y-86641485D02*
X157620476Y-86593866D01*
X157620476Y-86593866D02*
X157858571Y-86593866D01*
X157858571Y-86593866D02*
X157953809Y-86546247D01*
X158572857Y-86974819D02*
X158477619Y-86927200D01*
X158477619Y-86927200D02*
X158430000Y-86831961D01*
X158430000Y-86831961D02*
X158430000Y-85974819D01*
X171203333Y-64779580D02*
X171155714Y-64827200D01*
X171155714Y-64827200D02*
X171012857Y-64874819D01*
X171012857Y-64874819D02*
X170917619Y-64874819D01*
X170917619Y-64874819D02*
X170774762Y-64827200D01*
X170774762Y-64827200D02*
X170679524Y-64731961D01*
X170679524Y-64731961D02*
X170631905Y-64636723D01*
X170631905Y-64636723D02*
X170584286Y-64446247D01*
X170584286Y-64446247D02*
X170584286Y-64303390D01*
X170584286Y-64303390D02*
X170631905Y-64112914D01*
X170631905Y-64112914D02*
X170679524Y-64017676D01*
X170679524Y-64017676D02*
X170774762Y-63922438D01*
X170774762Y-63922438D02*
X170917619Y-63874819D01*
X170917619Y-63874819D02*
X171012857Y-63874819D01*
X171012857Y-63874819D02*
X171155714Y-63922438D01*
X171155714Y-63922438D02*
X171203333Y-63970057D01*
X171584286Y-63970057D02*
X171631905Y-63922438D01*
X171631905Y-63922438D02*
X171727143Y-63874819D01*
X171727143Y-63874819D02*
X171965238Y-63874819D01*
X171965238Y-63874819D02*
X172060476Y-63922438D01*
X172060476Y-63922438D02*
X172108095Y-63970057D01*
X172108095Y-63970057D02*
X172155714Y-64065295D01*
X172155714Y-64065295D02*
X172155714Y-64160533D01*
X172155714Y-64160533D02*
X172108095Y-64303390D01*
X172108095Y-64303390D02*
X171536667Y-64874819D01*
X171536667Y-64874819D02*
X172155714Y-64874819D01*
X172899524Y-63970057D02*
X172947143Y-63922438D01*
X172947143Y-63922438D02*
X173042381Y-63874819D01*
X173042381Y-63874819D02*
X173280476Y-63874819D01*
X173280476Y-63874819D02*
X173375714Y-63922438D01*
X173375714Y-63922438D02*
X173423333Y-63970057D01*
X173423333Y-63970057D02*
X173470952Y-64065295D01*
X173470952Y-64065295D02*
X173470952Y-64160533D01*
X173470952Y-64160533D02*
X173423333Y-64303390D01*
X173423333Y-64303390D02*
X172851905Y-64874819D01*
X172851905Y-64874819D02*
X173470952Y-64874819D01*
X173851905Y-63970057D02*
X173899524Y-63922438D01*
X173899524Y-63922438D02*
X173994762Y-63874819D01*
X173994762Y-63874819D02*
X174232857Y-63874819D01*
X174232857Y-63874819D02*
X174328095Y-63922438D01*
X174328095Y-63922438D02*
X174375714Y-63970057D01*
X174375714Y-63970057D02*
X174423333Y-64065295D01*
X174423333Y-64065295D02*
X174423333Y-64160533D01*
X174423333Y-64160533D02*
X174375714Y-64303390D01*
X174375714Y-64303390D02*
X173804286Y-64874819D01*
X173804286Y-64874819D02*
X174423333Y-64874819D01*
X175042381Y-63874819D02*
X175137619Y-63874819D01*
X175137619Y-63874819D02*
X175232857Y-63922438D01*
X175232857Y-63922438D02*
X175280476Y-63970057D01*
X175280476Y-63970057D02*
X175328095Y-64065295D01*
X175328095Y-64065295D02*
X175375714Y-64255771D01*
X175375714Y-64255771D02*
X175375714Y-64493866D01*
X175375714Y-64493866D02*
X175328095Y-64684342D01*
X175328095Y-64684342D02*
X175280476Y-64779580D01*
X175280476Y-64779580D02*
X175232857Y-64827200D01*
X175232857Y-64827200D02*
X175137619Y-64874819D01*
X175137619Y-64874819D02*
X175042381Y-64874819D01*
X175042381Y-64874819D02*
X174947143Y-64827200D01*
X174947143Y-64827200D02*
X174899524Y-64779580D01*
X174899524Y-64779580D02*
X174851905Y-64684342D01*
X174851905Y-64684342D02*
X174804286Y-64493866D01*
X174804286Y-64493866D02*
X174804286Y-64255771D01*
X174804286Y-64255771D02*
X174851905Y-64065295D01*
X174851905Y-64065295D02*
X174899524Y-63970057D01*
X174899524Y-63970057D02*
X174947143Y-63922438D01*
X174947143Y-63922438D02*
X175042381Y-63874819D01*
X175804286Y-64208152D02*
X175804286Y-64874819D01*
X175804286Y-64303390D02*
X175851905Y-64255771D01*
X175851905Y-64255771D02*
X175947143Y-64208152D01*
X175947143Y-64208152D02*
X176090000Y-64208152D01*
X176090000Y-64208152D02*
X176185238Y-64255771D01*
X176185238Y-64255771D02*
X176232857Y-64351009D01*
X176232857Y-64351009D02*
X176232857Y-64874819D01*
X133927142Y-93389580D02*
X133879523Y-93437200D01*
X133879523Y-93437200D02*
X133736666Y-93484819D01*
X133736666Y-93484819D02*
X133641428Y-93484819D01*
X133641428Y-93484819D02*
X133498571Y-93437200D01*
X133498571Y-93437200D02*
X133403333Y-93341961D01*
X133403333Y-93341961D02*
X133355714Y-93246723D01*
X133355714Y-93246723D02*
X133308095Y-93056247D01*
X133308095Y-93056247D02*
X133308095Y-92913390D01*
X133308095Y-92913390D02*
X133355714Y-92722914D01*
X133355714Y-92722914D02*
X133403333Y-92627676D01*
X133403333Y-92627676D02*
X133498571Y-92532438D01*
X133498571Y-92532438D02*
X133641428Y-92484819D01*
X133641428Y-92484819D02*
X133736666Y-92484819D01*
X133736666Y-92484819D02*
X133879523Y-92532438D01*
X133879523Y-92532438D02*
X133927142Y-92580057D01*
X134260476Y-92484819D02*
X134879523Y-92484819D01*
X134879523Y-92484819D02*
X134546190Y-92865771D01*
X134546190Y-92865771D02*
X134689047Y-92865771D01*
X134689047Y-92865771D02*
X134784285Y-92913390D01*
X134784285Y-92913390D02*
X134831904Y-92961009D01*
X134831904Y-92961009D02*
X134879523Y-93056247D01*
X134879523Y-93056247D02*
X134879523Y-93294342D01*
X134879523Y-93294342D02*
X134831904Y-93389580D01*
X134831904Y-93389580D02*
X134784285Y-93437200D01*
X134784285Y-93437200D02*
X134689047Y-93484819D01*
X134689047Y-93484819D02*
X134403333Y-93484819D01*
X134403333Y-93484819D02*
X134308095Y-93437200D01*
X134308095Y-93437200D02*
X134260476Y-93389580D01*
X135736666Y-92484819D02*
X135546190Y-92484819D01*
X135546190Y-92484819D02*
X135450952Y-92532438D01*
X135450952Y-92532438D02*
X135403333Y-92580057D01*
X135403333Y-92580057D02*
X135308095Y-92722914D01*
X135308095Y-92722914D02*
X135260476Y-92913390D01*
X135260476Y-92913390D02*
X135260476Y-93294342D01*
X135260476Y-93294342D02*
X135308095Y-93389580D01*
X135308095Y-93389580D02*
X135355714Y-93437200D01*
X135355714Y-93437200D02*
X135450952Y-93484819D01*
X135450952Y-93484819D02*
X135641428Y-93484819D01*
X135641428Y-93484819D02*
X135736666Y-93437200D01*
X135736666Y-93437200D02*
X135784285Y-93389580D01*
X135784285Y-93389580D02*
X135831904Y-93294342D01*
X135831904Y-93294342D02*
X135831904Y-93056247D01*
X135831904Y-93056247D02*
X135784285Y-92961009D01*
X135784285Y-92961009D02*
X135736666Y-92913390D01*
X135736666Y-92913390D02*
X135641428Y-92865771D01*
X135641428Y-92865771D02*
X135450952Y-92865771D01*
X135450952Y-92865771D02*
X135355714Y-92913390D01*
X135355714Y-92913390D02*
X135308095Y-92961009D01*
X135308095Y-92961009D02*
X135260476Y-93056247D01*
X133980951Y-95014819D02*
X133409523Y-95014819D01*
X133695237Y-95014819D02*
X133695237Y-94014819D01*
X133695237Y-94014819D02*
X133599999Y-94157676D01*
X133599999Y-94157676D02*
X133504761Y-94252914D01*
X133504761Y-94252914D02*
X133409523Y-94300533D01*
X134599999Y-94014819D02*
X134695237Y-94014819D01*
X134695237Y-94014819D02*
X134790475Y-94062438D01*
X134790475Y-94062438D02*
X134838094Y-94110057D01*
X134838094Y-94110057D02*
X134885713Y-94205295D01*
X134885713Y-94205295D02*
X134933332Y-94395771D01*
X134933332Y-94395771D02*
X134933332Y-94633866D01*
X134933332Y-94633866D02*
X134885713Y-94824342D01*
X134885713Y-94824342D02*
X134838094Y-94919580D01*
X134838094Y-94919580D02*
X134790475Y-94967200D01*
X134790475Y-94967200D02*
X134695237Y-95014819D01*
X134695237Y-95014819D02*
X134599999Y-95014819D01*
X134599999Y-95014819D02*
X134504761Y-94967200D01*
X134504761Y-94967200D02*
X134457142Y-94919580D01*
X134457142Y-94919580D02*
X134409523Y-94824342D01*
X134409523Y-94824342D02*
X134361904Y-94633866D01*
X134361904Y-94633866D02*
X134361904Y-94395771D01*
X134361904Y-94395771D02*
X134409523Y-94205295D01*
X134409523Y-94205295D02*
X134457142Y-94110057D01*
X134457142Y-94110057D02*
X134504761Y-94062438D01*
X134504761Y-94062438D02*
X134599999Y-94014819D01*
X135790475Y-94348152D02*
X135790475Y-95014819D01*
X135361904Y-94348152D02*
X135361904Y-94871961D01*
X135361904Y-94871961D02*
X135409523Y-94967200D01*
X135409523Y-94967200D02*
X135504761Y-95014819D01*
X135504761Y-95014819D02*
X135647618Y-95014819D01*
X135647618Y-95014819D02*
X135742856Y-94967200D01*
X135742856Y-94967200D02*
X135790475Y-94919580D01*
X136885714Y-94014819D02*
X137457142Y-94014819D01*
X137171428Y-95014819D02*
X137171428Y-94014819D01*
X138219047Y-95014819D02*
X138219047Y-94491009D01*
X138219047Y-94491009D02*
X138171428Y-94395771D01*
X138171428Y-94395771D02*
X138076190Y-94348152D01*
X138076190Y-94348152D02*
X137885714Y-94348152D01*
X137885714Y-94348152D02*
X137790476Y-94395771D01*
X138219047Y-94967200D02*
X138123809Y-95014819D01*
X138123809Y-95014819D02*
X137885714Y-95014819D01*
X137885714Y-95014819D02*
X137790476Y-94967200D01*
X137790476Y-94967200D02*
X137742857Y-94871961D01*
X137742857Y-94871961D02*
X137742857Y-94776723D01*
X137742857Y-94776723D02*
X137790476Y-94681485D01*
X137790476Y-94681485D02*
X137885714Y-94633866D01*
X137885714Y-94633866D02*
X138123809Y-94633866D01*
X138123809Y-94633866D02*
X138219047Y-94586247D01*
X138838095Y-95014819D02*
X138742857Y-94967200D01*
X138742857Y-94967200D02*
X138695238Y-94871961D01*
X138695238Y-94871961D02*
X138695238Y-94014819D01*
X163706666Y-123924819D02*
X163706666Y-124639104D01*
X163706666Y-124639104D02*
X163659047Y-124781961D01*
X163659047Y-124781961D02*
X163563809Y-124877200D01*
X163563809Y-124877200D02*
X163420952Y-124924819D01*
X163420952Y-124924819D02*
X163325714Y-124924819D01*
X164325714Y-124353390D02*
X164230476Y-124305771D01*
X164230476Y-124305771D02*
X164182857Y-124258152D01*
X164182857Y-124258152D02*
X164135238Y-124162914D01*
X164135238Y-124162914D02*
X164135238Y-124115295D01*
X164135238Y-124115295D02*
X164182857Y-124020057D01*
X164182857Y-124020057D02*
X164230476Y-123972438D01*
X164230476Y-123972438D02*
X164325714Y-123924819D01*
X164325714Y-123924819D02*
X164516190Y-123924819D01*
X164516190Y-123924819D02*
X164611428Y-123972438D01*
X164611428Y-123972438D02*
X164659047Y-124020057D01*
X164659047Y-124020057D02*
X164706666Y-124115295D01*
X164706666Y-124115295D02*
X164706666Y-124162914D01*
X164706666Y-124162914D02*
X164659047Y-124258152D01*
X164659047Y-124258152D02*
X164611428Y-124305771D01*
X164611428Y-124305771D02*
X164516190Y-124353390D01*
X164516190Y-124353390D02*
X164325714Y-124353390D01*
X164325714Y-124353390D02*
X164230476Y-124401009D01*
X164230476Y-124401009D02*
X164182857Y-124448628D01*
X164182857Y-124448628D02*
X164135238Y-124543866D01*
X164135238Y-124543866D02*
X164135238Y-124734342D01*
X164135238Y-124734342D02*
X164182857Y-124829580D01*
X164182857Y-124829580D02*
X164230476Y-124877200D01*
X164230476Y-124877200D02*
X164325714Y-124924819D01*
X164325714Y-124924819D02*
X164516190Y-124924819D01*
X164516190Y-124924819D02*
X164611428Y-124877200D01*
X164611428Y-124877200D02*
X164659047Y-124829580D01*
X164659047Y-124829580D02*
X164706666Y-124734342D01*
X164706666Y-124734342D02*
X164706666Y-124543866D01*
X164706666Y-124543866D02*
X164659047Y-124448628D01*
X164659047Y-124448628D02*
X164611428Y-124401009D01*
X164611428Y-124401009D02*
X164516190Y-124353390D01*
X193557142Y-58649580D02*
X193509523Y-58697200D01*
X193509523Y-58697200D02*
X193366666Y-58744819D01*
X193366666Y-58744819D02*
X193271428Y-58744819D01*
X193271428Y-58744819D02*
X193128571Y-58697200D01*
X193128571Y-58697200D02*
X193033333Y-58601961D01*
X193033333Y-58601961D02*
X192985714Y-58506723D01*
X192985714Y-58506723D02*
X192938095Y-58316247D01*
X192938095Y-58316247D02*
X192938095Y-58173390D01*
X192938095Y-58173390D02*
X192985714Y-57982914D01*
X192985714Y-57982914D02*
X193033333Y-57887676D01*
X193033333Y-57887676D02*
X193128571Y-57792438D01*
X193128571Y-57792438D02*
X193271428Y-57744819D01*
X193271428Y-57744819D02*
X193366666Y-57744819D01*
X193366666Y-57744819D02*
X193509523Y-57792438D01*
X193509523Y-57792438D02*
X193557142Y-57840057D01*
X194509523Y-58744819D02*
X193938095Y-58744819D01*
X194223809Y-58744819D02*
X194223809Y-57744819D01*
X194223809Y-57744819D02*
X194128571Y-57887676D01*
X194128571Y-57887676D02*
X194033333Y-57982914D01*
X194033333Y-57982914D02*
X193938095Y-58030533D01*
X194890476Y-57840057D02*
X194938095Y-57792438D01*
X194938095Y-57792438D02*
X195033333Y-57744819D01*
X195033333Y-57744819D02*
X195271428Y-57744819D01*
X195271428Y-57744819D02*
X195366666Y-57792438D01*
X195366666Y-57792438D02*
X195414285Y-57840057D01*
X195414285Y-57840057D02*
X195461904Y-57935295D01*
X195461904Y-57935295D02*
X195461904Y-58030533D01*
X195461904Y-58030533D02*
X195414285Y-58173390D01*
X195414285Y-58173390D02*
X194842857Y-58744819D01*
X194842857Y-58744819D02*
X195461904Y-58744819D01*
X193520952Y-60254819D02*
X192949524Y-60254819D01*
X193235238Y-60254819D02*
X193235238Y-59254819D01*
X193235238Y-59254819D02*
X193140000Y-59397676D01*
X193140000Y-59397676D02*
X193044762Y-59492914D01*
X193044762Y-59492914D02*
X192949524Y-59540533D01*
X194140000Y-59254819D02*
X194235238Y-59254819D01*
X194235238Y-59254819D02*
X194330476Y-59302438D01*
X194330476Y-59302438D02*
X194378095Y-59350057D01*
X194378095Y-59350057D02*
X194425714Y-59445295D01*
X194425714Y-59445295D02*
X194473333Y-59635771D01*
X194473333Y-59635771D02*
X194473333Y-59873866D01*
X194473333Y-59873866D02*
X194425714Y-60064342D01*
X194425714Y-60064342D02*
X194378095Y-60159580D01*
X194378095Y-60159580D02*
X194330476Y-60207200D01*
X194330476Y-60207200D02*
X194235238Y-60254819D01*
X194235238Y-60254819D02*
X194140000Y-60254819D01*
X194140000Y-60254819D02*
X194044762Y-60207200D01*
X194044762Y-60207200D02*
X193997143Y-60159580D01*
X193997143Y-60159580D02*
X193949524Y-60064342D01*
X193949524Y-60064342D02*
X193901905Y-59873866D01*
X193901905Y-59873866D02*
X193901905Y-59635771D01*
X193901905Y-59635771D02*
X193949524Y-59445295D01*
X193949524Y-59445295D02*
X193997143Y-59350057D01*
X193997143Y-59350057D02*
X194044762Y-59302438D01*
X194044762Y-59302438D02*
X194140000Y-59254819D01*
X195092381Y-59254819D02*
X195187619Y-59254819D01*
X195187619Y-59254819D02*
X195282857Y-59302438D01*
X195282857Y-59302438D02*
X195330476Y-59350057D01*
X195330476Y-59350057D02*
X195378095Y-59445295D01*
X195378095Y-59445295D02*
X195425714Y-59635771D01*
X195425714Y-59635771D02*
X195425714Y-59873866D01*
X195425714Y-59873866D02*
X195378095Y-60064342D01*
X195378095Y-60064342D02*
X195330476Y-60159580D01*
X195330476Y-60159580D02*
X195282857Y-60207200D01*
X195282857Y-60207200D02*
X195187619Y-60254819D01*
X195187619Y-60254819D02*
X195092381Y-60254819D01*
X195092381Y-60254819D02*
X194997143Y-60207200D01*
X194997143Y-60207200D02*
X194949524Y-60159580D01*
X194949524Y-60159580D02*
X194901905Y-60064342D01*
X194901905Y-60064342D02*
X194854286Y-59873866D01*
X194854286Y-59873866D02*
X194854286Y-59635771D01*
X194854286Y-59635771D02*
X194901905Y-59445295D01*
X194901905Y-59445295D02*
X194949524Y-59350057D01*
X194949524Y-59350057D02*
X194997143Y-59302438D01*
X194997143Y-59302438D02*
X195092381Y-59254819D01*
X195854286Y-59588152D02*
X195854286Y-60588152D01*
X195854286Y-59635771D02*
X195949524Y-59588152D01*
X195949524Y-59588152D02*
X196140000Y-59588152D01*
X196140000Y-59588152D02*
X196235238Y-59635771D01*
X196235238Y-59635771D02*
X196282857Y-59683390D01*
X196282857Y-59683390D02*
X196330476Y-59778628D01*
X196330476Y-59778628D02*
X196330476Y-60064342D01*
X196330476Y-60064342D02*
X196282857Y-60159580D01*
X196282857Y-60159580D02*
X196235238Y-60207200D01*
X196235238Y-60207200D02*
X196140000Y-60254819D01*
X196140000Y-60254819D02*
X195949524Y-60254819D01*
X195949524Y-60254819D02*
X195854286Y-60207200D01*
X193583333Y-64529580D02*
X193535714Y-64577200D01*
X193535714Y-64577200D02*
X193392857Y-64624819D01*
X193392857Y-64624819D02*
X193297619Y-64624819D01*
X193297619Y-64624819D02*
X193154762Y-64577200D01*
X193154762Y-64577200D02*
X193059524Y-64481961D01*
X193059524Y-64481961D02*
X193011905Y-64386723D01*
X193011905Y-64386723D02*
X192964286Y-64196247D01*
X192964286Y-64196247D02*
X192964286Y-64053390D01*
X192964286Y-64053390D02*
X193011905Y-63862914D01*
X193011905Y-63862914D02*
X193059524Y-63767676D01*
X193059524Y-63767676D02*
X193154762Y-63672438D01*
X193154762Y-63672438D02*
X193297619Y-63624819D01*
X193297619Y-63624819D02*
X193392857Y-63624819D01*
X193392857Y-63624819D02*
X193535714Y-63672438D01*
X193535714Y-63672438D02*
X193583333Y-63720057D01*
X194059524Y-64624819D02*
X194250000Y-64624819D01*
X194250000Y-64624819D02*
X194345238Y-64577200D01*
X194345238Y-64577200D02*
X194392857Y-64529580D01*
X194392857Y-64529580D02*
X194488095Y-64386723D01*
X194488095Y-64386723D02*
X194535714Y-64196247D01*
X194535714Y-64196247D02*
X194535714Y-63815295D01*
X194535714Y-63815295D02*
X194488095Y-63720057D01*
X194488095Y-63720057D02*
X194440476Y-63672438D01*
X194440476Y-63672438D02*
X194345238Y-63624819D01*
X194345238Y-63624819D02*
X194154762Y-63624819D01*
X194154762Y-63624819D02*
X194059524Y-63672438D01*
X194059524Y-63672438D02*
X194011905Y-63720057D01*
X194011905Y-63720057D02*
X193964286Y-63815295D01*
X193964286Y-63815295D02*
X193964286Y-64053390D01*
X193964286Y-64053390D02*
X194011905Y-64148628D01*
X194011905Y-64148628D02*
X194059524Y-64196247D01*
X194059524Y-64196247D02*
X194154762Y-64243866D01*
X194154762Y-64243866D02*
X194345238Y-64243866D01*
X194345238Y-64243866D02*
X194440476Y-64196247D01*
X194440476Y-64196247D02*
X194488095Y-64148628D01*
X194488095Y-64148628D02*
X194535714Y-64053390D01*
X195319524Y-63680057D02*
X195367143Y-63632438D01*
X195367143Y-63632438D02*
X195462381Y-63584819D01*
X195462381Y-63584819D02*
X195700476Y-63584819D01*
X195700476Y-63584819D02*
X195795714Y-63632438D01*
X195795714Y-63632438D02*
X195843333Y-63680057D01*
X195843333Y-63680057D02*
X195890952Y-63775295D01*
X195890952Y-63775295D02*
X195890952Y-63870533D01*
X195890952Y-63870533D02*
X195843333Y-64013390D01*
X195843333Y-64013390D02*
X195271905Y-64584819D01*
X195271905Y-64584819D02*
X195890952Y-64584819D01*
X196271905Y-63680057D02*
X196319524Y-63632438D01*
X196319524Y-63632438D02*
X196414762Y-63584819D01*
X196414762Y-63584819D02*
X196652857Y-63584819D01*
X196652857Y-63584819D02*
X196748095Y-63632438D01*
X196748095Y-63632438D02*
X196795714Y-63680057D01*
X196795714Y-63680057D02*
X196843333Y-63775295D01*
X196843333Y-63775295D02*
X196843333Y-63870533D01*
X196843333Y-63870533D02*
X196795714Y-64013390D01*
X196795714Y-64013390D02*
X196224286Y-64584819D01*
X196224286Y-64584819D02*
X196843333Y-64584819D01*
X197462381Y-63584819D02*
X197557619Y-63584819D01*
X197557619Y-63584819D02*
X197652857Y-63632438D01*
X197652857Y-63632438D02*
X197700476Y-63680057D01*
X197700476Y-63680057D02*
X197748095Y-63775295D01*
X197748095Y-63775295D02*
X197795714Y-63965771D01*
X197795714Y-63965771D02*
X197795714Y-64203866D01*
X197795714Y-64203866D02*
X197748095Y-64394342D01*
X197748095Y-64394342D02*
X197700476Y-64489580D01*
X197700476Y-64489580D02*
X197652857Y-64537200D01*
X197652857Y-64537200D02*
X197557619Y-64584819D01*
X197557619Y-64584819D02*
X197462381Y-64584819D01*
X197462381Y-64584819D02*
X197367143Y-64537200D01*
X197367143Y-64537200D02*
X197319524Y-64489580D01*
X197319524Y-64489580D02*
X197271905Y-64394342D01*
X197271905Y-64394342D02*
X197224286Y-64203866D01*
X197224286Y-64203866D02*
X197224286Y-63965771D01*
X197224286Y-63965771D02*
X197271905Y-63775295D01*
X197271905Y-63775295D02*
X197319524Y-63680057D01*
X197319524Y-63680057D02*
X197367143Y-63632438D01*
X197367143Y-63632438D02*
X197462381Y-63584819D01*
X198224286Y-63918152D02*
X198224286Y-64584819D01*
X198224286Y-64013390D02*
X198271905Y-63965771D01*
X198271905Y-63965771D02*
X198367143Y-63918152D01*
X198367143Y-63918152D02*
X198510000Y-63918152D01*
X198510000Y-63918152D02*
X198605238Y-63965771D01*
X198605238Y-63965771D02*
X198652857Y-64061009D01*
X198652857Y-64061009D02*
X198652857Y-64584819D01*
D11*
X187534761Y-99647419D02*
X187201428Y-99171228D01*
X186963333Y-99647419D02*
X186963333Y-98647419D01*
X186963333Y-98647419D02*
X187344285Y-98647419D01*
X187344285Y-98647419D02*
X187439523Y-98695038D01*
X187439523Y-98695038D02*
X187487142Y-98742657D01*
X187487142Y-98742657D02*
X187534761Y-98837895D01*
X187534761Y-98837895D02*
X187534761Y-98980752D01*
X187534761Y-98980752D02*
X187487142Y-99075990D01*
X187487142Y-99075990D02*
X187439523Y-99123609D01*
X187439523Y-99123609D02*
X187344285Y-99171228D01*
X187344285Y-99171228D02*
X186963333Y-99171228D01*
X187820476Y-98647419D02*
X188153809Y-99647419D01*
X188153809Y-99647419D02*
X188487142Y-98647419D01*
X188772857Y-98742657D02*
X188820476Y-98695038D01*
X188820476Y-98695038D02*
X188915714Y-98647419D01*
X188915714Y-98647419D02*
X189153809Y-98647419D01*
X189153809Y-98647419D02*
X189249047Y-98695038D01*
X189249047Y-98695038D02*
X189296666Y-98742657D01*
X189296666Y-98742657D02*
X189344285Y-98837895D01*
X189344285Y-98837895D02*
X189344285Y-98933133D01*
X189344285Y-98933133D02*
X189296666Y-99075990D01*
X189296666Y-99075990D02*
X188725238Y-99647419D01*
X188725238Y-99647419D02*
X189344285Y-99647419D01*
D13*
X190784761Y-99674819D02*
X190213333Y-99674819D01*
X190499047Y-99674819D02*
X190499047Y-98674819D01*
X190499047Y-98674819D02*
X190403809Y-98817676D01*
X190403809Y-98817676D02*
X190308571Y-98912914D01*
X190308571Y-98912914D02*
X190213333Y-98960533D01*
X191403809Y-98674819D02*
X191499047Y-98674819D01*
X191499047Y-98674819D02*
X191594285Y-98722438D01*
X191594285Y-98722438D02*
X191641904Y-98770057D01*
X191641904Y-98770057D02*
X191689523Y-98865295D01*
X191689523Y-98865295D02*
X191737142Y-99055771D01*
X191737142Y-99055771D02*
X191737142Y-99293866D01*
X191737142Y-99293866D02*
X191689523Y-99484342D01*
X191689523Y-99484342D02*
X191641904Y-99579580D01*
X191641904Y-99579580D02*
X191594285Y-99627200D01*
X191594285Y-99627200D02*
X191499047Y-99674819D01*
X191499047Y-99674819D02*
X191403809Y-99674819D01*
X191403809Y-99674819D02*
X191308571Y-99627200D01*
X191308571Y-99627200D02*
X191260952Y-99579580D01*
X191260952Y-99579580D02*
X191213333Y-99484342D01*
X191213333Y-99484342D02*
X191165714Y-99293866D01*
X191165714Y-99293866D02*
X191165714Y-99055771D01*
X191165714Y-99055771D02*
X191213333Y-98865295D01*
X191213333Y-98865295D02*
X191260952Y-98770057D01*
X191260952Y-98770057D02*
X191308571Y-98722438D01*
X191308571Y-98722438D02*
X191403809Y-98674819D01*
X192165714Y-99674819D02*
X192165714Y-98674819D01*
X192260952Y-99293866D02*
X192546666Y-99674819D01*
X192546666Y-99008152D02*
X192165714Y-99389104D01*
X177123333Y-52349580D02*
X177075714Y-52397200D01*
X177075714Y-52397200D02*
X176932857Y-52444819D01*
X176932857Y-52444819D02*
X176837619Y-52444819D01*
X176837619Y-52444819D02*
X176694762Y-52397200D01*
X176694762Y-52397200D02*
X176599524Y-52301961D01*
X176599524Y-52301961D02*
X176551905Y-52206723D01*
X176551905Y-52206723D02*
X176504286Y-52016247D01*
X176504286Y-52016247D02*
X176504286Y-51873390D01*
X176504286Y-51873390D02*
X176551905Y-51682914D01*
X176551905Y-51682914D02*
X176599524Y-51587676D01*
X176599524Y-51587676D02*
X176694762Y-51492438D01*
X176694762Y-51492438D02*
X176837619Y-51444819D01*
X176837619Y-51444819D02*
X176932857Y-51444819D01*
X176932857Y-51444819D02*
X177075714Y-51492438D01*
X177075714Y-51492438D02*
X177123333Y-51540057D01*
X177980476Y-51778152D02*
X177980476Y-52444819D01*
X177742381Y-51397200D02*
X177504286Y-52111485D01*
X177504286Y-52111485D02*
X178123333Y-52111485D01*
X177060952Y-53924819D02*
X176489524Y-53924819D01*
X176775238Y-53924819D02*
X176775238Y-52924819D01*
X176775238Y-52924819D02*
X176680000Y-53067676D01*
X176680000Y-53067676D02*
X176584762Y-53162914D01*
X176584762Y-53162914D02*
X176489524Y-53210533D01*
X177680000Y-52924819D02*
X177775238Y-52924819D01*
X177775238Y-52924819D02*
X177870476Y-52972438D01*
X177870476Y-52972438D02*
X177918095Y-53020057D01*
X177918095Y-53020057D02*
X177965714Y-53115295D01*
X177965714Y-53115295D02*
X178013333Y-53305771D01*
X178013333Y-53305771D02*
X178013333Y-53543866D01*
X178013333Y-53543866D02*
X177965714Y-53734342D01*
X177965714Y-53734342D02*
X177918095Y-53829580D01*
X177918095Y-53829580D02*
X177870476Y-53877200D01*
X177870476Y-53877200D02*
X177775238Y-53924819D01*
X177775238Y-53924819D02*
X177680000Y-53924819D01*
X177680000Y-53924819D02*
X177584762Y-53877200D01*
X177584762Y-53877200D02*
X177537143Y-53829580D01*
X177537143Y-53829580D02*
X177489524Y-53734342D01*
X177489524Y-53734342D02*
X177441905Y-53543866D01*
X177441905Y-53543866D02*
X177441905Y-53305771D01*
X177441905Y-53305771D02*
X177489524Y-53115295D01*
X177489524Y-53115295D02*
X177537143Y-53020057D01*
X177537143Y-53020057D02*
X177584762Y-52972438D01*
X177584762Y-52972438D02*
X177680000Y-52924819D01*
X178632381Y-52924819D02*
X178727619Y-52924819D01*
X178727619Y-52924819D02*
X178822857Y-52972438D01*
X178822857Y-52972438D02*
X178870476Y-53020057D01*
X178870476Y-53020057D02*
X178918095Y-53115295D01*
X178918095Y-53115295D02*
X178965714Y-53305771D01*
X178965714Y-53305771D02*
X178965714Y-53543866D01*
X178965714Y-53543866D02*
X178918095Y-53734342D01*
X178918095Y-53734342D02*
X178870476Y-53829580D01*
X178870476Y-53829580D02*
X178822857Y-53877200D01*
X178822857Y-53877200D02*
X178727619Y-53924819D01*
X178727619Y-53924819D02*
X178632381Y-53924819D01*
X178632381Y-53924819D02*
X178537143Y-53877200D01*
X178537143Y-53877200D02*
X178489524Y-53829580D01*
X178489524Y-53829580D02*
X178441905Y-53734342D01*
X178441905Y-53734342D02*
X178394286Y-53543866D01*
X178394286Y-53543866D02*
X178394286Y-53305771D01*
X178394286Y-53305771D02*
X178441905Y-53115295D01*
X178441905Y-53115295D02*
X178489524Y-53020057D01*
X178489524Y-53020057D02*
X178537143Y-52972438D01*
X178537143Y-52972438D02*
X178632381Y-52924819D01*
X179394286Y-53258152D02*
X179394286Y-54258152D01*
X179394286Y-53305771D02*
X179489524Y-53258152D01*
X179489524Y-53258152D02*
X179680000Y-53258152D01*
X179680000Y-53258152D02*
X179775238Y-53305771D01*
X179775238Y-53305771D02*
X179822857Y-53353390D01*
X179822857Y-53353390D02*
X179870476Y-53448628D01*
X179870476Y-53448628D02*
X179870476Y-53734342D01*
X179870476Y-53734342D02*
X179822857Y-53829580D01*
X179822857Y-53829580D02*
X179775238Y-53877200D01*
X179775238Y-53877200D02*
X179680000Y-53924819D01*
X179680000Y-53924819D02*
X179489524Y-53924819D01*
X179489524Y-53924819D02*
X179394286Y-53877200D01*
X193387142Y-47934819D02*
X193053809Y-47458628D01*
X192815714Y-47934819D02*
X192815714Y-46934819D01*
X192815714Y-46934819D02*
X193196666Y-46934819D01*
X193196666Y-46934819D02*
X193291904Y-46982438D01*
X193291904Y-46982438D02*
X193339523Y-47030057D01*
X193339523Y-47030057D02*
X193387142Y-47125295D01*
X193387142Y-47125295D02*
X193387142Y-47268152D01*
X193387142Y-47268152D02*
X193339523Y-47363390D01*
X193339523Y-47363390D02*
X193291904Y-47411009D01*
X193291904Y-47411009D02*
X193196666Y-47458628D01*
X193196666Y-47458628D02*
X192815714Y-47458628D01*
X194339523Y-47934819D02*
X193768095Y-47934819D01*
X194053809Y-47934819D02*
X194053809Y-46934819D01*
X194053809Y-46934819D02*
X193958571Y-47077676D01*
X193958571Y-47077676D02*
X193863333Y-47172914D01*
X193863333Y-47172914D02*
X193768095Y-47220533D01*
X194720476Y-47030057D02*
X194768095Y-46982438D01*
X194768095Y-46982438D02*
X194863333Y-46934819D01*
X194863333Y-46934819D02*
X195101428Y-46934819D01*
X195101428Y-46934819D02*
X195196666Y-46982438D01*
X195196666Y-46982438D02*
X195244285Y-47030057D01*
X195244285Y-47030057D02*
X195291904Y-47125295D01*
X195291904Y-47125295D02*
X195291904Y-47220533D01*
X195291904Y-47220533D02*
X195244285Y-47363390D01*
X195244285Y-47363390D02*
X194672857Y-47934819D01*
X194672857Y-47934819D02*
X195291904Y-47934819D01*
X195927143Y-47020057D02*
X195974762Y-46972438D01*
X195974762Y-46972438D02*
X196070000Y-46924819D01*
X196070000Y-46924819D02*
X196308095Y-46924819D01*
X196308095Y-46924819D02*
X196403333Y-46972438D01*
X196403333Y-46972438D02*
X196450952Y-47020057D01*
X196450952Y-47020057D02*
X196498571Y-47115295D01*
X196498571Y-47115295D02*
X196498571Y-47210533D01*
X196498571Y-47210533D02*
X196450952Y-47353390D01*
X196450952Y-47353390D02*
X195879524Y-47924819D01*
X195879524Y-47924819D02*
X196498571Y-47924819D01*
X196879524Y-47020057D02*
X196927143Y-46972438D01*
X196927143Y-46972438D02*
X197022381Y-46924819D01*
X197022381Y-46924819D02*
X197260476Y-46924819D01*
X197260476Y-46924819D02*
X197355714Y-46972438D01*
X197355714Y-46972438D02*
X197403333Y-47020057D01*
X197403333Y-47020057D02*
X197450952Y-47115295D01*
X197450952Y-47115295D02*
X197450952Y-47210533D01*
X197450952Y-47210533D02*
X197403333Y-47353390D01*
X197403333Y-47353390D02*
X196831905Y-47924819D01*
X196831905Y-47924819D02*
X197450952Y-47924819D01*
X198070000Y-46924819D02*
X198165238Y-46924819D01*
X198165238Y-46924819D02*
X198260476Y-46972438D01*
X198260476Y-46972438D02*
X198308095Y-47020057D01*
X198308095Y-47020057D02*
X198355714Y-47115295D01*
X198355714Y-47115295D02*
X198403333Y-47305771D01*
X198403333Y-47305771D02*
X198403333Y-47543866D01*
X198403333Y-47543866D02*
X198355714Y-47734342D01*
X198355714Y-47734342D02*
X198308095Y-47829580D01*
X198308095Y-47829580D02*
X198260476Y-47877200D01*
X198260476Y-47877200D02*
X198165238Y-47924819D01*
X198165238Y-47924819D02*
X198070000Y-47924819D01*
X198070000Y-47924819D02*
X197974762Y-47877200D01*
X197974762Y-47877200D02*
X197927143Y-47829580D01*
X197927143Y-47829580D02*
X197879524Y-47734342D01*
X197879524Y-47734342D02*
X197831905Y-47543866D01*
X197831905Y-47543866D02*
X197831905Y-47305771D01*
X197831905Y-47305771D02*
X197879524Y-47115295D01*
X197879524Y-47115295D02*
X197927143Y-47020057D01*
X197927143Y-47020057D02*
X197974762Y-46972438D01*
X197974762Y-46972438D02*
X198070000Y-46924819D01*
X198831905Y-47924819D02*
X198831905Y-46924819D01*
X198927143Y-47543866D02*
X199212857Y-47924819D01*
X199212857Y-47258152D02*
X198831905Y-47639104D01*
X166763333Y-61619580D02*
X166715714Y-61667200D01*
X166715714Y-61667200D02*
X166572857Y-61714819D01*
X166572857Y-61714819D02*
X166477619Y-61714819D01*
X166477619Y-61714819D02*
X166334762Y-61667200D01*
X166334762Y-61667200D02*
X166239524Y-61571961D01*
X166239524Y-61571961D02*
X166191905Y-61476723D01*
X166191905Y-61476723D02*
X166144286Y-61286247D01*
X166144286Y-61286247D02*
X166144286Y-61143390D01*
X166144286Y-61143390D02*
X166191905Y-60952914D01*
X166191905Y-60952914D02*
X166239524Y-60857676D01*
X166239524Y-60857676D02*
X166334762Y-60762438D01*
X166334762Y-60762438D02*
X166477619Y-60714819D01*
X166477619Y-60714819D02*
X166572857Y-60714819D01*
X166572857Y-60714819D02*
X166715714Y-60762438D01*
X166715714Y-60762438D02*
X166763333Y-60810057D01*
X167668095Y-60714819D02*
X167191905Y-60714819D01*
X167191905Y-60714819D02*
X167144286Y-61191009D01*
X167144286Y-61191009D02*
X167191905Y-61143390D01*
X167191905Y-61143390D02*
X167287143Y-61095771D01*
X167287143Y-61095771D02*
X167525238Y-61095771D01*
X167525238Y-61095771D02*
X167620476Y-61143390D01*
X167620476Y-61143390D02*
X167668095Y-61191009D01*
X167668095Y-61191009D02*
X167715714Y-61286247D01*
X167715714Y-61286247D02*
X167715714Y-61524342D01*
X167715714Y-61524342D02*
X167668095Y-61619580D01*
X167668095Y-61619580D02*
X167620476Y-61667200D01*
X167620476Y-61667200D02*
X167525238Y-61714819D01*
X167525238Y-61714819D02*
X167287143Y-61714819D01*
X167287143Y-61714819D02*
X167191905Y-61667200D01*
X167191905Y-61667200D02*
X167144286Y-61619580D01*
X165840952Y-63394819D02*
X165269524Y-63394819D01*
X165555238Y-63394819D02*
X165555238Y-62394819D01*
X165555238Y-62394819D02*
X165460000Y-62537676D01*
X165460000Y-62537676D02*
X165364762Y-62632914D01*
X165364762Y-62632914D02*
X165269524Y-62680533D01*
X166460000Y-62394819D02*
X166555238Y-62394819D01*
X166555238Y-62394819D02*
X166650476Y-62442438D01*
X166650476Y-62442438D02*
X166698095Y-62490057D01*
X166698095Y-62490057D02*
X166745714Y-62585295D01*
X166745714Y-62585295D02*
X166793333Y-62775771D01*
X166793333Y-62775771D02*
X166793333Y-63013866D01*
X166793333Y-63013866D02*
X166745714Y-63204342D01*
X166745714Y-63204342D02*
X166698095Y-63299580D01*
X166698095Y-63299580D02*
X166650476Y-63347200D01*
X166650476Y-63347200D02*
X166555238Y-63394819D01*
X166555238Y-63394819D02*
X166460000Y-63394819D01*
X166460000Y-63394819D02*
X166364762Y-63347200D01*
X166364762Y-63347200D02*
X166317143Y-63299580D01*
X166317143Y-63299580D02*
X166269524Y-63204342D01*
X166269524Y-63204342D02*
X166221905Y-63013866D01*
X166221905Y-63013866D02*
X166221905Y-62775771D01*
X166221905Y-62775771D02*
X166269524Y-62585295D01*
X166269524Y-62585295D02*
X166317143Y-62490057D01*
X166317143Y-62490057D02*
X166364762Y-62442438D01*
X166364762Y-62442438D02*
X166460000Y-62394819D01*
X167412381Y-62394819D02*
X167507619Y-62394819D01*
X167507619Y-62394819D02*
X167602857Y-62442438D01*
X167602857Y-62442438D02*
X167650476Y-62490057D01*
X167650476Y-62490057D02*
X167698095Y-62585295D01*
X167698095Y-62585295D02*
X167745714Y-62775771D01*
X167745714Y-62775771D02*
X167745714Y-63013866D01*
X167745714Y-63013866D02*
X167698095Y-63204342D01*
X167698095Y-63204342D02*
X167650476Y-63299580D01*
X167650476Y-63299580D02*
X167602857Y-63347200D01*
X167602857Y-63347200D02*
X167507619Y-63394819D01*
X167507619Y-63394819D02*
X167412381Y-63394819D01*
X167412381Y-63394819D02*
X167317143Y-63347200D01*
X167317143Y-63347200D02*
X167269524Y-63299580D01*
X167269524Y-63299580D02*
X167221905Y-63204342D01*
X167221905Y-63204342D02*
X167174286Y-63013866D01*
X167174286Y-63013866D02*
X167174286Y-62775771D01*
X167174286Y-62775771D02*
X167221905Y-62585295D01*
X167221905Y-62585295D02*
X167269524Y-62490057D01*
X167269524Y-62490057D02*
X167317143Y-62442438D01*
X167317143Y-62442438D02*
X167412381Y-62394819D01*
X168174286Y-62728152D02*
X168174286Y-63728152D01*
X168174286Y-62775771D02*
X168269524Y-62728152D01*
X168269524Y-62728152D02*
X168460000Y-62728152D01*
X168460000Y-62728152D02*
X168555238Y-62775771D01*
X168555238Y-62775771D02*
X168602857Y-62823390D01*
X168602857Y-62823390D02*
X168650476Y-62918628D01*
X168650476Y-62918628D02*
X168650476Y-63204342D01*
X168650476Y-63204342D02*
X168602857Y-63299580D01*
X168602857Y-63299580D02*
X168555238Y-63347200D01*
X168555238Y-63347200D02*
X168460000Y-63394819D01*
X168460000Y-63394819D02*
X168269524Y-63394819D01*
X168269524Y-63394819D02*
X168174286Y-63347200D01*
X127887142Y-104949580D02*
X127839523Y-104997200D01*
X127839523Y-104997200D02*
X127696666Y-105044819D01*
X127696666Y-105044819D02*
X127601428Y-105044819D01*
X127601428Y-105044819D02*
X127458571Y-104997200D01*
X127458571Y-104997200D02*
X127363333Y-104901961D01*
X127363333Y-104901961D02*
X127315714Y-104806723D01*
X127315714Y-104806723D02*
X127268095Y-104616247D01*
X127268095Y-104616247D02*
X127268095Y-104473390D01*
X127268095Y-104473390D02*
X127315714Y-104282914D01*
X127315714Y-104282914D02*
X127363333Y-104187676D01*
X127363333Y-104187676D02*
X127458571Y-104092438D01*
X127458571Y-104092438D02*
X127601428Y-104044819D01*
X127601428Y-104044819D02*
X127696666Y-104044819D01*
X127696666Y-104044819D02*
X127839523Y-104092438D01*
X127839523Y-104092438D02*
X127887142Y-104140057D01*
X128220476Y-104044819D02*
X128839523Y-104044819D01*
X128839523Y-104044819D02*
X128506190Y-104425771D01*
X128506190Y-104425771D02*
X128649047Y-104425771D01*
X128649047Y-104425771D02*
X128744285Y-104473390D01*
X128744285Y-104473390D02*
X128791904Y-104521009D01*
X128791904Y-104521009D02*
X128839523Y-104616247D01*
X128839523Y-104616247D02*
X128839523Y-104854342D01*
X128839523Y-104854342D02*
X128791904Y-104949580D01*
X128791904Y-104949580D02*
X128744285Y-104997200D01*
X128744285Y-104997200D02*
X128649047Y-105044819D01*
X128649047Y-105044819D02*
X128363333Y-105044819D01*
X128363333Y-105044819D02*
X128268095Y-104997200D01*
X128268095Y-104997200D02*
X128220476Y-104949580D01*
X129744285Y-104044819D02*
X129268095Y-104044819D01*
X129268095Y-104044819D02*
X129220476Y-104521009D01*
X129220476Y-104521009D02*
X129268095Y-104473390D01*
X129268095Y-104473390D02*
X129363333Y-104425771D01*
X129363333Y-104425771D02*
X129601428Y-104425771D01*
X129601428Y-104425771D02*
X129696666Y-104473390D01*
X129696666Y-104473390D02*
X129744285Y-104521009D01*
X129744285Y-104521009D02*
X129791904Y-104616247D01*
X129791904Y-104616247D02*
X129791904Y-104854342D01*
X129791904Y-104854342D02*
X129744285Y-104949580D01*
X129744285Y-104949580D02*
X129696666Y-104997200D01*
X129696666Y-104997200D02*
X129601428Y-105044819D01*
X129601428Y-105044819D02*
X129363333Y-105044819D01*
X129363333Y-105044819D02*
X129268095Y-104997200D01*
X129268095Y-104997200D02*
X129220476Y-104949580D01*
X130970952Y-104984819D02*
X130399524Y-104984819D01*
X130685238Y-104984819D02*
X130685238Y-103984819D01*
X130685238Y-103984819D02*
X130590000Y-104127676D01*
X130590000Y-104127676D02*
X130494762Y-104222914D01*
X130494762Y-104222914D02*
X130399524Y-104270533D01*
X131590000Y-103984819D02*
X131685238Y-103984819D01*
X131685238Y-103984819D02*
X131780476Y-104032438D01*
X131780476Y-104032438D02*
X131828095Y-104080057D01*
X131828095Y-104080057D02*
X131875714Y-104175295D01*
X131875714Y-104175295D02*
X131923333Y-104365771D01*
X131923333Y-104365771D02*
X131923333Y-104603866D01*
X131923333Y-104603866D02*
X131875714Y-104794342D01*
X131875714Y-104794342D02*
X131828095Y-104889580D01*
X131828095Y-104889580D02*
X131780476Y-104937200D01*
X131780476Y-104937200D02*
X131685238Y-104984819D01*
X131685238Y-104984819D02*
X131590000Y-104984819D01*
X131590000Y-104984819D02*
X131494762Y-104937200D01*
X131494762Y-104937200D02*
X131447143Y-104889580D01*
X131447143Y-104889580D02*
X131399524Y-104794342D01*
X131399524Y-104794342D02*
X131351905Y-104603866D01*
X131351905Y-104603866D02*
X131351905Y-104365771D01*
X131351905Y-104365771D02*
X131399524Y-104175295D01*
X131399524Y-104175295D02*
X131447143Y-104080057D01*
X131447143Y-104080057D02*
X131494762Y-104032438D01*
X131494762Y-104032438D02*
X131590000Y-103984819D01*
X132542381Y-103984819D02*
X132637619Y-103984819D01*
X132637619Y-103984819D02*
X132732857Y-104032438D01*
X132732857Y-104032438D02*
X132780476Y-104080057D01*
X132780476Y-104080057D02*
X132828095Y-104175295D01*
X132828095Y-104175295D02*
X132875714Y-104365771D01*
X132875714Y-104365771D02*
X132875714Y-104603866D01*
X132875714Y-104603866D02*
X132828095Y-104794342D01*
X132828095Y-104794342D02*
X132780476Y-104889580D01*
X132780476Y-104889580D02*
X132732857Y-104937200D01*
X132732857Y-104937200D02*
X132637619Y-104984819D01*
X132637619Y-104984819D02*
X132542381Y-104984819D01*
X132542381Y-104984819D02*
X132447143Y-104937200D01*
X132447143Y-104937200D02*
X132399524Y-104889580D01*
X132399524Y-104889580D02*
X132351905Y-104794342D01*
X132351905Y-104794342D02*
X132304286Y-104603866D01*
X132304286Y-104603866D02*
X132304286Y-104365771D01*
X132304286Y-104365771D02*
X132351905Y-104175295D01*
X132351905Y-104175295D02*
X132399524Y-104080057D01*
X132399524Y-104080057D02*
X132447143Y-104032438D01*
X132447143Y-104032438D02*
X132542381Y-103984819D01*
X133304286Y-104318152D02*
X133304286Y-104984819D01*
X133304286Y-104413390D02*
X133351905Y-104365771D01*
X133351905Y-104365771D02*
X133447143Y-104318152D01*
X133447143Y-104318152D02*
X133590000Y-104318152D01*
X133590000Y-104318152D02*
X133685238Y-104365771D01*
X133685238Y-104365771D02*
X133732857Y-104461009D01*
X133732857Y-104461009D02*
X133732857Y-104984819D01*
X127567142Y-63509580D02*
X127519523Y-63557200D01*
X127519523Y-63557200D02*
X127376666Y-63604819D01*
X127376666Y-63604819D02*
X127281428Y-63604819D01*
X127281428Y-63604819D02*
X127138571Y-63557200D01*
X127138571Y-63557200D02*
X127043333Y-63461961D01*
X127043333Y-63461961D02*
X126995714Y-63366723D01*
X126995714Y-63366723D02*
X126948095Y-63176247D01*
X126948095Y-63176247D02*
X126948095Y-63033390D01*
X126948095Y-63033390D02*
X126995714Y-62842914D01*
X126995714Y-62842914D02*
X127043333Y-62747676D01*
X127043333Y-62747676D02*
X127138571Y-62652438D01*
X127138571Y-62652438D02*
X127281428Y-62604819D01*
X127281428Y-62604819D02*
X127376666Y-62604819D01*
X127376666Y-62604819D02*
X127519523Y-62652438D01*
X127519523Y-62652438D02*
X127567142Y-62700057D01*
X128519523Y-63604819D02*
X127948095Y-63604819D01*
X128233809Y-63604819D02*
X128233809Y-62604819D01*
X128233809Y-62604819D02*
X128138571Y-62747676D01*
X128138571Y-62747676D02*
X128043333Y-62842914D01*
X128043333Y-62842914D02*
X127948095Y-62890533D01*
X128995714Y-63604819D02*
X129186190Y-63604819D01*
X129186190Y-63604819D02*
X129281428Y-63557200D01*
X129281428Y-63557200D02*
X129329047Y-63509580D01*
X129329047Y-63509580D02*
X129424285Y-63366723D01*
X129424285Y-63366723D02*
X129471904Y-63176247D01*
X129471904Y-63176247D02*
X129471904Y-62795295D01*
X129471904Y-62795295D02*
X129424285Y-62700057D01*
X129424285Y-62700057D02*
X129376666Y-62652438D01*
X129376666Y-62652438D02*
X129281428Y-62604819D01*
X129281428Y-62604819D02*
X129090952Y-62604819D01*
X129090952Y-62604819D02*
X128995714Y-62652438D01*
X128995714Y-62652438D02*
X128948095Y-62700057D01*
X128948095Y-62700057D02*
X128900476Y-62795295D01*
X128900476Y-62795295D02*
X128900476Y-63033390D01*
X128900476Y-63033390D02*
X128948095Y-63128628D01*
X128948095Y-63128628D02*
X128995714Y-63176247D01*
X128995714Y-63176247D02*
X129090952Y-63223866D01*
X129090952Y-63223866D02*
X129281428Y-63223866D01*
X129281428Y-63223866D02*
X129376666Y-63176247D01*
X129376666Y-63176247D02*
X129424285Y-63128628D01*
X129424285Y-63128628D02*
X129471904Y-63033390D01*
X127633809Y-65084819D02*
X127062381Y-65084819D01*
X127348095Y-65084819D02*
X127348095Y-64084819D01*
X127348095Y-64084819D02*
X127252857Y-64227676D01*
X127252857Y-64227676D02*
X127157619Y-64322914D01*
X127157619Y-64322914D02*
X127062381Y-64370533D01*
X128252857Y-64084819D02*
X128348095Y-64084819D01*
X128348095Y-64084819D02*
X128443333Y-64132438D01*
X128443333Y-64132438D02*
X128490952Y-64180057D01*
X128490952Y-64180057D02*
X128538571Y-64275295D01*
X128538571Y-64275295D02*
X128586190Y-64465771D01*
X128586190Y-64465771D02*
X128586190Y-64703866D01*
X128586190Y-64703866D02*
X128538571Y-64894342D01*
X128538571Y-64894342D02*
X128490952Y-64989580D01*
X128490952Y-64989580D02*
X128443333Y-65037200D01*
X128443333Y-65037200D02*
X128348095Y-65084819D01*
X128348095Y-65084819D02*
X128252857Y-65084819D01*
X128252857Y-65084819D02*
X128157619Y-65037200D01*
X128157619Y-65037200D02*
X128110000Y-64989580D01*
X128110000Y-64989580D02*
X128062381Y-64894342D01*
X128062381Y-64894342D02*
X128014762Y-64703866D01*
X128014762Y-64703866D02*
X128014762Y-64465771D01*
X128014762Y-64465771D02*
X128062381Y-64275295D01*
X128062381Y-64275295D02*
X128110000Y-64180057D01*
X128110000Y-64180057D02*
X128157619Y-64132438D01*
X128157619Y-64132438D02*
X128252857Y-64084819D01*
X129443333Y-64418152D02*
X129443333Y-65084819D01*
X129014762Y-64418152D02*
X129014762Y-64941961D01*
X129014762Y-64941961D02*
X129062381Y-65037200D01*
X129062381Y-65037200D02*
X129157619Y-65084819D01*
X129157619Y-65084819D02*
X129300476Y-65084819D01*
X129300476Y-65084819D02*
X129395714Y-65037200D01*
X129395714Y-65037200D02*
X129443333Y-64989580D01*
X130586191Y-64084819D02*
X131252857Y-65084819D01*
X131252857Y-64084819D02*
X130586191Y-65084819D01*
X131538572Y-64084819D02*
X132205238Y-64084819D01*
X132205238Y-64084819D02*
X131776667Y-65084819D01*
X133157619Y-65084819D02*
X132824286Y-64608628D01*
X132586191Y-65084819D02*
X132586191Y-64084819D01*
X132586191Y-64084819D02*
X132967143Y-64084819D01*
X132967143Y-64084819D02*
X133062381Y-64132438D01*
X133062381Y-64132438D02*
X133110000Y-64180057D01*
X133110000Y-64180057D02*
X133157619Y-64275295D01*
X133157619Y-64275295D02*
X133157619Y-64418152D01*
X133157619Y-64418152D02*
X133110000Y-64513390D01*
X133110000Y-64513390D02*
X133062381Y-64561009D01*
X133062381Y-64561009D02*
X132967143Y-64608628D01*
X132967143Y-64608628D02*
X132586191Y-64608628D01*
X169146666Y-122981009D02*
X168813333Y-122981009D01*
X168813333Y-123504819D02*
X168813333Y-122504819D01*
X168813333Y-122504819D02*
X169289523Y-122504819D01*
X170003809Y-122981009D02*
X170146666Y-123028628D01*
X170146666Y-123028628D02*
X170194285Y-123076247D01*
X170194285Y-123076247D02*
X170241904Y-123171485D01*
X170241904Y-123171485D02*
X170241904Y-123314342D01*
X170241904Y-123314342D02*
X170194285Y-123409580D01*
X170194285Y-123409580D02*
X170146666Y-123457200D01*
X170146666Y-123457200D02*
X170051428Y-123504819D01*
X170051428Y-123504819D02*
X169670476Y-123504819D01*
X169670476Y-123504819D02*
X169670476Y-122504819D01*
X169670476Y-122504819D02*
X170003809Y-122504819D01*
X170003809Y-122504819D02*
X170099047Y-122552438D01*
X170099047Y-122552438D02*
X170146666Y-122600057D01*
X170146666Y-122600057D02*
X170194285Y-122695295D01*
X170194285Y-122695295D02*
X170194285Y-122790533D01*
X170194285Y-122790533D02*
X170146666Y-122885771D01*
X170146666Y-122885771D02*
X170099047Y-122933390D01*
X170099047Y-122933390D02*
X170003809Y-122981009D01*
X170003809Y-122981009D02*
X169670476Y-122981009D01*
X170575238Y-122504819D02*
X171194285Y-122504819D01*
X171194285Y-122504819D02*
X170860952Y-122885771D01*
X170860952Y-122885771D02*
X171003809Y-122885771D01*
X171003809Y-122885771D02*
X171099047Y-122933390D01*
X171099047Y-122933390D02*
X171146666Y-122981009D01*
X171146666Y-122981009D02*
X171194285Y-123076247D01*
X171194285Y-123076247D02*
X171194285Y-123314342D01*
X171194285Y-123314342D02*
X171146666Y-123409580D01*
X171146666Y-123409580D02*
X171099047Y-123457200D01*
X171099047Y-123457200D02*
X171003809Y-123504819D01*
X171003809Y-123504819D02*
X170718095Y-123504819D01*
X170718095Y-123504819D02*
X170622857Y-123457200D01*
X170622857Y-123457200D02*
X170575238Y-123409580D01*
X177153333Y-58564819D02*
X176820000Y-58088628D01*
X176581905Y-58564819D02*
X176581905Y-57564819D01*
X176581905Y-57564819D02*
X176962857Y-57564819D01*
X176962857Y-57564819D02*
X177058095Y-57612438D01*
X177058095Y-57612438D02*
X177105714Y-57660057D01*
X177105714Y-57660057D02*
X177153333Y-57755295D01*
X177153333Y-57755295D02*
X177153333Y-57898152D01*
X177153333Y-57898152D02*
X177105714Y-57993390D01*
X177105714Y-57993390D02*
X177058095Y-58041009D01*
X177058095Y-58041009D02*
X176962857Y-58088628D01*
X176962857Y-58088628D02*
X176581905Y-58088628D01*
X177534286Y-57660057D02*
X177581905Y-57612438D01*
X177581905Y-57612438D02*
X177677143Y-57564819D01*
X177677143Y-57564819D02*
X177915238Y-57564819D01*
X177915238Y-57564819D02*
X178010476Y-57612438D01*
X178010476Y-57612438D02*
X178058095Y-57660057D01*
X178058095Y-57660057D02*
X178105714Y-57755295D01*
X178105714Y-57755295D02*
X178105714Y-57850533D01*
X178105714Y-57850533D02*
X178058095Y-57993390D01*
X178058095Y-57993390D02*
X177486667Y-58564819D01*
X177486667Y-58564819D02*
X178105714Y-58564819D01*
X177154761Y-60104819D02*
X176583333Y-60104819D01*
X176869047Y-60104819D02*
X176869047Y-59104819D01*
X176869047Y-59104819D02*
X176773809Y-59247676D01*
X176773809Y-59247676D02*
X176678571Y-59342914D01*
X176678571Y-59342914D02*
X176583333Y-59390533D01*
X177773809Y-59104819D02*
X177869047Y-59104819D01*
X177869047Y-59104819D02*
X177964285Y-59152438D01*
X177964285Y-59152438D02*
X178011904Y-59200057D01*
X178011904Y-59200057D02*
X178059523Y-59295295D01*
X178059523Y-59295295D02*
X178107142Y-59485771D01*
X178107142Y-59485771D02*
X178107142Y-59723866D01*
X178107142Y-59723866D02*
X178059523Y-59914342D01*
X178059523Y-59914342D02*
X178011904Y-60009580D01*
X178011904Y-60009580D02*
X177964285Y-60057200D01*
X177964285Y-60057200D02*
X177869047Y-60104819D01*
X177869047Y-60104819D02*
X177773809Y-60104819D01*
X177773809Y-60104819D02*
X177678571Y-60057200D01*
X177678571Y-60057200D02*
X177630952Y-60009580D01*
X177630952Y-60009580D02*
X177583333Y-59914342D01*
X177583333Y-59914342D02*
X177535714Y-59723866D01*
X177535714Y-59723866D02*
X177535714Y-59485771D01*
X177535714Y-59485771D02*
X177583333Y-59295295D01*
X177583333Y-59295295D02*
X177630952Y-59200057D01*
X177630952Y-59200057D02*
X177678571Y-59152438D01*
X177678571Y-59152438D02*
X177773809Y-59104819D01*
X178535714Y-60104819D02*
X178535714Y-59104819D01*
X178630952Y-59723866D02*
X178916666Y-60104819D01*
X178916666Y-59438152D02*
X178535714Y-59819104D01*
X119891905Y-59204819D02*
X119891905Y-58204819D01*
X120463333Y-59204819D02*
X120034762Y-58633390D01*
X120463333Y-58204819D02*
X119891905Y-58776247D01*
X121415714Y-59204819D02*
X120844286Y-59204819D01*
X121130000Y-59204819D02*
X121130000Y-58204819D01*
X121130000Y-58204819D02*
X121034762Y-58347676D01*
X121034762Y-58347676D02*
X120939524Y-58442914D01*
X120939524Y-58442914D02*
X120844286Y-58490533D01*
X120174285Y-59832438D02*
X120079047Y-59784819D01*
X120079047Y-59784819D02*
X119936190Y-59784819D01*
X119936190Y-59784819D02*
X119793333Y-59832438D01*
X119793333Y-59832438D02*
X119698095Y-59927676D01*
X119698095Y-59927676D02*
X119650476Y-60022914D01*
X119650476Y-60022914D02*
X119602857Y-60213390D01*
X119602857Y-60213390D02*
X119602857Y-60356247D01*
X119602857Y-60356247D02*
X119650476Y-60546723D01*
X119650476Y-60546723D02*
X119698095Y-60641961D01*
X119698095Y-60641961D02*
X119793333Y-60737200D01*
X119793333Y-60737200D02*
X119936190Y-60784819D01*
X119936190Y-60784819D02*
X120031428Y-60784819D01*
X120031428Y-60784819D02*
X120174285Y-60737200D01*
X120174285Y-60737200D02*
X120221904Y-60689580D01*
X120221904Y-60689580D02*
X120221904Y-60356247D01*
X120221904Y-60356247D02*
X120031428Y-60356247D01*
X121079047Y-59784819D02*
X120888571Y-59784819D01*
X120888571Y-59784819D02*
X120793333Y-59832438D01*
X120793333Y-59832438D02*
X120745714Y-59880057D01*
X120745714Y-59880057D02*
X120650476Y-60022914D01*
X120650476Y-60022914D02*
X120602857Y-60213390D01*
X120602857Y-60213390D02*
X120602857Y-60594342D01*
X120602857Y-60594342D02*
X120650476Y-60689580D01*
X120650476Y-60689580D02*
X120698095Y-60737200D01*
X120698095Y-60737200D02*
X120793333Y-60784819D01*
X120793333Y-60784819D02*
X120983809Y-60784819D01*
X120983809Y-60784819D02*
X121079047Y-60737200D01*
X121079047Y-60737200D02*
X121126666Y-60689580D01*
X121126666Y-60689580D02*
X121174285Y-60594342D01*
X121174285Y-60594342D02*
X121174285Y-60356247D01*
X121174285Y-60356247D02*
X121126666Y-60261009D01*
X121126666Y-60261009D02*
X121079047Y-60213390D01*
X121079047Y-60213390D02*
X120983809Y-60165771D01*
X120983809Y-60165771D02*
X120793333Y-60165771D01*
X120793333Y-60165771D02*
X120698095Y-60213390D01*
X120698095Y-60213390D02*
X120650476Y-60261009D01*
X120650476Y-60261009D02*
X120602857Y-60356247D01*
X121602857Y-60784819D02*
X121602857Y-59784819D01*
X122174285Y-60784819D02*
X121745714Y-60213390D01*
X122174285Y-59784819D02*
X121602857Y-60356247D01*
X122602857Y-60403866D02*
X123364762Y-60403866D01*
X123793333Y-59880057D02*
X123840952Y-59832438D01*
X123840952Y-59832438D02*
X123936190Y-59784819D01*
X123936190Y-59784819D02*
X124174285Y-59784819D01*
X124174285Y-59784819D02*
X124269523Y-59832438D01*
X124269523Y-59832438D02*
X124317142Y-59880057D01*
X124317142Y-59880057D02*
X124364761Y-59975295D01*
X124364761Y-59975295D02*
X124364761Y-60070533D01*
X124364761Y-60070533D02*
X124317142Y-60213390D01*
X124317142Y-60213390D02*
X123745714Y-60784819D01*
X123745714Y-60784819D02*
X124364761Y-60784819D01*
X125126666Y-60261009D02*
X124793333Y-60261009D01*
X124793333Y-60784819D02*
X124793333Y-59784819D01*
X124793333Y-59784819D02*
X125269523Y-59784819D01*
X125650476Y-60403866D02*
X126412381Y-60403866D01*
X127079047Y-60308628D02*
X127079047Y-60784819D01*
X126745714Y-59784819D02*
X127079047Y-60308628D01*
X127079047Y-60308628D02*
X127412380Y-59784819D01*
X171667142Y-80804819D02*
X171333809Y-80328628D01*
X171095714Y-80804819D02*
X171095714Y-79804819D01*
X171095714Y-79804819D02*
X171476666Y-79804819D01*
X171476666Y-79804819D02*
X171571904Y-79852438D01*
X171571904Y-79852438D02*
X171619523Y-79900057D01*
X171619523Y-79900057D02*
X171667142Y-79995295D01*
X171667142Y-79995295D02*
X171667142Y-80138152D01*
X171667142Y-80138152D02*
X171619523Y-80233390D01*
X171619523Y-80233390D02*
X171571904Y-80281009D01*
X171571904Y-80281009D02*
X171476666Y-80328628D01*
X171476666Y-80328628D02*
X171095714Y-80328628D01*
X172524285Y-80138152D02*
X172524285Y-80804819D01*
X172286190Y-79757200D02*
X172048095Y-80471485D01*
X172048095Y-80471485D02*
X172667142Y-80471485D01*
X173571904Y-80804819D02*
X173000476Y-80804819D01*
X173286190Y-80804819D02*
X173286190Y-79804819D01*
X173286190Y-79804819D02*
X173190952Y-79947676D01*
X173190952Y-79947676D02*
X173095714Y-80042914D01*
X173095714Y-80042914D02*
X173000476Y-80090533D01*
X175534761Y-80754819D02*
X174963333Y-80754819D01*
X175249047Y-80754819D02*
X175249047Y-79754819D01*
X175249047Y-79754819D02*
X175153809Y-79897676D01*
X175153809Y-79897676D02*
X175058571Y-79992914D01*
X175058571Y-79992914D02*
X174963333Y-80040533D01*
X176153809Y-79754819D02*
X176249047Y-79754819D01*
X176249047Y-79754819D02*
X176344285Y-79802438D01*
X176344285Y-79802438D02*
X176391904Y-79850057D01*
X176391904Y-79850057D02*
X176439523Y-79945295D01*
X176439523Y-79945295D02*
X176487142Y-80135771D01*
X176487142Y-80135771D02*
X176487142Y-80373866D01*
X176487142Y-80373866D02*
X176439523Y-80564342D01*
X176439523Y-80564342D02*
X176391904Y-80659580D01*
X176391904Y-80659580D02*
X176344285Y-80707200D01*
X176344285Y-80707200D02*
X176249047Y-80754819D01*
X176249047Y-80754819D02*
X176153809Y-80754819D01*
X176153809Y-80754819D02*
X176058571Y-80707200D01*
X176058571Y-80707200D02*
X176010952Y-80659580D01*
X176010952Y-80659580D02*
X175963333Y-80564342D01*
X175963333Y-80564342D02*
X175915714Y-80373866D01*
X175915714Y-80373866D02*
X175915714Y-80135771D01*
X175915714Y-80135771D02*
X175963333Y-79945295D01*
X175963333Y-79945295D02*
X176010952Y-79850057D01*
X176010952Y-79850057D02*
X176058571Y-79802438D01*
X176058571Y-79802438D02*
X176153809Y-79754819D01*
X176915714Y-80754819D02*
X176915714Y-79754819D01*
X177010952Y-80373866D02*
X177296666Y-80754819D01*
X177296666Y-80088152D02*
X176915714Y-80469104D01*
X164493333Y-51524819D02*
X164160000Y-51048628D01*
X163921905Y-51524819D02*
X163921905Y-50524819D01*
X163921905Y-50524819D02*
X164302857Y-50524819D01*
X164302857Y-50524819D02*
X164398095Y-50572438D01*
X164398095Y-50572438D02*
X164445714Y-50620057D01*
X164445714Y-50620057D02*
X164493333Y-50715295D01*
X164493333Y-50715295D02*
X164493333Y-50858152D01*
X164493333Y-50858152D02*
X164445714Y-50953390D01*
X164445714Y-50953390D02*
X164398095Y-51001009D01*
X164398095Y-51001009D02*
X164302857Y-51048628D01*
X164302857Y-51048628D02*
X163921905Y-51048628D01*
X165350476Y-50524819D02*
X165160000Y-50524819D01*
X165160000Y-50524819D02*
X165064762Y-50572438D01*
X165064762Y-50572438D02*
X165017143Y-50620057D01*
X165017143Y-50620057D02*
X164921905Y-50762914D01*
X164921905Y-50762914D02*
X164874286Y-50953390D01*
X164874286Y-50953390D02*
X164874286Y-51334342D01*
X164874286Y-51334342D02*
X164921905Y-51429580D01*
X164921905Y-51429580D02*
X164969524Y-51477200D01*
X164969524Y-51477200D02*
X165064762Y-51524819D01*
X165064762Y-51524819D02*
X165255238Y-51524819D01*
X165255238Y-51524819D02*
X165350476Y-51477200D01*
X165350476Y-51477200D02*
X165398095Y-51429580D01*
X165398095Y-51429580D02*
X165445714Y-51334342D01*
X165445714Y-51334342D02*
X165445714Y-51096247D01*
X165445714Y-51096247D02*
X165398095Y-51001009D01*
X165398095Y-51001009D02*
X165350476Y-50953390D01*
X165350476Y-50953390D02*
X165255238Y-50905771D01*
X165255238Y-50905771D02*
X165064762Y-50905771D01*
X165064762Y-50905771D02*
X164969524Y-50953390D01*
X164969524Y-50953390D02*
X164921905Y-51001009D01*
X164921905Y-51001009D02*
X164874286Y-51096247D01*
X164440952Y-53164819D02*
X163869524Y-53164819D01*
X164155238Y-53164819D02*
X164155238Y-52164819D01*
X164155238Y-52164819D02*
X164060000Y-52307676D01*
X164060000Y-52307676D02*
X163964762Y-52402914D01*
X163964762Y-52402914D02*
X163869524Y-52450533D01*
X164869524Y-53164819D02*
X164869524Y-52164819D01*
X164964762Y-52783866D02*
X165250476Y-53164819D01*
X165250476Y-52498152D02*
X164869524Y-52879104D01*
X141447142Y-101869580D02*
X141399523Y-101917200D01*
X141399523Y-101917200D02*
X141256666Y-101964819D01*
X141256666Y-101964819D02*
X141161428Y-101964819D01*
X141161428Y-101964819D02*
X141018571Y-101917200D01*
X141018571Y-101917200D02*
X140923333Y-101821961D01*
X140923333Y-101821961D02*
X140875714Y-101726723D01*
X140875714Y-101726723D02*
X140828095Y-101536247D01*
X140828095Y-101536247D02*
X140828095Y-101393390D01*
X140828095Y-101393390D02*
X140875714Y-101202914D01*
X140875714Y-101202914D02*
X140923333Y-101107676D01*
X140923333Y-101107676D02*
X141018571Y-101012438D01*
X141018571Y-101012438D02*
X141161428Y-100964819D01*
X141161428Y-100964819D02*
X141256666Y-100964819D01*
X141256666Y-100964819D02*
X141399523Y-101012438D01*
X141399523Y-101012438D02*
X141447142Y-101060057D01*
X141780476Y-100964819D02*
X142399523Y-100964819D01*
X142399523Y-100964819D02*
X142066190Y-101345771D01*
X142066190Y-101345771D02*
X142209047Y-101345771D01*
X142209047Y-101345771D02*
X142304285Y-101393390D01*
X142304285Y-101393390D02*
X142351904Y-101441009D01*
X142351904Y-101441009D02*
X142399523Y-101536247D01*
X142399523Y-101536247D02*
X142399523Y-101774342D01*
X142399523Y-101774342D02*
X142351904Y-101869580D01*
X142351904Y-101869580D02*
X142304285Y-101917200D01*
X142304285Y-101917200D02*
X142209047Y-101964819D01*
X142209047Y-101964819D02*
X141923333Y-101964819D01*
X141923333Y-101964819D02*
X141828095Y-101917200D01*
X141828095Y-101917200D02*
X141780476Y-101869580D01*
X143256666Y-101298152D02*
X143256666Y-101964819D01*
X143018571Y-100917200D02*
X142780476Y-101631485D01*
X142780476Y-101631485D02*
X143399523Y-101631485D01*
X139930951Y-106804819D02*
X139359523Y-106804819D01*
X139645237Y-106804819D02*
X139645237Y-105804819D01*
X139645237Y-105804819D02*
X139549999Y-105947676D01*
X139549999Y-105947676D02*
X139454761Y-106042914D01*
X139454761Y-106042914D02*
X139359523Y-106090533D01*
X140549999Y-105804819D02*
X140645237Y-105804819D01*
X140645237Y-105804819D02*
X140740475Y-105852438D01*
X140740475Y-105852438D02*
X140788094Y-105900057D01*
X140788094Y-105900057D02*
X140835713Y-105995295D01*
X140835713Y-105995295D02*
X140883332Y-106185771D01*
X140883332Y-106185771D02*
X140883332Y-106423866D01*
X140883332Y-106423866D02*
X140835713Y-106614342D01*
X140835713Y-106614342D02*
X140788094Y-106709580D01*
X140788094Y-106709580D02*
X140740475Y-106757200D01*
X140740475Y-106757200D02*
X140645237Y-106804819D01*
X140645237Y-106804819D02*
X140549999Y-106804819D01*
X140549999Y-106804819D02*
X140454761Y-106757200D01*
X140454761Y-106757200D02*
X140407142Y-106709580D01*
X140407142Y-106709580D02*
X140359523Y-106614342D01*
X140359523Y-106614342D02*
X140311904Y-106423866D01*
X140311904Y-106423866D02*
X140311904Y-106185771D01*
X140311904Y-106185771D02*
X140359523Y-105995295D01*
X140359523Y-105995295D02*
X140407142Y-105900057D01*
X140407142Y-105900057D02*
X140454761Y-105852438D01*
X140454761Y-105852438D02*
X140549999Y-105804819D01*
X141740475Y-106138152D02*
X141740475Y-106804819D01*
X141311904Y-106138152D02*
X141311904Y-106661961D01*
X141311904Y-106661961D02*
X141359523Y-106757200D01*
X141359523Y-106757200D02*
X141454761Y-106804819D01*
X141454761Y-106804819D02*
X141597618Y-106804819D01*
X141597618Y-106804819D02*
X141692856Y-106757200D01*
X141692856Y-106757200D02*
X141740475Y-106709580D01*
X142835714Y-105804819D02*
X143407142Y-105804819D01*
X143121428Y-106804819D02*
X143121428Y-105804819D01*
X144169047Y-106804819D02*
X144169047Y-106281009D01*
X144169047Y-106281009D02*
X144121428Y-106185771D01*
X144121428Y-106185771D02*
X144026190Y-106138152D01*
X144026190Y-106138152D02*
X143835714Y-106138152D01*
X143835714Y-106138152D02*
X143740476Y-106185771D01*
X144169047Y-106757200D02*
X144073809Y-106804819D01*
X144073809Y-106804819D02*
X143835714Y-106804819D01*
X143835714Y-106804819D02*
X143740476Y-106757200D01*
X143740476Y-106757200D02*
X143692857Y-106661961D01*
X143692857Y-106661961D02*
X143692857Y-106566723D01*
X143692857Y-106566723D02*
X143740476Y-106471485D01*
X143740476Y-106471485D02*
X143835714Y-106423866D01*
X143835714Y-106423866D02*
X144073809Y-106423866D01*
X144073809Y-106423866D02*
X144169047Y-106376247D01*
X144788095Y-106804819D02*
X144692857Y-106757200D01*
X144692857Y-106757200D02*
X144645238Y-106661961D01*
X144645238Y-106661961D02*
X144645238Y-105804819D01*
X159676666Y-123954819D02*
X159676666Y-124669104D01*
X159676666Y-124669104D02*
X159629047Y-124811961D01*
X159629047Y-124811961D02*
X159533809Y-124907200D01*
X159533809Y-124907200D02*
X159390952Y-124954819D01*
X159390952Y-124954819D02*
X159295714Y-124954819D01*
X160057619Y-123954819D02*
X160724285Y-123954819D01*
X160724285Y-123954819D02*
X160295714Y-124954819D01*
X121546666Y-68864819D02*
X121546666Y-69579104D01*
X121546666Y-69579104D02*
X121499047Y-69721961D01*
X121499047Y-69721961D02*
X121403809Y-69817200D01*
X121403809Y-69817200D02*
X121260952Y-69864819D01*
X121260952Y-69864819D02*
X121165714Y-69864819D01*
X122070476Y-69864819D02*
X122260952Y-69864819D01*
X122260952Y-69864819D02*
X122356190Y-69817200D01*
X122356190Y-69817200D02*
X122403809Y-69769580D01*
X122403809Y-69769580D02*
X122499047Y-69626723D01*
X122499047Y-69626723D02*
X122546666Y-69436247D01*
X122546666Y-69436247D02*
X122546666Y-69055295D01*
X122546666Y-69055295D02*
X122499047Y-68960057D01*
X122499047Y-68960057D02*
X122451428Y-68912438D01*
X122451428Y-68912438D02*
X122356190Y-68864819D01*
X122356190Y-68864819D02*
X122165714Y-68864819D01*
X122165714Y-68864819D02*
X122070476Y-68912438D01*
X122070476Y-68912438D02*
X122022857Y-68960057D01*
X122022857Y-68960057D02*
X121975238Y-69055295D01*
X121975238Y-69055295D02*
X121975238Y-69293390D01*
X121975238Y-69293390D02*
X122022857Y-69388628D01*
X122022857Y-69388628D02*
X122070476Y-69436247D01*
X122070476Y-69436247D02*
X122165714Y-69483866D01*
X122165714Y-69483866D02*
X122356190Y-69483866D01*
X122356190Y-69483866D02*
X122451428Y-69436247D01*
X122451428Y-69436247D02*
X122499047Y-69388628D01*
X122499047Y-69388628D02*
X122546666Y-69293390D01*
X120078571Y-70951009D02*
X120221428Y-70998628D01*
X120221428Y-70998628D02*
X120269047Y-71046247D01*
X120269047Y-71046247D02*
X120316666Y-71141485D01*
X120316666Y-71141485D02*
X120316666Y-71284342D01*
X120316666Y-71284342D02*
X120269047Y-71379580D01*
X120269047Y-71379580D02*
X120221428Y-71427200D01*
X120221428Y-71427200D02*
X120126190Y-71474819D01*
X120126190Y-71474819D02*
X119745238Y-71474819D01*
X119745238Y-71474819D02*
X119745238Y-70474819D01*
X119745238Y-70474819D02*
X120078571Y-70474819D01*
X120078571Y-70474819D02*
X120173809Y-70522438D01*
X120173809Y-70522438D02*
X120221428Y-70570057D01*
X120221428Y-70570057D02*
X120269047Y-70665295D01*
X120269047Y-70665295D02*
X120269047Y-70760533D01*
X120269047Y-70760533D02*
X120221428Y-70855771D01*
X120221428Y-70855771D02*
X120173809Y-70903390D01*
X120173809Y-70903390D02*
X120078571Y-70951009D01*
X120078571Y-70951009D02*
X119745238Y-70951009D01*
X120650000Y-70808152D02*
X120888095Y-71474819D01*
X121126190Y-70808152D02*
X120888095Y-71474819D01*
X120888095Y-71474819D02*
X120792857Y-71712914D01*
X120792857Y-71712914D02*
X120745238Y-71760533D01*
X120745238Y-71760533D02*
X120650000Y-71808152D01*
X121507143Y-71474819D02*
X121507143Y-70474819D01*
X121507143Y-70474819D02*
X121888095Y-70474819D01*
X121888095Y-70474819D02*
X121983333Y-70522438D01*
X121983333Y-70522438D02*
X122030952Y-70570057D01*
X122030952Y-70570057D02*
X122078571Y-70665295D01*
X122078571Y-70665295D02*
X122078571Y-70808152D01*
X122078571Y-70808152D02*
X122030952Y-70903390D01*
X122030952Y-70903390D02*
X121983333Y-70951009D01*
X121983333Y-70951009D02*
X121888095Y-70998628D01*
X121888095Y-70998628D02*
X121507143Y-70998628D01*
X122935714Y-71474819D02*
X122935714Y-70951009D01*
X122935714Y-70951009D02*
X122888095Y-70855771D01*
X122888095Y-70855771D02*
X122792857Y-70808152D01*
X122792857Y-70808152D02*
X122602381Y-70808152D01*
X122602381Y-70808152D02*
X122507143Y-70855771D01*
X122935714Y-71427200D02*
X122840476Y-71474819D01*
X122840476Y-71474819D02*
X122602381Y-71474819D01*
X122602381Y-71474819D02*
X122507143Y-71427200D01*
X122507143Y-71427200D02*
X122459524Y-71331961D01*
X122459524Y-71331961D02*
X122459524Y-71236723D01*
X122459524Y-71236723D02*
X122507143Y-71141485D01*
X122507143Y-71141485D02*
X122602381Y-71093866D01*
X122602381Y-71093866D02*
X122840476Y-71093866D01*
X122840476Y-71093866D02*
X122935714Y-71046247D01*
X123364286Y-71427200D02*
X123459524Y-71474819D01*
X123459524Y-71474819D02*
X123650000Y-71474819D01*
X123650000Y-71474819D02*
X123745238Y-71427200D01*
X123745238Y-71427200D02*
X123792857Y-71331961D01*
X123792857Y-71331961D02*
X123792857Y-71284342D01*
X123792857Y-71284342D02*
X123745238Y-71189104D01*
X123745238Y-71189104D02*
X123650000Y-71141485D01*
X123650000Y-71141485D02*
X123507143Y-71141485D01*
X123507143Y-71141485D02*
X123411905Y-71093866D01*
X123411905Y-71093866D02*
X123364286Y-70998628D01*
X123364286Y-70998628D02*
X123364286Y-70951009D01*
X123364286Y-70951009D02*
X123411905Y-70855771D01*
X123411905Y-70855771D02*
X123507143Y-70808152D01*
X123507143Y-70808152D02*
X123650000Y-70808152D01*
X123650000Y-70808152D02*
X123745238Y-70855771D01*
X124173810Y-71427200D02*
X124269048Y-71474819D01*
X124269048Y-71474819D02*
X124459524Y-71474819D01*
X124459524Y-71474819D02*
X124554762Y-71427200D01*
X124554762Y-71427200D02*
X124602381Y-71331961D01*
X124602381Y-71331961D02*
X124602381Y-71284342D01*
X124602381Y-71284342D02*
X124554762Y-71189104D01*
X124554762Y-71189104D02*
X124459524Y-71141485D01*
X124459524Y-71141485D02*
X124316667Y-71141485D01*
X124316667Y-71141485D02*
X124221429Y-71093866D01*
X124221429Y-71093866D02*
X124173810Y-70998628D01*
X124173810Y-70998628D02*
X124173810Y-70951009D01*
X124173810Y-70951009D02*
X124221429Y-70855771D01*
X124221429Y-70855771D02*
X124316667Y-70808152D01*
X124316667Y-70808152D02*
X124459524Y-70808152D01*
X124459524Y-70808152D02*
X124554762Y-70855771D01*
X148427142Y-67279580D02*
X148379523Y-67327200D01*
X148379523Y-67327200D02*
X148236666Y-67374819D01*
X148236666Y-67374819D02*
X148141428Y-67374819D01*
X148141428Y-67374819D02*
X147998571Y-67327200D01*
X147998571Y-67327200D02*
X147903333Y-67231961D01*
X147903333Y-67231961D02*
X147855714Y-67136723D01*
X147855714Y-67136723D02*
X147808095Y-66946247D01*
X147808095Y-66946247D02*
X147808095Y-66803390D01*
X147808095Y-66803390D02*
X147855714Y-66612914D01*
X147855714Y-66612914D02*
X147903333Y-66517676D01*
X147903333Y-66517676D02*
X147998571Y-66422438D01*
X147998571Y-66422438D02*
X148141428Y-66374819D01*
X148141428Y-66374819D02*
X148236666Y-66374819D01*
X148236666Y-66374819D02*
X148379523Y-66422438D01*
X148379523Y-66422438D02*
X148427142Y-66470057D01*
X149379523Y-67374819D02*
X148808095Y-67374819D01*
X149093809Y-67374819D02*
X149093809Y-66374819D01*
X149093809Y-66374819D02*
X148998571Y-66517676D01*
X148998571Y-66517676D02*
X148903333Y-66612914D01*
X148903333Y-66612914D02*
X148808095Y-66660533D01*
X150284285Y-66374819D02*
X149808095Y-66374819D01*
X149808095Y-66374819D02*
X149760476Y-66851009D01*
X149760476Y-66851009D02*
X149808095Y-66803390D01*
X149808095Y-66803390D02*
X149903333Y-66755771D01*
X149903333Y-66755771D02*
X150141428Y-66755771D01*
X150141428Y-66755771D02*
X150236666Y-66803390D01*
X150236666Y-66803390D02*
X150284285Y-66851009D01*
X150284285Y-66851009D02*
X150331904Y-66946247D01*
X150331904Y-66946247D02*
X150331904Y-67184342D01*
X150331904Y-67184342D02*
X150284285Y-67279580D01*
X150284285Y-67279580D02*
X150236666Y-67327200D01*
X150236666Y-67327200D02*
X150141428Y-67374819D01*
X150141428Y-67374819D02*
X149903333Y-67374819D01*
X149903333Y-67374819D02*
X149808095Y-67327200D01*
X149808095Y-67327200D02*
X149760476Y-67279580D01*
X148483809Y-68814819D02*
X147912381Y-68814819D01*
X148198095Y-68814819D02*
X148198095Y-67814819D01*
X148198095Y-67814819D02*
X148102857Y-67957676D01*
X148102857Y-67957676D02*
X148007619Y-68052914D01*
X148007619Y-68052914D02*
X147912381Y-68100533D01*
X149102857Y-67814819D02*
X149198095Y-67814819D01*
X149198095Y-67814819D02*
X149293333Y-67862438D01*
X149293333Y-67862438D02*
X149340952Y-67910057D01*
X149340952Y-67910057D02*
X149388571Y-68005295D01*
X149388571Y-68005295D02*
X149436190Y-68195771D01*
X149436190Y-68195771D02*
X149436190Y-68433866D01*
X149436190Y-68433866D02*
X149388571Y-68624342D01*
X149388571Y-68624342D02*
X149340952Y-68719580D01*
X149340952Y-68719580D02*
X149293333Y-68767200D01*
X149293333Y-68767200D02*
X149198095Y-68814819D01*
X149198095Y-68814819D02*
X149102857Y-68814819D01*
X149102857Y-68814819D02*
X149007619Y-68767200D01*
X149007619Y-68767200D02*
X148960000Y-68719580D01*
X148960000Y-68719580D02*
X148912381Y-68624342D01*
X148912381Y-68624342D02*
X148864762Y-68433866D01*
X148864762Y-68433866D02*
X148864762Y-68195771D01*
X148864762Y-68195771D02*
X148912381Y-68005295D01*
X148912381Y-68005295D02*
X148960000Y-67910057D01*
X148960000Y-67910057D02*
X149007619Y-67862438D01*
X149007619Y-67862438D02*
X149102857Y-67814819D01*
X150293333Y-68148152D02*
X150293333Y-68814819D01*
X149864762Y-68148152D02*
X149864762Y-68671961D01*
X149864762Y-68671961D02*
X149912381Y-68767200D01*
X149912381Y-68767200D02*
X150007619Y-68814819D01*
X150007619Y-68814819D02*
X150150476Y-68814819D01*
X150150476Y-68814819D02*
X150245714Y-68767200D01*
X150245714Y-68767200D02*
X150293333Y-68719580D01*
X151436191Y-67814819D02*
X152102857Y-68814819D01*
X152102857Y-67814819D02*
X151436191Y-68814819D01*
X152388572Y-67814819D02*
X153055238Y-67814819D01*
X153055238Y-67814819D02*
X152626667Y-68814819D01*
X154007619Y-68814819D02*
X153674286Y-68338628D01*
X153436191Y-68814819D02*
X153436191Y-67814819D01*
X153436191Y-67814819D02*
X153817143Y-67814819D01*
X153817143Y-67814819D02*
X153912381Y-67862438D01*
X153912381Y-67862438D02*
X153960000Y-67910057D01*
X153960000Y-67910057D02*
X154007619Y-68005295D01*
X154007619Y-68005295D02*
X154007619Y-68148152D01*
X154007619Y-68148152D02*
X153960000Y-68243390D01*
X153960000Y-68243390D02*
X153912381Y-68291009D01*
X153912381Y-68291009D02*
X153817143Y-68338628D01*
X153817143Y-68338628D02*
X153436191Y-68338628D01*
X171477142Y-76754819D02*
X171143809Y-76278628D01*
X170905714Y-76754819D02*
X170905714Y-75754819D01*
X170905714Y-75754819D02*
X171286666Y-75754819D01*
X171286666Y-75754819D02*
X171381904Y-75802438D01*
X171381904Y-75802438D02*
X171429523Y-75850057D01*
X171429523Y-75850057D02*
X171477142Y-75945295D01*
X171477142Y-75945295D02*
X171477142Y-76088152D01*
X171477142Y-76088152D02*
X171429523Y-76183390D01*
X171429523Y-76183390D02*
X171381904Y-76231009D01*
X171381904Y-76231009D02*
X171286666Y-76278628D01*
X171286666Y-76278628D02*
X170905714Y-76278628D01*
X172334285Y-76088152D02*
X172334285Y-76754819D01*
X172096190Y-75707200D02*
X171858095Y-76421485D01*
X171858095Y-76421485D02*
X172477142Y-76421485D01*
X172762857Y-75754819D02*
X173381904Y-75754819D01*
X173381904Y-75754819D02*
X173048571Y-76135771D01*
X173048571Y-76135771D02*
X173191428Y-76135771D01*
X173191428Y-76135771D02*
X173286666Y-76183390D01*
X173286666Y-76183390D02*
X173334285Y-76231009D01*
X173334285Y-76231009D02*
X173381904Y-76326247D01*
X173381904Y-76326247D02*
X173381904Y-76564342D01*
X173381904Y-76564342D02*
X173334285Y-76659580D01*
X173334285Y-76659580D02*
X173286666Y-76707200D01*
X173286666Y-76707200D02*
X173191428Y-76754819D01*
X173191428Y-76754819D02*
X172905714Y-76754819D01*
X172905714Y-76754819D02*
X172810476Y-76707200D01*
X172810476Y-76707200D02*
X172762857Y-76659580D01*
X175964761Y-76904819D02*
X175393333Y-76904819D01*
X175679047Y-76904819D02*
X175679047Y-75904819D01*
X175679047Y-75904819D02*
X175583809Y-76047676D01*
X175583809Y-76047676D02*
X175488571Y-76142914D01*
X175488571Y-76142914D02*
X175393333Y-76190533D01*
X176583809Y-75904819D02*
X176679047Y-75904819D01*
X176679047Y-75904819D02*
X176774285Y-75952438D01*
X176774285Y-75952438D02*
X176821904Y-76000057D01*
X176821904Y-76000057D02*
X176869523Y-76095295D01*
X176869523Y-76095295D02*
X176917142Y-76285771D01*
X176917142Y-76285771D02*
X176917142Y-76523866D01*
X176917142Y-76523866D02*
X176869523Y-76714342D01*
X176869523Y-76714342D02*
X176821904Y-76809580D01*
X176821904Y-76809580D02*
X176774285Y-76857200D01*
X176774285Y-76857200D02*
X176679047Y-76904819D01*
X176679047Y-76904819D02*
X176583809Y-76904819D01*
X176583809Y-76904819D02*
X176488571Y-76857200D01*
X176488571Y-76857200D02*
X176440952Y-76809580D01*
X176440952Y-76809580D02*
X176393333Y-76714342D01*
X176393333Y-76714342D02*
X176345714Y-76523866D01*
X176345714Y-76523866D02*
X176345714Y-76285771D01*
X176345714Y-76285771D02*
X176393333Y-76095295D01*
X176393333Y-76095295D02*
X176440952Y-76000057D01*
X176440952Y-76000057D02*
X176488571Y-75952438D01*
X176488571Y-75952438D02*
X176583809Y-75904819D01*
X177345714Y-76904819D02*
X177345714Y-75904819D01*
X177440952Y-76523866D02*
X177726666Y-76904819D01*
X177726666Y-76238152D02*
X177345714Y-76619104D01*
D14*
%TO.C,C32*%
X149580000Y-111945000D02*
X149580000Y-116340000D01*
X152600000Y-111945000D02*
X149580000Y-111945000D01*
X152600000Y-116340000D02*
X152600000Y-111945000D01*
%TO.C,R40*%
X169780000Y-83112936D02*
X169780000Y-84567064D01*
X171600000Y-83112936D02*
X171600000Y-84567064D01*
%TO.C,J5*%
X126540000Y-114510000D02*
X126540000Y-113180000D01*
X127870000Y-114510000D02*
X126540000Y-114510000D01*
X129140000Y-111850000D02*
X144440000Y-111850000D01*
X129140000Y-114510000D02*
X129140000Y-111850000D01*
X129140000Y-114510000D02*
X144440000Y-114510000D01*
X144440000Y-114510000D02*
X144440000Y-111850000D01*
%TO.C,R14*%
X187830000Y-56172936D02*
X187830000Y-57627064D01*
X189650000Y-56172936D02*
X189650000Y-57627064D01*
%TO.C,C43*%
X165981252Y-90115000D02*
X165458748Y-90115000D01*
X165981252Y-91585000D02*
X165458748Y-91585000D01*
%TO.C,R44*%
X174172936Y-86590000D02*
X175627064Y-86590000D01*
X174172936Y-88410000D02*
X175627064Y-88410000D01*
%TO.C,C40*%
X165478748Y-92525000D02*
X166001252Y-92525000D01*
X165478748Y-93995000D02*
X166001252Y-93995000D01*
%TO.C,J6*%
X178170000Y-81090000D02*
X179500000Y-81090000D01*
X178170000Y-82420000D02*
X178170000Y-81090000D01*
X178170000Y-83690000D02*
X178170000Y-96450000D01*
X178170000Y-83690000D02*
X180830000Y-83690000D01*
X178170000Y-96450000D02*
X180830000Y-96450000D01*
X180830000Y-83690000D02*
X180830000Y-96450000D01*
%TO.C,C6*%
X142173752Y-83605000D02*
X141651248Y-83605000D01*
X142173752Y-85075000D02*
X141651248Y-85075000D01*
%TO.C,C7*%
X139942500Y-86480000D02*
X139942500Y-89500000D01*
X139942500Y-89500000D02*
X144337500Y-89500000D01*
X144337500Y-86480000D02*
X139942500Y-86480000D01*
%TO.C,C33*%
X141811252Y-107425000D02*
X141288748Y-107425000D01*
X141811252Y-108895000D02*
X141288748Y-108895000D01*
%TO.C,C29*%
X146590000Y-104767500D02*
X146590000Y-109162500D01*
X149610000Y-104767500D02*
X146590000Y-104767500D01*
X149610000Y-109162500D02*
X149610000Y-104767500D01*
%TO.C,R34*%
X129372936Y-68720000D02*
X130827064Y-68720000D01*
X129372936Y-70540000D02*
X130827064Y-70540000D01*
%TO.C,C41*%
X159190000Y-96387500D02*
X159190000Y-100782500D01*
X162210000Y-96387500D02*
X159190000Y-96387500D01*
X162210000Y-100782500D02*
X162210000Y-96387500D01*
%TO.C,R5*%
X172592936Y-48540000D02*
X174047064Y-48540000D01*
X172592936Y-50360000D02*
X174047064Y-50360000D01*
%TO.C,C11*%
X196291252Y-51750000D02*
X194868748Y-51750000D01*
X196291252Y-53570000D02*
X194868748Y-53570000D01*
%TO.C,RV1*%
D11*
X184060000Y-82170000D02*
X202560000Y-82170000D01*
X202560000Y-68170000D01*
X184060000Y-68170000D01*
X184060000Y-82170000D01*
D14*
%TO.C,R42*%
X174172936Y-84050000D02*
X175627064Y-84050000D01*
X174172936Y-85870000D02*
X175627064Y-85870000D01*
%TO.C,R10*%
X195990000Y-56072936D02*
X195990000Y-57527064D01*
X197810000Y-56072936D02*
X197810000Y-57527064D01*
%TO.C,FB1*%
X169234758Y-127640000D02*
X170905242Y-127640000D01*
X169234758Y-129460000D02*
X170905242Y-129460000D01*
%TO.C,R13*%
X187840000Y-51877064D02*
X187840000Y-50422936D01*
X189660000Y-51877064D02*
X189660000Y-50422936D01*
%TO.C,R24*%
X145230000Y-62882936D02*
X145230000Y-64337064D01*
X147050000Y-62882936D02*
X147050000Y-64337064D01*
%TO.C,C44*%
X159330000Y-83267500D02*
X159330000Y-87662500D01*
X162350000Y-83267500D02*
X159330000Y-83267500D01*
X162350000Y-87662500D02*
X162350000Y-83267500D01*
%TO.C,C2*%
X173941252Y-61110000D02*
X172518748Y-61110000D01*
X173941252Y-62930000D02*
X172518748Y-62930000D01*
%TO.C,C36*%
X133950000Y-98450000D02*
X138345000Y-98450000D01*
X138345000Y-95430000D02*
X133950000Y-95430000D01*
X138345000Y-98450000D02*
X138345000Y-95430000D01*
%TO.C,J8*%
X162710000Y-128430000D02*
X162710000Y-125830000D01*
X165370000Y-125830000D02*
X162710000Y-125830000D01*
X165370000Y-128430000D02*
X162710000Y-128430000D01*
X165370000Y-128430000D02*
X165370000Y-125830000D01*
X165370000Y-129700000D02*
X165370000Y-131030000D01*
X165370000Y-131030000D02*
X164040000Y-131030000D01*
%TO.C,C12*%
X190660000Y-56238748D02*
X190660000Y-57661252D01*
X192480000Y-56238748D02*
X192480000Y-57661252D01*
%TO.C,C9*%
X196311252Y-61100000D02*
X194888748Y-61100000D01*
X196311252Y-62920000D02*
X194888748Y-62920000D01*
%TO.C,RV2*%
D11*
X184060000Y-97600000D02*
X202560000Y-97600000D01*
X202560000Y-83600000D01*
X184060000Y-83600000D01*
X184060000Y-97600000D01*
D14*
%TO.C,C4*%
X174011252Y-52010000D02*
X172588748Y-52010000D01*
X174011252Y-53830000D02*
X172588748Y-53830000D01*
%TO.C,R12*%
X194852936Y-48640000D02*
X196307064Y-48640000D01*
X194852936Y-50460000D02*
X196307064Y-50460000D01*
%TO.C,C5*%
X166130000Y-56766248D02*
X166130000Y-58188752D01*
X167950000Y-56766248D02*
X167950000Y-58188752D01*
%TO.C,C35*%
X132351252Y-101895000D02*
X131828748Y-101895000D01*
X132351252Y-103365000D02*
X131828748Y-103365000D01*
%TO.C,C19*%
X129398748Y-65960000D02*
X130821252Y-65960000D01*
X129398748Y-67780000D02*
X130821252Y-67780000D01*
%TO.C,FB3*%
X169164758Y-124160000D02*
X170835242Y-124160000D01*
X169164758Y-125980000D02*
X170835242Y-125980000D01*
%TO.C,R2*%
X173880000Y-56512936D02*
X173880000Y-57967064D01*
X175700000Y-56512936D02*
X175700000Y-57967064D01*
%TO.C,K1*%
X118100000Y-49460000D02*
X118600000Y-49460000D01*
X118100000Y-56160000D02*
X118100000Y-49460000D01*
X118600000Y-56160000D02*
X118100000Y-56160000D01*
X120200000Y-49460000D02*
X120800000Y-49460000D01*
X120800000Y-56160000D02*
X120200000Y-56160000D01*
X122400000Y-49460000D02*
X123200000Y-49460000D01*
X123200000Y-56160000D02*
X122400000Y-56160000D01*
X124890000Y-49500000D02*
X126290000Y-49500000D01*
X126200000Y-56160000D02*
X124800000Y-56160000D01*
X126290000Y-49500000D02*
X126290000Y-48900000D01*
X127790000Y-49500000D02*
X127790000Y-48900000D01*
X128290000Y-49500000D02*
X127790000Y-49500000D01*
X128290000Y-49500000D02*
X128300000Y-56160000D01*
X128300000Y-56160000D02*
X127800000Y-56160000D01*
%TO.C,R41*%
X174212936Y-89140000D02*
X175667064Y-89140000D01*
X174212936Y-90960000D02*
X175667064Y-90960000D01*
%TO.C,R6*%
X166130000Y-51657064D02*
X166130000Y-50202936D01*
X167950000Y-51657064D02*
X167950000Y-50202936D01*
%TO.C,C34*%
X140280000Y-105380000D02*
X144675000Y-105380000D01*
X144675000Y-102360000D02*
X140280000Y-102360000D01*
X144675000Y-105380000D02*
X144675000Y-102360000D01*
%TO.C,J7*%
X158680000Y-128440000D02*
X158680000Y-125840000D01*
X161340000Y-125840000D02*
X158680000Y-125840000D01*
X161340000Y-128440000D02*
X158680000Y-128440000D01*
X161340000Y-128440000D02*
X161340000Y-125840000D01*
X161340000Y-129710000D02*
X161340000Y-131040000D01*
X161340000Y-131040000D02*
X160010000Y-131040000D01*
%TO.C,J9*%
X113685000Y-70810000D02*
X113685000Y-69480000D01*
X115015000Y-70810000D02*
X113685000Y-70810000D01*
X116285000Y-68150000D02*
X118885000Y-68150000D01*
X116285000Y-70810000D02*
X116285000Y-68150000D01*
X116285000Y-70810000D02*
X118885000Y-70810000D01*
X118885000Y-70810000D02*
X118885000Y-68150000D01*
%TO.C,C15*%
X148160000Y-62948748D02*
X148160000Y-64371252D01*
X149980000Y-62948748D02*
X149980000Y-64371252D01*
%TO.C,R43*%
X174112936Y-81480000D02*
X175567064Y-81480000D01*
X174112936Y-83300000D02*
X175567064Y-83300000D01*
%TD*%
M02*
