%TF.GenerationSoftware,KiCad,Pcbnew,10.0.1*%
%TF.CreationDate,2026-07-31T13:09:40+02:00*%
%TF.ProjectId,OSCAR_Audio,4f534341-525f-4417-9564-696f2e6b6963,rev?*%
%TF.SameCoordinates,Original*%
%TF.FileFunction,Paste,Top*%
%TF.FilePolarity,Positive*%
%FSLAX46Y46*%
G04 Gerber Fmt 4.6, Leading zero omitted, Abs format (unit mm)*
G04 Created by KiCad (PCBNEW 10.0.1) date 2026-07-31 13:09:40*
%MOMM*%
%LPD*%
G01*
G04 APERTURE LIST*
G04 Aperture macros list*
%AMRoundRect*
0 Rectangle with rounded corners*
0 $1 Rounding radius*
0 $2 $3 $4 $5 $6 $7 $8 $9 X,Y pos of 4 corners*
0 Add a 4 corners polygon primitive as box body*
4,1,4,$2,$3,$4,$5,$6,$7,$8,$9,$2,$3,0*
0 Add four circle primitives for the rounded corners*
1,1,$1+$1,$2,$3*
1,1,$1+$1,$4,$5*
1,1,$1+$1,$6,$7*
1,1,$1+$1,$8,$9*
0 Add four rect primitives between the rounded corners*
20,1,$1+$1,$2,$3,$4,$5,0*
20,1,$1+$1,$4,$5,$6,$7,0*
20,1,$1+$1,$6,$7,$8,$9,0*
20,1,$1+$1,$8,$9,$2,$3,0*%
G04 Aperture macros list end*
%ADD10RoundRect,0.250000X0.400000X0.625000X-0.400000X0.625000X-0.400000X-0.625000X0.400000X-0.625000X0*%
%ADD11RoundRect,0.250001X-0.944999X0.507499X-0.944999X-0.507499X0.944999X-0.507499X0.944999X0.507499X0*%
%ADD12RoundRect,0.250000X-0.625000X0.400000X-0.625000X-0.400000X0.625000X-0.400000X0.625000X0.400000X0*%
%ADD13RoundRect,0.250000X0.337500X0.475000X-0.337500X0.475000X-0.337500X-0.475000X0.337500X-0.475000X0*%
%ADD14RoundRect,0.250000X-0.400000X-0.625000X0.400000X-0.625000X0.400000X0.625000X-0.400000X0.625000X0*%
%ADD15RoundRect,0.250000X-0.337500X-0.475000X0.337500X-0.475000X0.337500X0.475000X-0.337500X0.475000X0*%
%ADD16RoundRect,0.250001X-0.507499X-0.944999X0.507499X-0.944999X0.507499X0.944999X-0.507499X0.944999X0*%
%ADD17RoundRect,0.250000X0.412500X0.650000X-0.412500X0.650000X-0.412500X-0.650000X0.412500X-0.650000X0*%
%ADD18RoundRect,0.250000X-0.362500X-0.700000X0.362500X-0.700000X0.362500X0.700000X-0.362500X0.700000X0*%
%ADD19RoundRect,0.250000X0.625000X-0.400000X0.625000X0.400000X-0.625000X0.400000X-0.625000X-0.400000X0*%
%ADD20RoundRect,0.250000X-0.412500X-0.650000X0.412500X-0.650000X0.412500X0.650000X-0.412500X0.650000X0*%
%ADD21RoundRect,0.250001X0.507499X0.944999X-0.507499X0.944999X-0.507499X-0.944999X0.507499X-0.944999X0*%
%ADD22R,1.800000X0.800000*%
%ADD23RoundRect,0.250000X-0.650000X0.412500X-0.650000X-0.412500X0.650000X-0.412500X0.650000X0.412500X0*%
%ADD24RoundRect,0.225000X-0.225000X-0.375000X0.225000X-0.375000X0.225000X0.375000X-0.225000X0.375000X0*%
G04 APERTURE END LIST*
D10*
%TO.C,R52*%
X147780000Y-71480000D03*
X144680000Y-71480000D03*
%TD*%
D11*
%TO.C,C32*%
X151090000Y-112962500D03*
X151090000Y-116217500D03*
%TD*%
D12*
%TO.C,R40*%
X170690000Y-82290000D03*
X170690000Y-85390000D03*
%TD*%
%TO.C,R14*%
X188740000Y-55350000D03*
X188740000Y-58450000D03*
%TD*%
D13*
%TO.C,C43*%
X166757500Y-90850000D03*
X164682500Y-90850000D03*
%TD*%
D14*
%TO.C,R44*%
X173350000Y-87500000D03*
X176450000Y-87500000D03*
%TD*%
D15*
%TO.C,C40*%
X164702500Y-93260000D03*
X166777500Y-93260000D03*
%TD*%
D13*
%TO.C,C6*%
X142950000Y-84340000D03*
X140875000Y-84340000D03*
%TD*%
D16*
%TO.C,C7*%
X140960000Y-87990000D03*
X144215000Y-87990000D03*
%TD*%
D13*
%TO.C,C33*%
X142587500Y-108160000D03*
X140512500Y-108160000D03*
%TD*%
D11*
%TO.C,C29*%
X148100000Y-105785000D03*
X148100000Y-109040000D03*
%TD*%
D12*
%TO.C,R34*%
X124430000Y-63530000D03*
X124430000Y-66630000D03*
%TD*%
D11*
%TO.C,C41*%
X160700000Y-97405000D03*
X160700000Y-100660000D03*
%TD*%
D14*
%TO.C,R5*%
X171770000Y-49450000D03*
X174870000Y-49450000D03*
%TD*%
D17*
%TO.C,C11*%
X197142500Y-52660000D03*
X194017500Y-52660000D03*
%TD*%
D14*
%TO.C,R42*%
X173350000Y-84960000D03*
X176450000Y-84960000D03*
%TD*%
D12*
%TO.C,R10*%
X196900000Y-55250000D03*
X196900000Y-58350000D03*
%TD*%
D18*
%TO.C,FB1*%
X168407500Y-128550000D03*
X171732500Y-128550000D03*
%TD*%
D19*
%TO.C,R13*%
X188750000Y-52700000D03*
X188750000Y-49600000D03*
%TD*%
D10*
%TO.C,R24*%
X145280000Y-65080000D03*
X142180000Y-65080000D03*
%TD*%
D11*
%TO.C,C44*%
X160840000Y-84285000D03*
X160840000Y-87540000D03*
%TD*%
D20*
%TO.C,C2*%
X171667500Y-63180000D03*
X174792500Y-63180000D03*
%TD*%
D21*
%TO.C,C36*%
X137327500Y-96940000D03*
X134072500Y-96940000D03*
%TD*%
D22*
%TO.C,K2*%
X120330000Y-52680000D03*
X120330000Y-55880000D03*
X120330000Y-58080000D03*
X120330000Y-60280000D03*
X127330000Y-60280000D03*
X127330000Y-58080000D03*
X127330000Y-55880000D03*
X127330000Y-52680000D03*
%TD*%
D23*
%TO.C,C12*%
X191570000Y-55387500D03*
X191570000Y-58512500D03*
%TD*%
D24*
%TO.C,D1*%
X142580000Y-48680000D03*
X145880000Y-48680000D03*
%TD*%
D20*
%TO.C,C9*%
X193767500Y-62280000D03*
X196892500Y-62280000D03*
%TD*%
D17*
%TO.C,C4*%
X174862500Y-52920000D03*
X171737500Y-52920000D03*
%TD*%
D14*
%TO.C,R12*%
X194030000Y-49550000D03*
X197130000Y-49550000D03*
%TD*%
D23*
%TO.C,C5*%
X167040000Y-55915000D03*
X167040000Y-59040000D03*
%TD*%
D13*
%TO.C,C35*%
X133127500Y-102630000D03*
X131052500Y-102630000D03*
%TD*%
D23*
%TO.C,C19*%
X127330000Y-63517500D03*
X127330000Y-66642500D03*
%TD*%
D18*
%TO.C,FB3*%
X168337500Y-125070000D03*
X171662500Y-125070000D03*
%TD*%
D12*
%TO.C,R2*%
X174790000Y-55690000D03*
X174790000Y-58790000D03*
%TD*%
D24*
%TO.C,D2*%
X118780000Y-48680000D03*
X122080000Y-48680000D03*
%TD*%
D22*
%TO.C,K1*%
X142530000Y-51780000D03*
X142530000Y-54980000D03*
X142530000Y-57180000D03*
X142530000Y-59380000D03*
X149530000Y-59380000D03*
X149530000Y-57180000D03*
X149530000Y-54980000D03*
X149530000Y-51780000D03*
%TD*%
D14*
%TO.C,R41*%
X173390000Y-90050000D03*
X176490000Y-90050000D03*
%TD*%
D19*
%TO.C,R6*%
X167040000Y-52480000D03*
X167040000Y-49380000D03*
%TD*%
D21*
%TO.C,C34*%
X143657500Y-103870000D03*
X140402500Y-103870000D03*
%TD*%
D20*
%TO.C,C15*%
X149367500Y-66180000D03*
X152492500Y-66180000D03*
%TD*%
D14*
%TO.C,R43*%
X173290000Y-82390000D03*
X176390000Y-82390000D03*
%TD*%
M02*
