%TF.GenerationSoftware,KiCad,Pcbnew,9.0.5*%
%TF.CreationDate,2025-11-16T19:00:11+01:00*%
%TF.ProjectId,OSCAR_Audio,4f534341-525f-4417-9564-696f2e6b6963,rev?*%
%TF.SameCoordinates,Original*%
%TF.FileFunction,Drillmap*%
%TF.FilePolarity,Positive*%
%FSLAX45Y45*%
G04 Gerber Fmt 4.5, Leading zero omitted, Abs format (unit mm)*
G04 Created by KiCad (PCBNEW 9.0.5) date 2025-11-16 19:00:11*
%MOMM*%
%LPD*%
G01*
G04 APERTURE LIST*
%ADD10C,0.200000*%
%ADD11C,0.100000*%
%ADD12C,0.320000*%
G04 APERTURE END LIST*
D10*
X11264000Y-13231000D02*
X11264000Y-4527000D01*
X12482000Y-13231000D02*
X11264000Y-13231000D01*
X12482000Y-12419000D02*
X12482000Y-13231000D01*
X15756000Y-12420000D02*
X12482000Y-12419000D01*
X11264000Y-4527000D02*
X20366000Y-4526000D01*
X20364000Y-13231000D02*
X15756000Y-13232000D01*
X20366000Y-4526000D02*
X20364000Y-13231000D01*
X15756000Y-13232000D02*
X15756000Y-12420000D01*
X18956000Y-6867000D02*
X19156000Y-7067000D01*
X19156000Y-6867000D02*
X18956000Y-7067000D01*
D11*
X19046000Y-7067000D02*
X19066000Y-7067000D01*
X19066000Y-6867000D02*
G75*
G02*
X19066000Y-7067000I0J-100000D01*
G01*
X19066000Y-6867000D02*
X19046000Y-6867000D01*
X19046000Y-6867000D02*
G75*
G03*
X19046000Y-7067000I0J-100000D01*
G01*
D10*
X18956000Y-7967000D02*
X19156000Y-8167000D01*
X19156000Y-7967000D02*
X18956000Y-8167000D01*
D11*
X19046000Y-8167000D02*
X19066000Y-8167000D01*
X19066000Y-7967000D02*
G75*
G02*
X19066000Y-8167000I0J-100000D01*
G01*
X19066000Y-7967000D02*
X19046000Y-7967000D01*
X19046000Y-7967000D02*
G75*
G03*
X19046000Y-8167000I0J-100000D01*
G01*
D10*
X18956000Y-8410000D02*
X19156000Y-8610000D01*
X19156000Y-8410000D02*
X18956000Y-8610000D01*
D11*
X19046000Y-8610000D02*
X19066000Y-8610000D01*
X19066000Y-8410000D02*
G75*
G02*
X19066000Y-8610000I0J-100000D01*
G01*
X19066000Y-8410000D02*
X19046000Y-8410000D01*
X19046000Y-8410000D02*
G75*
G03*
X19046000Y-8610000I0J-100000D01*
G01*
D10*
X18956000Y-9510000D02*
X19156000Y-9710000D01*
X19156000Y-9510000D02*
X18956000Y-9710000D01*
D11*
X19046000Y-9710000D02*
X19066000Y-9710000D01*
X19066000Y-9510000D02*
G75*
G02*
X19066000Y-9710000I0J-100000D01*
G01*
X19066000Y-9510000D02*
X19046000Y-9510000D01*
X19046000Y-9510000D02*
G75*
G03*
X19046000Y-9710000I0J-100000D01*
G01*
D12*
X11923000Y-12804000D02*
G75*
G02*
X11603000Y-12804000I-160000J0D01*
G01*
X11603000Y-12804000D02*
G75*
G02*
X11923000Y-12804000I160000J0D01*
G01*
X20039000Y-12794000D02*
G75*
G02*
X19719000Y-12794000I-160000J0D01*
G01*
X19719000Y-12794000D02*
G75*
G02*
X20039000Y-12794000I160000J0D01*
G01*
D10*
X11514777Y-13553484D02*
X11514777Y-13353484D01*
X11514777Y-13353484D02*
X11562396Y-13353484D01*
X11562396Y-13353484D02*
X11590967Y-13363008D01*
X11590967Y-13363008D02*
X11610015Y-13382055D01*
X11610015Y-13382055D02*
X11619539Y-13401103D01*
X11619539Y-13401103D02*
X11629062Y-13439198D01*
X11629062Y-13439198D02*
X11629062Y-13467769D01*
X11629062Y-13467769D02*
X11619539Y-13505865D01*
X11619539Y-13505865D02*
X11610015Y-13524912D01*
X11610015Y-13524912D02*
X11590967Y-13543960D01*
X11590967Y-13543960D02*
X11562396Y-13553484D01*
X11562396Y-13553484D02*
X11514777Y-13553484D01*
X11714777Y-13553484D02*
X11714777Y-13420150D01*
X11714777Y-13458246D02*
X11724301Y-13439198D01*
X11724301Y-13439198D02*
X11733824Y-13429674D01*
X11733824Y-13429674D02*
X11752872Y-13420150D01*
X11752872Y-13420150D02*
X11771920Y-13420150D01*
X11838586Y-13553484D02*
X11838586Y-13420150D01*
X11838586Y-13353484D02*
X11829062Y-13363008D01*
X11829062Y-13363008D02*
X11838586Y-13372531D01*
X11838586Y-13372531D02*
X11848110Y-13363008D01*
X11848110Y-13363008D02*
X11838586Y-13353484D01*
X11838586Y-13353484D02*
X11838586Y-13372531D01*
X11962396Y-13553484D02*
X11943348Y-13543960D01*
X11943348Y-13543960D02*
X11933824Y-13524912D01*
X11933824Y-13524912D02*
X11933824Y-13353484D01*
X12067158Y-13553484D02*
X12048110Y-13543960D01*
X12048110Y-13543960D02*
X12038586Y-13524912D01*
X12038586Y-13524912D02*
X12038586Y-13353484D01*
X12295729Y-13553484D02*
X12295729Y-13353484D01*
X12295729Y-13353484D02*
X12362396Y-13496341D01*
X12362396Y-13496341D02*
X12429062Y-13353484D01*
X12429062Y-13353484D02*
X12429062Y-13553484D01*
X12610015Y-13553484D02*
X12610015Y-13448722D01*
X12610015Y-13448722D02*
X12600491Y-13429674D01*
X12600491Y-13429674D02*
X12581443Y-13420150D01*
X12581443Y-13420150D02*
X12543348Y-13420150D01*
X12543348Y-13420150D02*
X12524301Y-13429674D01*
X12610015Y-13543960D02*
X12590967Y-13553484D01*
X12590967Y-13553484D02*
X12543348Y-13553484D01*
X12543348Y-13553484D02*
X12524301Y-13543960D01*
X12524301Y-13543960D02*
X12514777Y-13524912D01*
X12514777Y-13524912D02*
X12514777Y-13505865D01*
X12514777Y-13505865D02*
X12524301Y-13486817D01*
X12524301Y-13486817D02*
X12543348Y-13477293D01*
X12543348Y-13477293D02*
X12590967Y-13477293D01*
X12590967Y-13477293D02*
X12610015Y-13467769D01*
X12705253Y-13420150D02*
X12705253Y-13620150D01*
X12705253Y-13429674D02*
X12724301Y-13420150D01*
X12724301Y-13420150D02*
X12762396Y-13420150D01*
X12762396Y-13420150D02*
X12781443Y-13429674D01*
X12781443Y-13429674D02*
X12790967Y-13439198D01*
X12790967Y-13439198D02*
X12800491Y-13458246D01*
X12800491Y-13458246D02*
X12800491Y-13515388D01*
X12800491Y-13515388D02*
X12790967Y-13534436D01*
X12790967Y-13534436D02*
X12781443Y-13543960D01*
X12781443Y-13543960D02*
X12762396Y-13553484D01*
X12762396Y-13553484D02*
X12724301Y-13553484D01*
X12724301Y-13553484D02*
X12705253Y-13543960D01*
X12886205Y-13534436D02*
X12895729Y-13543960D01*
X12895729Y-13543960D02*
X12886205Y-13553484D01*
X12886205Y-13553484D02*
X12876682Y-13543960D01*
X12876682Y-13543960D02*
X12886205Y-13534436D01*
X12886205Y-13534436D02*
X12886205Y-13553484D01*
X12886205Y-13429674D02*
X12895729Y-13439198D01*
X12895729Y-13439198D02*
X12886205Y-13448722D01*
X12886205Y-13448722D02*
X12876682Y-13439198D01*
X12876682Y-13439198D02*
X12886205Y-13429674D01*
X12886205Y-13429674D02*
X12886205Y-13448722D01*
X11054000Y-13782000D02*
X11254000Y-13982000D01*
X11254000Y-13782000D02*
X11054000Y-13982000D01*
X11505253Y-13792531D02*
X11514777Y-13783008D01*
X11514777Y-13783008D02*
X11533824Y-13773484D01*
X11533824Y-13773484D02*
X11581443Y-13773484D01*
X11581443Y-13773484D02*
X11600491Y-13783008D01*
X11600491Y-13783008D02*
X11610015Y-13792531D01*
X11610015Y-13792531D02*
X11619539Y-13811579D01*
X11619539Y-13811579D02*
X11619539Y-13830627D01*
X11619539Y-13830627D02*
X11610015Y-13859198D01*
X11610015Y-13859198D02*
X11495729Y-13973484D01*
X11495729Y-13973484D02*
X11619539Y-13973484D01*
X11705253Y-13954436D02*
X11714777Y-13963960D01*
X11714777Y-13963960D02*
X11705253Y-13973484D01*
X11705253Y-13973484D02*
X11695729Y-13963960D01*
X11695729Y-13963960D02*
X11705253Y-13954436D01*
X11705253Y-13954436D02*
X11705253Y-13973484D01*
X11838586Y-13773484D02*
X11857634Y-13773484D01*
X11857634Y-13773484D02*
X11876682Y-13783008D01*
X11876682Y-13783008D02*
X11886205Y-13792531D01*
X11886205Y-13792531D02*
X11895729Y-13811579D01*
X11895729Y-13811579D02*
X11905253Y-13849674D01*
X11905253Y-13849674D02*
X11905253Y-13897293D01*
X11905253Y-13897293D02*
X11895729Y-13935388D01*
X11895729Y-13935388D02*
X11886205Y-13954436D01*
X11886205Y-13954436D02*
X11876682Y-13963960D01*
X11876682Y-13963960D02*
X11857634Y-13973484D01*
X11857634Y-13973484D02*
X11838586Y-13973484D01*
X11838586Y-13973484D02*
X11819539Y-13963960D01*
X11819539Y-13963960D02*
X11810015Y-13954436D01*
X11810015Y-13954436D02*
X11800491Y-13935388D01*
X11800491Y-13935388D02*
X11790967Y-13897293D01*
X11790967Y-13897293D02*
X11790967Y-13849674D01*
X11790967Y-13849674D02*
X11800491Y-13811579D01*
X11800491Y-13811579D02*
X11810015Y-13792531D01*
X11810015Y-13792531D02*
X11819539Y-13783008D01*
X11819539Y-13783008D02*
X11838586Y-13773484D01*
X12029062Y-13773484D02*
X12048110Y-13773484D01*
X12048110Y-13773484D02*
X12067158Y-13783008D01*
X12067158Y-13783008D02*
X12076682Y-13792531D01*
X12076682Y-13792531D02*
X12086205Y-13811579D01*
X12086205Y-13811579D02*
X12095729Y-13849674D01*
X12095729Y-13849674D02*
X12095729Y-13897293D01*
X12095729Y-13897293D02*
X12086205Y-13935388D01*
X12086205Y-13935388D02*
X12076682Y-13954436D01*
X12076682Y-13954436D02*
X12067158Y-13963960D01*
X12067158Y-13963960D02*
X12048110Y-13973484D01*
X12048110Y-13973484D02*
X12029062Y-13973484D01*
X12029062Y-13973484D02*
X12010015Y-13963960D01*
X12010015Y-13963960D02*
X12000491Y-13954436D01*
X12000491Y-13954436D02*
X11990967Y-13935388D01*
X11990967Y-13935388D02*
X11981443Y-13897293D01*
X11981443Y-13897293D02*
X11981443Y-13849674D01*
X11981443Y-13849674D02*
X11990967Y-13811579D01*
X11990967Y-13811579D02*
X12000491Y-13792531D01*
X12000491Y-13792531D02*
X12010015Y-13783008D01*
X12010015Y-13783008D02*
X12029062Y-13773484D01*
X12219539Y-13773484D02*
X12238586Y-13773484D01*
X12238586Y-13773484D02*
X12257634Y-13783008D01*
X12257634Y-13783008D02*
X12267158Y-13792531D01*
X12267158Y-13792531D02*
X12276682Y-13811579D01*
X12276682Y-13811579D02*
X12286205Y-13849674D01*
X12286205Y-13849674D02*
X12286205Y-13897293D01*
X12286205Y-13897293D02*
X12276682Y-13935388D01*
X12276682Y-13935388D02*
X12267158Y-13954436D01*
X12267158Y-13954436D02*
X12257634Y-13963960D01*
X12257634Y-13963960D02*
X12238586Y-13973484D01*
X12238586Y-13973484D02*
X12219539Y-13973484D01*
X12219539Y-13973484D02*
X12200491Y-13963960D01*
X12200491Y-13963960D02*
X12190967Y-13954436D01*
X12190967Y-13954436D02*
X12181443Y-13935388D01*
X12181443Y-13935388D02*
X12171920Y-13897293D01*
X12171920Y-13897293D02*
X12171920Y-13849674D01*
X12171920Y-13849674D02*
X12181443Y-13811579D01*
X12181443Y-13811579D02*
X12190967Y-13792531D01*
X12190967Y-13792531D02*
X12200491Y-13783008D01*
X12200491Y-13783008D02*
X12219539Y-13773484D01*
X12371920Y-13973484D02*
X12371920Y-13840150D01*
X12371920Y-13859198D02*
X12381443Y-13849674D01*
X12381443Y-13849674D02*
X12400491Y-13840150D01*
X12400491Y-13840150D02*
X12429063Y-13840150D01*
X12429063Y-13840150D02*
X12448110Y-13849674D01*
X12448110Y-13849674D02*
X12457634Y-13868722D01*
X12457634Y-13868722D02*
X12457634Y-13973484D01*
X12457634Y-13868722D02*
X12467158Y-13849674D01*
X12467158Y-13849674D02*
X12486205Y-13840150D01*
X12486205Y-13840150D02*
X12514777Y-13840150D01*
X12514777Y-13840150D02*
X12533824Y-13849674D01*
X12533824Y-13849674D02*
X12543348Y-13868722D01*
X12543348Y-13868722D02*
X12543348Y-13973484D01*
X12638586Y-13973484D02*
X12638586Y-13840150D01*
X12638586Y-13859198D02*
X12648110Y-13849674D01*
X12648110Y-13849674D02*
X12667158Y-13840150D01*
X12667158Y-13840150D02*
X12695729Y-13840150D01*
X12695729Y-13840150D02*
X12714777Y-13849674D01*
X12714777Y-13849674D02*
X12724301Y-13868722D01*
X12724301Y-13868722D02*
X12724301Y-13973484D01*
X12724301Y-13868722D02*
X12733824Y-13849674D01*
X12733824Y-13849674D02*
X12752872Y-13840150D01*
X12752872Y-13840150D02*
X12781443Y-13840150D01*
X12781443Y-13840150D02*
X12800491Y-13849674D01*
X12800491Y-13849674D02*
X12810015Y-13868722D01*
X12810015Y-13868722D02*
X12810015Y-13973484D01*
X13200491Y-13763960D02*
X13029063Y-14021103D01*
X13457634Y-13773484D02*
X13476682Y-13773484D01*
X13476682Y-13773484D02*
X13495729Y-13783008D01*
X13495729Y-13783008D02*
X13505253Y-13792531D01*
X13505253Y-13792531D02*
X13514777Y-13811579D01*
X13514777Y-13811579D02*
X13524301Y-13849674D01*
X13524301Y-13849674D02*
X13524301Y-13897293D01*
X13524301Y-13897293D02*
X13514777Y-13935388D01*
X13514777Y-13935388D02*
X13505253Y-13954436D01*
X13505253Y-13954436D02*
X13495729Y-13963960D01*
X13495729Y-13963960D02*
X13476682Y-13973484D01*
X13476682Y-13973484D02*
X13457634Y-13973484D01*
X13457634Y-13973484D02*
X13438586Y-13963960D01*
X13438586Y-13963960D02*
X13429063Y-13954436D01*
X13429063Y-13954436D02*
X13419539Y-13935388D01*
X13419539Y-13935388D02*
X13410015Y-13897293D01*
X13410015Y-13897293D02*
X13410015Y-13849674D01*
X13410015Y-13849674D02*
X13419539Y-13811579D01*
X13419539Y-13811579D02*
X13429063Y-13792531D01*
X13429063Y-13792531D02*
X13438586Y-13783008D01*
X13438586Y-13783008D02*
X13457634Y-13773484D01*
X13610015Y-13954436D02*
X13619539Y-13963960D01*
X13619539Y-13963960D02*
X13610015Y-13973484D01*
X13610015Y-13973484D02*
X13600491Y-13963960D01*
X13600491Y-13963960D02*
X13610015Y-13954436D01*
X13610015Y-13954436D02*
X13610015Y-13973484D01*
X13743348Y-13773484D02*
X13762396Y-13773484D01*
X13762396Y-13773484D02*
X13781444Y-13783008D01*
X13781444Y-13783008D02*
X13790967Y-13792531D01*
X13790967Y-13792531D02*
X13800491Y-13811579D01*
X13800491Y-13811579D02*
X13810015Y-13849674D01*
X13810015Y-13849674D02*
X13810015Y-13897293D01*
X13810015Y-13897293D02*
X13800491Y-13935388D01*
X13800491Y-13935388D02*
X13790967Y-13954436D01*
X13790967Y-13954436D02*
X13781444Y-13963960D01*
X13781444Y-13963960D02*
X13762396Y-13973484D01*
X13762396Y-13973484D02*
X13743348Y-13973484D01*
X13743348Y-13973484D02*
X13724301Y-13963960D01*
X13724301Y-13963960D02*
X13714777Y-13954436D01*
X13714777Y-13954436D02*
X13705253Y-13935388D01*
X13705253Y-13935388D02*
X13695729Y-13897293D01*
X13695729Y-13897293D02*
X13695729Y-13849674D01*
X13695729Y-13849674D02*
X13705253Y-13811579D01*
X13705253Y-13811579D02*
X13714777Y-13792531D01*
X13714777Y-13792531D02*
X13724301Y-13783008D01*
X13724301Y-13783008D02*
X13743348Y-13773484D01*
X13876682Y-13773484D02*
X14010015Y-13773484D01*
X14010015Y-13773484D02*
X13924301Y-13973484D01*
X14114777Y-13859198D02*
X14095729Y-13849674D01*
X14095729Y-13849674D02*
X14086206Y-13840150D01*
X14086206Y-13840150D02*
X14076682Y-13821103D01*
X14076682Y-13821103D02*
X14076682Y-13811579D01*
X14076682Y-13811579D02*
X14086206Y-13792531D01*
X14086206Y-13792531D02*
X14095729Y-13783008D01*
X14095729Y-13783008D02*
X14114777Y-13773484D01*
X14114777Y-13773484D02*
X14152872Y-13773484D01*
X14152872Y-13773484D02*
X14171920Y-13783008D01*
X14171920Y-13783008D02*
X14181444Y-13792531D01*
X14181444Y-13792531D02*
X14190967Y-13811579D01*
X14190967Y-13811579D02*
X14190967Y-13821103D01*
X14190967Y-13821103D02*
X14181444Y-13840150D01*
X14181444Y-13840150D02*
X14171920Y-13849674D01*
X14171920Y-13849674D02*
X14152872Y-13859198D01*
X14152872Y-13859198D02*
X14114777Y-13859198D01*
X14114777Y-13859198D02*
X14095729Y-13868722D01*
X14095729Y-13868722D02*
X14086206Y-13878246D01*
X14086206Y-13878246D02*
X14076682Y-13897293D01*
X14076682Y-13897293D02*
X14076682Y-13935388D01*
X14076682Y-13935388D02*
X14086206Y-13954436D01*
X14086206Y-13954436D02*
X14095729Y-13963960D01*
X14095729Y-13963960D02*
X14114777Y-13973484D01*
X14114777Y-13973484D02*
X14152872Y-13973484D01*
X14152872Y-13973484D02*
X14171920Y-13963960D01*
X14171920Y-13963960D02*
X14181444Y-13954436D01*
X14181444Y-13954436D02*
X14190967Y-13935388D01*
X14190967Y-13935388D02*
X14190967Y-13897293D01*
X14190967Y-13897293D02*
X14181444Y-13878246D01*
X14181444Y-13878246D02*
X14171920Y-13868722D01*
X14171920Y-13868722D02*
X14152872Y-13859198D01*
X14257634Y-13773484D02*
X14390967Y-13773484D01*
X14390967Y-13773484D02*
X14305253Y-13973484D01*
X14457634Y-13773484D02*
X14457634Y-13811579D01*
X14533825Y-13773484D02*
X14533825Y-13811579D01*
X14829063Y-14049674D02*
X14819539Y-14040150D01*
X14819539Y-14040150D02*
X14800491Y-14011579D01*
X14800491Y-14011579D02*
X14790968Y-13992531D01*
X14790968Y-13992531D02*
X14781444Y-13963960D01*
X14781444Y-13963960D02*
X14771920Y-13916341D01*
X14771920Y-13916341D02*
X14771920Y-13878246D01*
X14771920Y-13878246D02*
X14781444Y-13830627D01*
X14781444Y-13830627D02*
X14790968Y-13802055D01*
X14790968Y-13802055D02*
X14800491Y-13783008D01*
X14800491Y-13783008D02*
X14819539Y-13754436D01*
X14819539Y-13754436D02*
X14829063Y-13744912D01*
X14943348Y-13773484D02*
X14962396Y-13773484D01*
X14962396Y-13773484D02*
X14981444Y-13783008D01*
X14981444Y-13783008D02*
X14990968Y-13792531D01*
X14990968Y-13792531D02*
X15000491Y-13811579D01*
X15000491Y-13811579D02*
X15010015Y-13849674D01*
X15010015Y-13849674D02*
X15010015Y-13897293D01*
X15010015Y-13897293D02*
X15000491Y-13935388D01*
X15000491Y-13935388D02*
X14990968Y-13954436D01*
X14990968Y-13954436D02*
X14981444Y-13963960D01*
X14981444Y-13963960D02*
X14962396Y-13973484D01*
X14962396Y-13973484D02*
X14943348Y-13973484D01*
X14943348Y-13973484D02*
X14924301Y-13963960D01*
X14924301Y-13963960D02*
X14914777Y-13954436D01*
X14914777Y-13954436D02*
X14905253Y-13935388D01*
X14905253Y-13935388D02*
X14895729Y-13897293D01*
X14895729Y-13897293D02*
X14895729Y-13849674D01*
X14895729Y-13849674D02*
X14905253Y-13811579D01*
X14905253Y-13811579D02*
X14914777Y-13792531D01*
X14914777Y-13792531D02*
X14924301Y-13783008D01*
X14924301Y-13783008D02*
X14943348Y-13773484D01*
X15248110Y-13973484D02*
X15248110Y-13773484D01*
X15333825Y-13973484D02*
X15333825Y-13868722D01*
X15333825Y-13868722D02*
X15324301Y-13849674D01*
X15324301Y-13849674D02*
X15305253Y-13840150D01*
X15305253Y-13840150D02*
X15276682Y-13840150D01*
X15276682Y-13840150D02*
X15257634Y-13849674D01*
X15257634Y-13849674D02*
X15248110Y-13859198D01*
X15457634Y-13973484D02*
X15438587Y-13963960D01*
X15438587Y-13963960D02*
X15429063Y-13954436D01*
X15429063Y-13954436D02*
X15419539Y-13935388D01*
X15419539Y-13935388D02*
X15419539Y-13878246D01*
X15419539Y-13878246D02*
X15429063Y-13859198D01*
X15429063Y-13859198D02*
X15438587Y-13849674D01*
X15438587Y-13849674D02*
X15457634Y-13840150D01*
X15457634Y-13840150D02*
X15486206Y-13840150D01*
X15486206Y-13840150D02*
X15505253Y-13849674D01*
X15505253Y-13849674D02*
X15514777Y-13859198D01*
X15514777Y-13859198D02*
X15524301Y-13878246D01*
X15524301Y-13878246D02*
X15524301Y-13935388D01*
X15524301Y-13935388D02*
X15514777Y-13954436D01*
X15514777Y-13954436D02*
X15505253Y-13963960D01*
X15505253Y-13963960D02*
X15486206Y-13973484D01*
X15486206Y-13973484D02*
X15457634Y-13973484D01*
X15638587Y-13973484D02*
X15619539Y-13963960D01*
X15619539Y-13963960D02*
X15610015Y-13944912D01*
X15610015Y-13944912D02*
X15610015Y-13773484D01*
X15790968Y-13963960D02*
X15771920Y-13973484D01*
X15771920Y-13973484D02*
X15733825Y-13973484D01*
X15733825Y-13973484D02*
X15714777Y-13963960D01*
X15714777Y-13963960D02*
X15705253Y-13944912D01*
X15705253Y-13944912D02*
X15705253Y-13868722D01*
X15705253Y-13868722D02*
X15714777Y-13849674D01*
X15714777Y-13849674D02*
X15733825Y-13840150D01*
X15733825Y-13840150D02*
X15771920Y-13840150D01*
X15771920Y-13840150D02*
X15790968Y-13849674D01*
X15790968Y-13849674D02*
X15800491Y-13868722D01*
X15800491Y-13868722D02*
X15800491Y-13887769D01*
X15800491Y-13887769D02*
X15705253Y-13906817D01*
X15876682Y-13963960D02*
X15895730Y-13973484D01*
X15895730Y-13973484D02*
X15933825Y-13973484D01*
X15933825Y-13973484D02*
X15952872Y-13963960D01*
X15952872Y-13963960D02*
X15962396Y-13944912D01*
X15962396Y-13944912D02*
X15962396Y-13935388D01*
X15962396Y-13935388D02*
X15952872Y-13916341D01*
X15952872Y-13916341D02*
X15933825Y-13906817D01*
X15933825Y-13906817D02*
X15905253Y-13906817D01*
X15905253Y-13906817D02*
X15886206Y-13897293D01*
X15886206Y-13897293D02*
X15876682Y-13878246D01*
X15876682Y-13878246D02*
X15876682Y-13868722D01*
X15876682Y-13868722D02*
X15886206Y-13849674D01*
X15886206Y-13849674D02*
X15905253Y-13840150D01*
X15905253Y-13840150D02*
X15933825Y-13840150D01*
X15933825Y-13840150D02*
X15952872Y-13849674D01*
X16200492Y-13897293D02*
X16352873Y-13897293D01*
X16276682Y-13973484D02*
X16276682Y-13821103D01*
X16686206Y-13840150D02*
X16686206Y-13973484D01*
X16638587Y-13763960D02*
X16590968Y-13906817D01*
X16590968Y-13906817D02*
X16714777Y-13906817D01*
X16933825Y-13963960D02*
X16952873Y-13973484D01*
X16952873Y-13973484D02*
X16990968Y-13973484D01*
X16990968Y-13973484D02*
X17010016Y-13963960D01*
X17010016Y-13963960D02*
X17019539Y-13944912D01*
X17019539Y-13944912D02*
X17019539Y-13935388D01*
X17019539Y-13935388D02*
X17010016Y-13916341D01*
X17010016Y-13916341D02*
X16990968Y-13906817D01*
X16990968Y-13906817D02*
X16962396Y-13906817D01*
X16962396Y-13906817D02*
X16943349Y-13897293D01*
X16943349Y-13897293D02*
X16933825Y-13878246D01*
X16933825Y-13878246D02*
X16933825Y-13868722D01*
X16933825Y-13868722D02*
X16943349Y-13849674D01*
X16943349Y-13849674D02*
X16962396Y-13840150D01*
X16962396Y-13840150D02*
X16990968Y-13840150D01*
X16990968Y-13840150D02*
X17010016Y-13849674D01*
X17133825Y-13973484D02*
X17114777Y-13963960D01*
X17114777Y-13963960D02*
X17105254Y-13944912D01*
X17105254Y-13944912D02*
X17105254Y-13773484D01*
X17238587Y-13973484D02*
X17219539Y-13963960D01*
X17219539Y-13963960D02*
X17210016Y-13954436D01*
X17210016Y-13954436D02*
X17200492Y-13935388D01*
X17200492Y-13935388D02*
X17200492Y-13878246D01*
X17200492Y-13878246D02*
X17210016Y-13859198D01*
X17210016Y-13859198D02*
X17219539Y-13849674D01*
X17219539Y-13849674D02*
X17238587Y-13840150D01*
X17238587Y-13840150D02*
X17267158Y-13840150D01*
X17267158Y-13840150D02*
X17286206Y-13849674D01*
X17286206Y-13849674D02*
X17295730Y-13859198D01*
X17295730Y-13859198D02*
X17305254Y-13878246D01*
X17305254Y-13878246D02*
X17305254Y-13935388D01*
X17305254Y-13935388D02*
X17295730Y-13954436D01*
X17295730Y-13954436D02*
X17286206Y-13963960D01*
X17286206Y-13963960D02*
X17267158Y-13973484D01*
X17267158Y-13973484D02*
X17238587Y-13973484D01*
X17362397Y-13840150D02*
X17438587Y-13840150D01*
X17390968Y-13773484D02*
X17390968Y-13944912D01*
X17390968Y-13944912D02*
X17400492Y-13963960D01*
X17400492Y-13963960D02*
X17419539Y-13973484D01*
X17419539Y-13973484D02*
X17438587Y-13973484D01*
X17495730Y-13963960D02*
X17514777Y-13973484D01*
X17514777Y-13973484D02*
X17552873Y-13973484D01*
X17552873Y-13973484D02*
X17571920Y-13963960D01*
X17571920Y-13963960D02*
X17581444Y-13944912D01*
X17581444Y-13944912D02*
X17581444Y-13935388D01*
X17581444Y-13935388D02*
X17571920Y-13916341D01*
X17571920Y-13916341D02*
X17552873Y-13906817D01*
X17552873Y-13906817D02*
X17524301Y-13906817D01*
X17524301Y-13906817D02*
X17505254Y-13897293D01*
X17505254Y-13897293D02*
X17495730Y-13878246D01*
X17495730Y-13878246D02*
X17495730Y-13868722D01*
X17495730Y-13868722D02*
X17505254Y-13849674D01*
X17505254Y-13849674D02*
X17524301Y-13840150D01*
X17524301Y-13840150D02*
X17552873Y-13840150D01*
X17552873Y-13840150D02*
X17571920Y-13849674D01*
X17648111Y-14049674D02*
X17657635Y-14040150D01*
X17657635Y-14040150D02*
X17676682Y-14011579D01*
X17676682Y-14011579D02*
X17686206Y-13992531D01*
X17686206Y-13992531D02*
X17695730Y-13963960D01*
X17695730Y-13963960D02*
X17705254Y-13916341D01*
X17705254Y-13916341D02*
X17705254Y-13878246D01*
X17705254Y-13878246D02*
X17695730Y-13830627D01*
X17695730Y-13830627D02*
X17686206Y-13802055D01*
X17686206Y-13802055D02*
X17676682Y-13783008D01*
X17676682Y-13783008D02*
X17657635Y-13754436D01*
X17657635Y-13754436D02*
X17648111Y-13744912D01*
X18010016Y-14049674D02*
X18000492Y-14040150D01*
X18000492Y-14040150D02*
X17981444Y-14011579D01*
X17981444Y-14011579D02*
X17971920Y-13992531D01*
X17971920Y-13992531D02*
X17962397Y-13963960D01*
X17962397Y-13963960D02*
X17952873Y-13916341D01*
X17952873Y-13916341D02*
X17952873Y-13878246D01*
X17952873Y-13878246D02*
X17962397Y-13830627D01*
X17962397Y-13830627D02*
X17971920Y-13802055D01*
X17971920Y-13802055D02*
X17981444Y-13783008D01*
X17981444Y-13783008D02*
X18000492Y-13754436D01*
X18000492Y-13754436D02*
X18010016Y-13744912D01*
X18086206Y-13840150D02*
X18086206Y-13973484D01*
X18086206Y-13859198D02*
X18095730Y-13849674D01*
X18095730Y-13849674D02*
X18114777Y-13840150D01*
X18114777Y-13840150D02*
X18143349Y-13840150D01*
X18143349Y-13840150D02*
X18162397Y-13849674D01*
X18162397Y-13849674D02*
X18171920Y-13868722D01*
X18171920Y-13868722D02*
X18171920Y-13973484D01*
X18295730Y-13973484D02*
X18276682Y-13963960D01*
X18276682Y-13963960D02*
X18267158Y-13954436D01*
X18267158Y-13954436D02*
X18257635Y-13935388D01*
X18257635Y-13935388D02*
X18257635Y-13878246D01*
X18257635Y-13878246D02*
X18267158Y-13859198D01*
X18267158Y-13859198D02*
X18276682Y-13849674D01*
X18276682Y-13849674D02*
X18295730Y-13840150D01*
X18295730Y-13840150D02*
X18324301Y-13840150D01*
X18324301Y-13840150D02*
X18343349Y-13849674D01*
X18343349Y-13849674D02*
X18352873Y-13859198D01*
X18352873Y-13859198D02*
X18362397Y-13878246D01*
X18362397Y-13878246D02*
X18362397Y-13935388D01*
X18362397Y-13935388D02*
X18352873Y-13954436D01*
X18352873Y-13954436D02*
X18343349Y-13963960D01*
X18343349Y-13963960D02*
X18324301Y-13973484D01*
X18324301Y-13973484D02*
X18295730Y-13973484D01*
X18419539Y-13840150D02*
X18495730Y-13840150D01*
X18448111Y-13773484D02*
X18448111Y-13944912D01*
X18448111Y-13944912D02*
X18457635Y-13963960D01*
X18457635Y-13963960D02*
X18476682Y-13973484D01*
X18476682Y-13973484D02*
X18495730Y-13973484D01*
X18714778Y-13840150D02*
X18714778Y-14040150D01*
X18714778Y-13849674D02*
X18733825Y-13840150D01*
X18733825Y-13840150D02*
X18771920Y-13840150D01*
X18771920Y-13840150D02*
X18790968Y-13849674D01*
X18790968Y-13849674D02*
X18800492Y-13859198D01*
X18800492Y-13859198D02*
X18810016Y-13878246D01*
X18810016Y-13878246D02*
X18810016Y-13935388D01*
X18810016Y-13935388D02*
X18800492Y-13954436D01*
X18800492Y-13954436D02*
X18790968Y-13963960D01*
X18790968Y-13963960D02*
X18771920Y-13973484D01*
X18771920Y-13973484D02*
X18733825Y-13973484D01*
X18733825Y-13973484D02*
X18714778Y-13963960D01*
X18924301Y-13973484D02*
X18905254Y-13963960D01*
X18905254Y-13963960D02*
X18895730Y-13944912D01*
X18895730Y-13944912D02*
X18895730Y-13773484D01*
X19086206Y-13973484D02*
X19086206Y-13868722D01*
X19086206Y-13868722D02*
X19076682Y-13849674D01*
X19076682Y-13849674D02*
X19057635Y-13840150D01*
X19057635Y-13840150D02*
X19019539Y-13840150D01*
X19019539Y-13840150D02*
X19000492Y-13849674D01*
X19086206Y-13963960D02*
X19067159Y-13973484D01*
X19067159Y-13973484D02*
X19019539Y-13973484D01*
X19019539Y-13973484D02*
X19000492Y-13963960D01*
X19000492Y-13963960D02*
X18990968Y-13944912D01*
X18990968Y-13944912D02*
X18990968Y-13925865D01*
X18990968Y-13925865D02*
X19000492Y-13906817D01*
X19000492Y-13906817D02*
X19019539Y-13897293D01*
X19019539Y-13897293D02*
X19067159Y-13897293D01*
X19067159Y-13897293D02*
X19086206Y-13887769D01*
X19152873Y-13840150D02*
X19229063Y-13840150D01*
X19181444Y-13773484D02*
X19181444Y-13944912D01*
X19181444Y-13944912D02*
X19190968Y-13963960D01*
X19190968Y-13963960D02*
X19210016Y-13973484D01*
X19210016Y-13973484D02*
X19229063Y-13973484D01*
X19371920Y-13963960D02*
X19352873Y-13973484D01*
X19352873Y-13973484D02*
X19314778Y-13973484D01*
X19314778Y-13973484D02*
X19295730Y-13963960D01*
X19295730Y-13963960D02*
X19286206Y-13944912D01*
X19286206Y-13944912D02*
X19286206Y-13868722D01*
X19286206Y-13868722D02*
X19295730Y-13849674D01*
X19295730Y-13849674D02*
X19314778Y-13840150D01*
X19314778Y-13840150D02*
X19352873Y-13840150D01*
X19352873Y-13840150D02*
X19371920Y-13849674D01*
X19371920Y-13849674D02*
X19381444Y-13868722D01*
X19381444Y-13868722D02*
X19381444Y-13887769D01*
X19381444Y-13887769D02*
X19286206Y-13906817D01*
X19552873Y-13973484D02*
X19552873Y-13773484D01*
X19552873Y-13963960D02*
X19533825Y-13973484D01*
X19533825Y-13973484D02*
X19495730Y-13973484D01*
X19495730Y-13973484D02*
X19476682Y-13963960D01*
X19476682Y-13963960D02*
X19467159Y-13954436D01*
X19467159Y-13954436D02*
X19457635Y-13935388D01*
X19457635Y-13935388D02*
X19457635Y-13878246D01*
X19457635Y-13878246D02*
X19467159Y-13859198D01*
X19467159Y-13859198D02*
X19476682Y-13849674D01*
X19476682Y-13849674D02*
X19495730Y-13840150D01*
X19495730Y-13840150D02*
X19533825Y-13840150D01*
X19533825Y-13840150D02*
X19552873Y-13849674D01*
X19629063Y-14049674D02*
X19638587Y-14040150D01*
X19638587Y-14040150D02*
X19657635Y-14011579D01*
X19657635Y-14011579D02*
X19667159Y-13992531D01*
X19667159Y-13992531D02*
X19676682Y-13963960D01*
X19676682Y-13963960D02*
X19686206Y-13916341D01*
X19686206Y-13916341D02*
X19686206Y-13878246D01*
X19686206Y-13878246D02*
X19676682Y-13830627D01*
X19676682Y-13830627D02*
X19667159Y-13802055D01*
X19667159Y-13802055D02*
X19657635Y-13783008D01*
X19657635Y-13783008D02*
X19638587Y-13754436D01*
X19638587Y-13754436D02*
X19629063Y-13744912D01*
X11254000Y-14202000D02*
G75*
G02*
X11054000Y-14202000I-100000J0D01*
G01*
X11054000Y-14202000D02*
G75*
G02*
X11254000Y-14202000I100000J0D01*
G01*
X11495729Y-14093484D02*
X11619539Y-14093484D01*
X11619539Y-14093484D02*
X11552872Y-14169674D01*
X11552872Y-14169674D02*
X11581443Y-14169674D01*
X11581443Y-14169674D02*
X11600491Y-14179198D01*
X11600491Y-14179198D02*
X11610015Y-14188722D01*
X11610015Y-14188722D02*
X11619539Y-14207769D01*
X11619539Y-14207769D02*
X11619539Y-14255388D01*
X11619539Y-14255388D02*
X11610015Y-14274436D01*
X11610015Y-14274436D02*
X11600491Y-14283960D01*
X11600491Y-14283960D02*
X11581443Y-14293484D01*
X11581443Y-14293484D02*
X11524301Y-14293484D01*
X11524301Y-14293484D02*
X11505253Y-14283960D01*
X11505253Y-14283960D02*
X11495729Y-14274436D01*
X11705253Y-14274436D02*
X11714777Y-14283960D01*
X11714777Y-14283960D02*
X11705253Y-14293484D01*
X11705253Y-14293484D02*
X11695729Y-14283960D01*
X11695729Y-14283960D02*
X11705253Y-14274436D01*
X11705253Y-14274436D02*
X11705253Y-14293484D01*
X11790967Y-14112531D02*
X11800491Y-14103008D01*
X11800491Y-14103008D02*
X11819539Y-14093484D01*
X11819539Y-14093484D02*
X11867158Y-14093484D01*
X11867158Y-14093484D02*
X11886205Y-14103008D01*
X11886205Y-14103008D02*
X11895729Y-14112531D01*
X11895729Y-14112531D02*
X11905253Y-14131579D01*
X11905253Y-14131579D02*
X11905253Y-14150627D01*
X11905253Y-14150627D02*
X11895729Y-14179198D01*
X11895729Y-14179198D02*
X11781443Y-14293484D01*
X11781443Y-14293484D02*
X11905253Y-14293484D01*
X12029062Y-14093484D02*
X12048110Y-14093484D01*
X12048110Y-14093484D02*
X12067158Y-14103008D01*
X12067158Y-14103008D02*
X12076682Y-14112531D01*
X12076682Y-14112531D02*
X12086205Y-14131579D01*
X12086205Y-14131579D02*
X12095729Y-14169674D01*
X12095729Y-14169674D02*
X12095729Y-14217293D01*
X12095729Y-14217293D02*
X12086205Y-14255388D01*
X12086205Y-14255388D02*
X12076682Y-14274436D01*
X12076682Y-14274436D02*
X12067158Y-14283960D01*
X12067158Y-14283960D02*
X12048110Y-14293484D01*
X12048110Y-14293484D02*
X12029062Y-14293484D01*
X12029062Y-14293484D02*
X12010015Y-14283960D01*
X12010015Y-14283960D02*
X12000491Y-14274436D01*
X12000491Y-14274436D02*
X11990967Y-14255388D01*
X11990967Y-14255388D02*
X11981443Y-14217293D01*
X11981443Y-14217293D02*
X11981443Y-14169674D01*
X11981443Y-14169674D02*
X11990967Y-14131579D01*
X11990967Y-14131579D02*
X12000491Y-14112531D01*
X12000491Y-14112531D02*
X12010015Y-14103008D01*
X12010015Y-14103008D02*
X12029062Y-14093484D01*
X12219539Y-14093484D02*
X12238586Y-14093484D01*
X12238586Y-14093484D02*
X12257634Y-14103008D01*
X12257634Y-14103008D02*
X12267158Y-14112531D01*
X12267158Y-14112531D02*
X12276682Y-14131579D01*
X12276682Y-14131579D02*
X12286205Y-14169674D01*
X12286205Y-14169674D02*
X12286205Y-14217293D01*
X12286205Y-14217293D02*
X12276682Y-14255388D01*
X12276682Y-14255388D02*
X12267158Y-14274436D01*
X12267158Y-14274436D02*
X12257634Y-14283960D01*
X12257634Y-14283960D02*
X12238586Y-14293484D01*
X12238586Y-14293484D02*
X12219539Y-14293484D01*
X12219539Y-14293484D02*
X12200491Y-14283960D01*
X12200491Y-14283960D02*
X12190967Y-14274436D01*
X12190967Y-14274436D02*
X12181443Y-14255388D01*
X12181443Y-14255388D02*
X12171920Y-14217293D01*
X12171920Y-14217293D02*
X12171920Y-14169674D01*
X12171920Y-14169674D02*
X12181443Y-14131579D01*
X12181443Y-14131579D02*
X12190967Y-14112531D01*
X12190967Y-14112531D02*
X12200491Y-14103008D01*
X12200491Y-14103008D02*
X12219539Y-14093484D01*
X12371920Y-14293484D02*
X12371920Y-14160150D01*
X12371920Y-14179198D02*
X12381443Y-14169674D01*
X12381443Y-14169674D02*
X12400491Y-14160150D01*
X12400491Y-14160150D02*
X12429063Y-14160150D01*
X12429063Y-14160150D02*
X12448110Y-14169674D01*
X12448110Y-14169674D02*
X12457634Y-14188722D01*
X12457634Y-14188722D02*
X12457634Y-14293484D01*
X12457634Y-14188722D02*
X12467158Y-14169674D01*
X12467158Y-14169674D02*
X12486205Y-14160150D01*
X12486205Y-14160150D02*
X12514777Y-14160150D01*
X12514777Y-14160150D02*
X12533824Y-14169674D01*
X12533824Y-14169674D02*
X12543348Y-14188722D01*
X12543348Y-14188722D02*
X12543348Y-14293484D01*
X12638586Y-14293484D02*
X12638586Y-14160150D01*
X12638586Y-14179198D02*
X12648110Y-14169674D01*
X12648110Y-14169674D02*
X12667158Y-14160150D01*
X12667158Y-14160150D02*
X12695729Y-14160150D01*
X12695729Y-14160150D02*
X12714777Y-14169674D01*
X12714777Y-14169674D02*
X12724301Y-14188722D01*
X12724301Y-14188722D02*
X12724301Y-14293484D01*
X12724301Y-14188722D02*
X12733824Y-14169674D01*
X12733824Y-14169674D02*
X12752872Y-14160150D01*
X12752872Y-14160150D02*
X12781443Y-14160150D01*
X12781443Y-14160150D02*
X12800491Y-14169674D01*
X12800491Y-14169674D02*
X12810015Y-14188722D01*
X12810015Y-14188722D02*
X12810015Y-14293484D01*
X13200491Y-14083960D02*
X13029063Y-14341103D01*
X13457634Y-14093484D02*
X13476682Y-14093484D01*
X13476682Y-14093484D02*
X13495729Y-14103008D01*
X13495729Y-14103008D02*
X13505253Y-14112531D01*
X13505253Y-14112531D02*
X13514777Y-14131579D01*
X13514777Y-14131579D02*
X13524301Y-14169674D01*
X13524301Y-14169674D02*
X13524301Y-14217293D01*
X13524301Y-14217293D02*
X13514777Y-14255388D01*
X13514777Y-14255388D02*
X13505253Y-14274436D01*
X13505253Y-14274436D02*
X13495729Y-14283960D01*
X13495729Y-14283960D02*
X13476682Y-14293484D01*
X13476682Y-14293484D02*
X13457634Y-14293484D01*
X13457634Y-14293484D02*
X13438586Y-14283960D01*
X13438586Y-14283960D02*
X13429063Y-14274436D01*
X13429063Y-14274436D02*
X13419539Y-14255388D01*
X13419539Y-14255388D02*
X13410015Y-14217293D01*
X13410015Y-14217293D02*
X13410015Y-14169674D01*
X13410015Y-14169674D02*
X13419539Y-14131579D01*
X13419539Y-14131579D02*
X13429063Y-14112531D01*
X13429063Y-14112531D02*
X13438586Y-14103008D01*
X13438586Y-14103008D02*
X13457634Y-14093484D01*
X13610015Y-14274436D02*
X13619539Y-14283960D01*
X13619539Y-14283960D02*
X13610015Y-14293484D01*
X13610015Y-14293484D02*
X13600491Y-14283960D01*
X13600491Y-14283960D02*
X13610015Y-14274436D01*
X13610015Y-14274436D02*
X13610015Y-14293484D01*
X13810015Y-14293484D02*
X13695729Y-14293484D01*
X13752872Y-14293484D02*
X13752872Y-14093484D01*
X13752872Y-14093484D02*
X13733825Y-14122055D01*
X13733825Y-14122055D02*
X13714777Y-14141103D01*
X13714777Y-14141103D02*
X13695729Y-14150627D01*
X13886206Y-14112531D02*
X13895729Y-14103008D01*
X13895729Y-14103008D02*
X13914777Y-14093484D01*
X13914777Y-14093484D02*
X13962396Y-14093484D01*
X13962396Y-14093484D02*
X13981444Y-14103008D01*
X13981444Y-14103008D02*
X13990967Y-14112531D01*
X13990967Y-14112531D02*
X14000491Y-14131579D01*
X14000491Y-14131579D02*
X14000491Y-14150627D01*
X14000491Y-14150627D02*
X13990967Y-14179198D01*
X13990967Y-14179198D02*
X13876682Y-14293484D01*
X13876682Y-14293484D02*
X14000491Y-14293484D01*
X14171920Y-14093484D02*
X14133825Y-14093484D01*
X14133825Y-14093484D02*
X14114777Y-14103008D01*
X14114777Y-14103008D02*
X14105253Y-14112531D01*
X14105253Y-14112531D02*
X14086206Y-14141103D01*
X14086206Y-14141103D02*
X14076682Y-14179198D01*
X14076682Y-14179198D02*
X14076682Y-14255388D01*
X14076682Y-14255388D02*
X14086206Y-14274436D01*
X14086206Y-14274436D02*
X14095729Y-14283960D01*
X14095729Y-14283960D02*
X14114777Y-14293484D01*
X14114777Y-14293484D02*
X14152872Y-14293484D01*
X14152872Y-14293484D02*
X14171920Y-14283960D01*
X14171920Y-14283960D02*
X14181444Y-14274436D01*
X14181444Y-14274436D02*
X14190967Y-14255388D01*
X14190967Y-14255388D02*
X14190967Y-14207769D01*
X14190967Y-14207769D02*
X14181444Y-14188722D01*
X14181444Y-14188722D02*
X14171920Y-14179198D01*
X14171920Y-14179198D02*
X14152872Y-14169674D01*
X14152872Y-14169674D02*
X14114777Y-14169674D01*
X14114777Y-14169674D02*
X14095729Y-14179198D01*
X14095729Y-14179198D02*
X14086206Y-14188722D01*
X14086206Y-14188722D02*
X14076682Y-14207769D01*
X14314777Y-14093484D02*
X14333825Y-14093484D01*
X14333825Y-14093484D02*
X14352872Y-14103008D01*
X14352872Y-14103008D02*
X14362396Y-14112531D01*
X14362396Y-14112531D02*
X14371920Y-14131579D01*
X14371920Y-14131579D02*
X14381444Y-14169674D01*
X14381444Y-14169674D02*
X14381444Y-14217293D01*
X14381444Y-14217293D02*
X14371920Y-14255388D01*
X14371920Y-14255388D02*
X14362396Y-14274436D01*
X14362396Y-14274436D02*
X14352872Y-14283960D01*
X14352872Y-14283960D02*
X14333825Y-14293484D01*
X14333825Y-14293484D02*
X14314777Y-14293484D01*
X14314777Y-14293484D02*
X14295729Y-14283960D01*
X14295729Y-14283960D02*
X14286206Y-14274436D01*
X14286206Y-14274436D02*
X14276682Y-14255388D01*
X14276682Y-14255388D02*
X14267158Y-14217293D01*
X14267158Y-14217293D02*
X14267158Y-14169674D01*
X14267158Y-14169674D02*
X14276682Y-14131579D01*
X14276682Y-14131579D02*
X14286206Y-14112531D01*
X14286206Y-14112531D02*
X14295729Y-14103008D01*
X14295729Y-14103008D02*
X14314777Y-14093484D01*
X14457634Y-14093484D02*
X14457634Y-14131579D01*
X14533825Y-14093484D02*
X14533825Y-14131579D01*
X14829063Y-14369674D02*
X14819539Y-14360150D01*
X14819539Y-14360150D02*
X14800491Y-14331579D01*
X14800491Y-14331579D02*
X14790968Y-14312531D01*
X14790968Y-14312531D02*
X14781444Y-14283960D01*
X14781444Y-14283960D02*
X14771920Y-14236341D01*
X14771920Y-14236341D02*
X14771920Y-14198246D01*
X14771920Y-14198246D02*
X14781444Y-14150627D01*
X14781444Y-14150627D02*
X14790968Y-14122055D01*
X14790968Y-14122055D02*
X14800491Y-14103008D01*
X14800491Y-14103008D02*
X14819539Y-14074436D01*
X14819539Y-14074436D02*
X14829063Y-14064912D01*
X14895729Y-14112531D02*
X14905253Y-14103008D01*
X14905253Y-14103008D02*
X14924301Y-14093484D01*
X14924301Y-14093484D02*
X14971920Y-14093484D01*
X14971920Y-14093484D02*
X14990968Y-14103008D01*
X14990968Y-14103008D02*
X15000491Y-14112531D01*
X15000491Y-14112531D02*
X15010015Y-14131579D01*
X15010015Y-14131579D02*
X15010015Y-14150627D01*
X15010015Y-14150627D02*
X15000491Y-14179198D01*
X15000491Y-14179198D02*
X14886206Y-14293484D01*
X14886206Y-14293484D02*
X15010015Y-14293484D01*
X15248110Y-14293484D02*
X15248110Y-14093484D01*
X15333825Y-14293484D02*
X15333825Y-14188722D01*
X15333825Y-14188722D02*
X15324301Y-14169674D01*
X15324301Y-14169674D02*
X15305253Y-14160150D01*
X15305253Y-14160150D02*
X15276682Y-14160150D01*
X15276682Y-14160150D02*
X15257634Y-14169674D01*
X15257634Y-14169674D02*
X15248110Y-14179198D01*
X15457634Y-14293484D02*
X15438587Y-14283960D01*
X15438587Y-14283960D02*
X15429063Y-14274436D01*
X15429063Y-14274436D02*
X15419539Y-14255388D01*
X15419539Y-14255388D02*
X15419539Y-14198246D01*
X15419539Y-14198246D02*
X15429063Y-14179198D01*
X15429063Y-14179198D02*
X15438587Y-14169674D01*
X15438587Y-14169674D02*
X15457634Y-14160150D01*
X15457634Y-14160150D02*
X15486206Y-14160150D01*
X15486206Y-14160150D02*
X15505253Y-14169674D01*
X15505253Y-14169674D02*
X15514777Y-14179198D01*
X15514777Y-14179198D02*
X15524301Y-14198246D01*
X15524301Y-14198246D02*
X15524301Y-14255388D01*
X15524301Y-14255388D02*
X15514777Y-14274436D01*
X15514777Y-14274436D02*
X15505253Y-14283960D01*
X15505253Y-14283960D02*
X15486206Y-14293484D01*
X15486206Y-14293484D02*
X15457634Y-14293484D01*
X15638587Y-14293484D02*
X15619539Y-14283960D01*
X15619539Y-14283960D02*
X15610015Y-14264912D01*
X15610015Y-14264912D02*
X15610015Y-14093484D01*
X15790968Y-14283960D02*
X15771920Y-14293484D01*
X15771920Y-14293484D02*
X15733825Y-14293484D01*
X15733825Y-14293484D02*
X15714777Y-14283960D01*
X15714777Y-14283960D02*
X15705253Y-14264912D01*
X15705253Y-14264912D02*
X15705253Y-14188722D01*
X15705253Y-14188722D02*
X15714777Y-14169674D01*
X15714777Y-14169674D02*
X15733825Y-14160150D01*
X15733825Y-14160150D02*
X15771920Y-14160150D01*
X15771920Y-14160150D02*
X15790968Y-14169674D01*
X15790968Y-14169674D02*
X15800491Y-14188722D01*
X15800491Y-14188722D02*
X15800491Y-14207769D01*
X15800491Y-14207769D02*
X15705253Y-14226817D01*
X15876682Y-14283960D02*
X15895730Y-14293484D01*
X15895730Y-14293484D02*
X15933825Y-14293484D01*
X15933825Y-14293484D02*
X15952872Y-14283960D01*
X15952872Y-14283960D02*
X15962396Y-14264912D01*
X15962396Y-14264912D02*
X15962396Y-14255388D01*
X15962396Y-14255388D02*
X15952872Y-14236341D01*
X15952872Y-14236341D02*
X15933825Y-14226817D01*
X15933825Y-14226817D02*
X15905253Y-14226817D01*
X15905253Y-14226817D02*
X15886206Y-14217293D01*
X15886206Y-14217293D02*
X15876682Y-14198246D01*
X15876682Y-14198246D02*
X15876682Y-14188722D01*
X15876682Y-14188722D02*
X15886206Y-14169674D01*
X15886206Y-14169674D02*
X15905253Y-14160150D01*
X15905253Y-14160150D02*
X15933825Y-14160150D01*
X15933825Y-14160150D02*
X15952872Y-14169674D01*
X16029063Y-14369674D02*
X16038587Y-14360150D01*
X16038587Y-14360150D02*
X16057634Y-14331579D01*
X16057634Y-14331579D02*
X16067158Y-14312531D01*
X16067158Y-14312531D02*
X16076682Y-14283960D01*
X16076682Y-14283960D02*
X16086206Y-14236341D01*
X16086206Y-14236341D02*
X16086206Y-14198246D01*
X16086206Y-14198246D02*
X16076682Y-14150627D01*
X16076682Y-14150627D02*
X16067158Y-14122055D01*
X16067158Y-14122055D02*
X16057634Y-14103008D01*
X16057634Y-14103008D02*
X16038587Y-14074436D01*
X16038587Y-14074436D02*
X16029063Y-14064912D01*
X16390968Y-14369674D02*
X16381444Y-14360150D01*
X16381444Y-14360150D02*
X16362396Y-14331579D01*
X16362396Y-14331579D02*
X16352872Y-14312531D01*
X16352872Y-14312531D02*
X16343349Y-14283960D01*
X16343349Y-14283960D02*
X16333825Y-14236341D01*
X16333825Y-14236341D02*
X16333825Y-14198246D01*
X16333825Y-14198246D02*
X16343349Y-14150627D01*
X16343349Y-14150627D02*
X16352872Y-14122055D01*
X16352872Y-14122055D02*
X16362396Y-14103008D01*
X16362396Y-14103008D02*
X16381444Y-14074436D01*
X16381444Y-14074436D02*
X16390968Y-14064912D01*
X16467158Y-14160150D02*
X16467158Y-14293484D01*
X16467158Y-14179198D02*
X16476682Y-14169674D01*
X16476682Y-14169674D02*
X16495730Y-14160150D01*
X16495730Y-14160150D02*
X16524301Y-14160150D01*
X16524301Y-14160150D02*
X16543349Y-14169674D01*
X16543349Y-14169674D02*
X16552872Y-14188722D01*
X16552872Y-14188722D02*
X16552872Y-14293484D01*
X16676682Y-14293484D02*
X16657634Y-14283960D01*
X16657634Y-14283960D02*
X16648111Y-14274436D01*
X16648111Y-14274436D02*
X16638587Y-14255388D01*
X16638587Y-14255388D02*
X16638587Y-14198246D01*
X16638587Y-14198246D02*
X16648111Y-14179198D01*
X16648111Y-14179198D02*
X16657634Y-14169674D01*
X16657634Y-14169674D02*
X16676682Y-14160150D01*
X16676682Y-14160150D02*
X16705253Y-14160150D01*
X16705253Y-14160150D02*
X16724301Y-14169674D01*
X16724301Y-14169674D02*
X16733825Y-14179198D01*
X16733825Y-14179198D02*
X16743349Y-14198246D01*
X16743349Y-14198246D02*
X16743349Y-14255388D01*
X16743349Y-14255388D02*
X16733825Y-14274436D01*
X16733825Y-14274436D02*
X16724301Y-14283960D01*
X16724301Y-14283960D02*
X16705253Y-14293484D01*
X16705253Y-14293484D02*
X16676682Y-14293484D01*
X16800492Y-14160150D02*
X16876682Y-14160150D01*
X16829063Y-14093484D02*
X16829063Y-14264912D01*
X16829063Y-14264912D02*
X16838587Y-14283960D01*
X16838587Y-14283960D02*
X16857634Y-14293484D01*
X16857634Y-14293484D02*
X16876682Y-14293484D01*
X17095730Y-14160150D02*
X17095730Y-14360150D01*
X17095730Y-14169674D02*
X17114777Y-14160150D01*
X17114777Y-14160150D02*
X17152873Y-14160150D01*
X17152873Y-14160150D02*
X17171920Y-14169674D01*
X17171920Y-14169674D02*
X17181444Y-14179198D01*
X17181444Y-14179198D02*
X17190968Y-14198246D01*
X17190968Y-14198246D02*
X17190968Y-14255388D01*
X17190968Y-14255388D02*
X17181444Y-14274436D01*
X17181444Y-14274436D02*
X17171920Y-14283960D01*
X17171920Y-14283960D02*
X17152873Y-14293484D01*
X17152873Y-14293484D02*
X17114777Y-14293484D01*
X17114777Y-14293484D02*
X17095730Y-14283960D01*
X17305254Y-14293484D02*
X17286206Y-14283960D01*
X17286206Y-14283960D02*
X17276682Y-14264912D01*
X17276682Y-14264912D02*
X17276682Y-14093484D01*
X17467158Y-14293484D02*
X17467158Y-14188722D01*
X17467158Y-14188722D02*
X17457635Y-14169674D01*
X17457635Y-14169674D02*
X17438587Y-14160150D01*
X17438587Y-14160150D02*
X17400492Y-14160150D01*
X17400492Y-14160150D02*
X17381444Y-14169674D01*
X17467158Y-14283960D02*
X17448111Y-14293484D01*
X17448111Y-14293484D02*
X17400492Y-14293484D01*
X17400492Y-14293484D02*
X17381444Y-14283960D01*
X17381444Y-14283960D02*
X17371920Y-14264912D01*
X17371920Y-14264912D02*
X17371920Y-14245865D01*
X17371920Y-14245865D02*
X17381444Y-14226817D01*
X17381444Y-14226817D02*
X17400492Y-14217293D01*
X17400492Y-14217293D02*
X17448111Y-14217293D01*
X17448111Y-14217293D02*
X17467158Y-14207769D01*
X17533825Y-14160150D02*
X17610015Y-14160150D01*
X17562396Y-14093484D02*
X17562396Y-14264912D01*
X17562396Y-14264912D02*
X17571920Y-14283960D01*
X17571920Y-14283960D02*
X17590968Y-14293484D01*
X17590968Y-14293484D02*
X17610015Y-14293484D01*
X17752873Y-14283960D02*
X17733825Y-14293484D01*
X17733825Y-14293484D02*
X17695730Y-14293484D01*
X17695730Y-14293484D02*
X17676682Y-14283960D01*
X17676682Y-14283960D02*
X17667158Y-14264912D01*
X17667158Y-14264912D02*
X17667158Y-14188722D01*
X17667158Y-14188722D02*
X17676682Y-14169674D01*
X17676682Y-14169674D02*
X17695730Y-14160150D01*
X17695730Y-14160150D02*
X17733825Y-14160150D01*
X17733825Y-14160150D02*
X17752873Y-14169674D01*
X17752873Y-14169674D02*
X17762396Y-14188722D01*
X17762396Y-14188722D02*
X17762396Y-14207769D01*
X17762396Y-14207769D02*
X17667158Y-14226817D01*
X17933825Y-14293484D02*
X17933825Y-14093484D01*
X17933825Y-14283960D02*
X17914777Y-14293484D01*
X17914777Y-14293484D02*
X17876682Y-14293484D01*
X17876682Y-14293484D02*
X17857635Y-14283960D01*
X17857635Y-14283960D02*
X17848111Y-14274436D01*
X17848111Y-14274436D02*
X17838587Y-14255388D01*
X17838587Y-14255388D02*
X17838587Y-14198246D01*
X17838587Y-14198246D02*
X17848111Y-14179198D01*
X17848111Y-14179198D02*
X17857635Y-14169674D01*
X17857635Y-14169674D02*
X17876682Y-14160150D01*
X17876682Y-14160150D02*
X17914777Y-14160150D01*
X17914777Y-14160150D02*
X17933825Y-14169674D01*
X18010016Y-14369674D02*
X18019539Y-14360150D01*
X18019539Y-14360150D02*
X18038587Y-14331579D01*
X18038587Y-14331579D02*
X18048111Y-14312531D01*
X18048111Y-14312531D02*
X18057635Y-14283960D01*
X18057635Y-14283960D02*
X18067158Y-14236341D01*
X18067158Y-14236341D02*
X18067158Y-14198246D01*
X18067158Y-14198246D02*
X18057635Y-14150627D01*
X18057635Y-14150627D02*
X18048111Y-14122055D01*
X18048111Y-14122055D02*
X18038587Y-14103008D01*
X18038587Y-14103008D02*
X18019539Y-14074436D01*
X18019539Y-14074436D02*
X18010016Y-14064912D01*
M02*
